<svg xmlns="http://www.w3.org/2000/svg" width="61.44" height="53.21" viewBox="0 0 61.44 53.21">
  <defs>
    <style>
      .cls-1 {
        isolation: isolate;
      }

      .cls-2 {
        opacity: 0;
        mix-blend-mode: multiply;
      }

      .cls-3, .cls-5 {
        fill: none;
        stroke-miterlimit: 10;
      }

      .cls-3 {
        stroke: #000;
      }

      .cls-4 {
        fill: #238dc1;
      }

      .cls-5 {
        stroke: #008dc1;
      }

      .cls-6 {
        fill: #fff;
        fill-rule: evenodd;
      }
    </style>
  </defs>
  <title>Ресурс 38</title>
  <g class="cls-1">
    <g id="Слой_2" data-name="Слой 2">
      <g id="Слой_1-2" data-name="Слой 1">
        <g>
          <g>
            <g class="cls-2">
              <polygon points="45.8 0.5 15.65 0.5 0.58 26.61 15.65 52.71 45.8 52.71 60.87 26.61 45.8 0.5"/>
              <polygon class="cls-3" points="45.8 0.5 15.65 0.5 0.58 26.61 15.65 52.71 45.8 52.71 60.87 26.61 45.8 0.5"/>
            </g>
            <g>
              <polygon class="cls-4" points="45.8 0.5 15.65 0.5 0.58 26.61 15.65 52.71 45.8 52.71 60.87 26.61 45.8 0.5"/>
              <polygon class="cls-5" points="45.8 0.5 15.65 0.5 0.58 26.61 15.65 52.71 45.8 52.71 60.87 26.61 45.8 0.5"/>
            </g>
          </g>
          <g>
            <path class="cls-6" d="M31.14,45.94c8.34-6.09,13.61-15.74,15.3-28l-15.3-6.09-15.3,6.09c1.69,12.25,7,21.9,15.3,28Z"/>
            <path class="cls-4" d="M37.21,31.49a.43.43,0,0,0-.11-.31L36,29.94l.34-.56,1.65.34a.44.44,0,0,0,.33-.06.42.42,0,0,0,.19-.28l.43-2.06a.43.43,0,0,0-.34-.51l-1.63-.34-.05-.65,1.53-.69a.44.44,0,0,0,.22-.24.41.41,0,0,0,0-.33l-.86-1.91a.43.43,0,0,0-.57-.21l-1.52.68-.43-.49.83-1.46a.43.43,0,0,0,0-.33.42.42,0,0,0-.2-.26l-1.82-1a.44.44,0,0,0-.59.16l-.82,1.45L32,21l-.19-1.67a.43.43,0,0,0-.48-.38l-2.08.23a.42.42,0,0,0-.29.16.43.43,0,0,0-.09.32l.18,1.66-.6.25-1.13-1.24a.42.42,0,0,0-.3-.14.43.43,0,0,0-.31.11L25.2,21.7a.44.44,0,0,0-.14.3.43.43,0,0,0,.11.31l1.12,1.23L26,24.1l-1.64-.34a.44.44,0,0,0-.51.34l-.42,2.06a.44.44,0,0,0,.34.51l1.63.34.05.65-1.53.69a.43.43,0,0,0-.22.57l.86,1.91a.43.43,0,0,0,.24.23.42.42,0,0,0,.33,0l1.52-.69.43.49-.83,1.46a.42.42,0,0,0,0,.33.43.43,0,0,0,.1.18.4.4,0,0,0,.11.08l1.82,1a.43.43,0,0,0,.33,0,.44.44,0,0,0,.26-.2l.82-1.45.63.15.19,1.67a.45.45,0,0,0,.16.29.43.43,0,0,0,.32.09L33,34.32a.44.44,0,0,0,.38-.48l-.19-1.66.6-.25,1.13,1.24a.43.43,0,0,0,.3.14.44.44,0,0,0,.31-.11l1.55-1.41A.43.43,0,0,0,37.21,31.49Zm-4.65-3.18a2.11,2.11,0,1,1,.14-3A2.12,2.12,0,0,1,32.56,28.31Z"/>
          </g>
        </g>
      </g>
    </g>
  </g>
</svg>
