<svg xmlns="http://www.w3.org/2000/svg" width="60.29" height="52.21" viewBox="0 0 60.29 52.21">
  <defs>
    <style>
      .cls-1 {
        isolation: isolate;
      }

      .cls-2 {
        opacity: 0;
        mix-blend-mode: multiply;
      }

      .cls-3 {
        fill: #238dc1;
      }

      .cls-4 {
        fill: #fff;
      }
    </style>
  </defs>
  <title>Ресурс 46</title>
  <g class="cls-1">
    <g id="Слой_2" data-name="Слой 2">
      <g id="Слой_1-2" data-name="Слой 1">
        <g>
          <g>
            <g class="cls-2">
              <polygon points="45.22 0 15.07 0 0 26.11 15.07 52.21 45.22 52.21 60.29 26.11 45.22 0"/>
            </g>
            <polygon class="cls-3" points="45.22 0 15.07 0 0 26.11 15.07 52.21 45.22 52.21 60.29 26.11 45.22 0"/>
          </g>
          <g>
            <path class="cls-4" d="M30.11,9a17.5,17.5,0,1,0,17.5,17.5A17.52,17.52,0,0,0,30.11,9ZM37,39.51,32.37,30.9a4.92,4.92,0,0,1-4.52,0l-4.67,8.61a14.75,14.75,0,0,1-7.81-13l9.8,0c0-.05,0-.1,0-.15a4.69,4.69,0,0,1,2.24-4L22.35,14a14.7,14.7,0,0,1,15.53,0l-5.07,8.38a4.68,4.68,0,0,1,2.24,4c0,.05,0,.1,0,.15l9.8,0a14.75,14.75,0,0,1-7.81,13Zm0,0"/>
            <path class="cls-4" d="M33.28,26.51a3.17,3.17,0,1,1-3.17-3.17,3.17,3.17,0,0,1,3.17,3.17Zm0,0"/>
          </g>
        </g>
      </g>
    </g>
  </g>
</svg>
