<svg xmlns="http://www.w3.org/2000/svg" width="60.29" height="52.21" viewBox="0 0 60.29 52.21">
  <defs>
    <style>
      .cls-1 {
        isolation: isolate;
      }

      .cls-2 {
        opacity: 0;
        mix-blend-mode: multiply;
      }

      .cls-3 {
        fill: #238dc1;
      }

      .cls-4 {
        fill: #fff;
      }
    </style>
  </defs>
  <title>Ресурс 48</title>
  <g class="cls-1">
    <g id="Слой_2" data-name="Слой 2">
      <g id="Слой_1-2" data-name="Слой 1">
        <g>
          <g>
            <g class="cls-2">
              <polygon points="45.22 0 15.07 0 0 26.11 15.07 52.21 45.22 52.21 60.29 26.11 45.22 0"/>
            </g>
            <polygon class="cls-3" points="45.22 0 15.07 0 0 26.11 15.07 52.21 45.22 52.21 60.29 26.11 45.22 0"/>
          </g>
          <g>
            <path class="cls-4" d="M45.79,21.26H19.94A2.73,2.73,0,0,0,17.3,22.9L13.82,36.17c-.24.9.57,1.63,1.78,1.63H41.44a2.73,2.73,0,0,0,2.64-1.63L47.57,22.9C47.8,22,47,21.26,45.79,21.26Zm-9.62,8.27a7.06,7.06,0,0,1-6.53,5.72c-3,0-5-2.56-4.41-5.72a7.06,7.06,0,0,1,6.53-5.72C34.78,23.81,36.75,26.37,36.16,29.53Z"/>
            <path class="cls-4" d="M34.25,28.55H32l.44-2a.29.29,0,0,0-.32-.35h-1.4a.49.49,0,0,0-.47.35l-.44,2H27.56a.5.5,0,0,0-.48.35l-.27,1.25a.3.3,0,0,0,.32.35h2.25l-.44,2a.29.29,0,0,0,.32.35h1.4a.49.49,0,0,0,.47-.35l.44-2h2.25a.49.49,0,0,0,.47-.35l.27-1.25A.29.29,0,0,0,34.25,28.55Z"/>
            <path class="cls-4" d="M19.94,19.58H44.35v-1a2.53,2.53,0,0,0-2.52-2.52H26V15a2.53,2.53,0,0,0-2.52-2.52h-5A2.53,2.53,0,0,0,16,15v1.08a2.52,2.52,0,0,0-2.21,2.49V29.7l1.9-7.24A4.36,4.36,0,0,1,19.94,19.58Z"/>
          </g>
        </g>
      </g>
    </g>
  </g>
</svg>
