<svg xmlns="http://www.w3.org/2000/svg" width="60.29" height="52.21" viewBox="0 0 60.29 52.21">
  <defs>
    <style>
      .cls-1 {
        isolation: isolate;
      }

      .cls-2 {
        opacity: 0;
        mix-blend-mode: multiply;
      }

      .cls-3 {
        fill: #238dc1;
      }

      .cls-4 {
        fill: #fff;
      }
    </style>
  </defs>
  <title>Ресурс 49</title>
  <g class="cls-1">
    <g id="Слой_2" data-name="Слой 2">
      <g id="Слой_1-2" data-name="Слой 1">
        <g>
          <g>
            <g class="cls-2">
              <polygon points="45.22 0 15.07 0 0 26.11 15.07 52.21 45.22 52.21 60.29 26.11 45.22 0"/>
            </g>
            <polygon class="cls-3" points="45.22 0 15.07 0 0 26.11 15.07 52.21 45.22 52.21 60.29 26.11 45.22 0"/>
          </g>
          <g>
            <path class="cls-4" d="M34.72,22.82l.33.4a9.82,9.82,0,0,1,2.66,6.6c0,3-1.21,5.37-4,8.08l-.3.28,1.24,3H19.38l3.22-7.16h3.52V31.89H20.95v-.75H32.79v.75h-4.7v2.17H31.7l.65,1.74.64-.51a6.1,6.1,0,0,0,2.52-5,5.92,5.92,0,0,0-2.64-5.19Z"/>
            <path class="cls-4" d="M31.47,24.42l-.82-.63-.46-.34L26.92,27.4l.9.77-.73.75-5.66-4.85.75-.79,1.08.87,3.43-4,2.65-3.21,2.93-3.36a2.27,2.27,0,0,1,1.24-.64,5.15,5.15,0,0,1,1.31.27l.38.11,1.71-1.85L35,9.59l.6-.67L40,13.11l-.64.74-1.59-1.62L36,14l.2.38a2.65,2.65,0,0,1,.44,1.29A2,2,0,0,1,36,17L33,20.27l1,.78a.28.28,0,0,1,.08.21.34.34,0,0,1,0,.12l-.38.41-.35.39Z"/>
          </g>
        </g>
      </g>
    </g>
  </g>
</svg>
