<svg xmlns="http://www.w3.org/2000/svg" width="60.29" height="52.21" viewBox="0 0 60.29 52.21">
  <defs>
    <style>
      .cls-1 {
        isolation: isolate;
      }

      .cls-2 {
        opacity: 0;
        mix-blend-mode: multiply;
      }

      .cls-3 {
        fill: #238dc1;
      }

      .cls-4 {
        fill: #fff;
      }
    </style>
  </defs>
  <title>Ресурс 50</title>
  <g class="cls-1">
    <g id="Слой_2" data-name="Слой 2">
      <g id="Слой_1-2" data-name="Слой 1">
        <g>
          <g>
            <g class="cls-2">
              <polygon points="45.22 0 15.07 0 0 26.11 15.07 52.21 45.22 52.21 60.29 26.11 45.22 0"/>
            </g>
            <polygon class="cls-3" points="45.22 0 15.07 0 0 26.11 15.07 52.21 45.22 52.21 60.29 26.11 45.22 0"/>
          </g>
          <g>
            <g>
              <path class="cls-4" d="M23.68,35l4.05-7.73,3.95-7.53c1.78-3.39.88-7.38-2-8.89s-6.68,0-8.45,3.41L17.27,21.8l-4.05,7.73c-1.78,3.39-.88,7.38,2,8.89S21.91,38.41,23.68,35ZM18.5,21.42,22,14.69c1.54-2.95,4.79-4.31,7.23-3s3.17,4.72,1.63,7.67l-3.52,6.73Z"/>
              <path class="cls-4" d="M28.07,13.13a.45.45,0,0,1,.61-.19,3.07,3.07,0,0,1,1.6,1.91c.58,2-.81,4.42-.87,4.52a.45.45,0,1,1-.78-.46s1.25-2.18.78-3.81a2.16,2.16,0,0,0-1.15-1.36.45.45,0,0,1-.19-.61Z"/>
            </g>
            <g>
              <path class="cls-4" d="M36.42,22a8.65,8.65,0,0,0-6.58,8.92l16.52-4A8.65,8.65,0,0,0,36.42,22Z"/>
              <path class="cls-4" d="M40.52,38.77a8.65,8.65,0,0,0,6.58-8.92l-16.52,4A8.65,8.65,0,0,0,40.52,38.77Z"/>
            </g>
          </g>
        </g>
      </g>
    </g>
  </g>
</svg>
