<svg xmlns="http://www.w3.org/2000/svg" width="60.29" height="52.21" viewBox="0 0 60.29 52.21">
  <defs>
    <style>
      .cls-1 {
        isolation: isolate;
      }

      .cls-2 {
        opacity: 0;
        mix-blend-mode: multiply;
      }

      .cls-3 {
        fill: #238dc1;
      }

      .cls-4 {
        fill: #fff;
      }
    </style>
  </defs>
  <title>Ресурс 51</title>
  <g class="cls-1">
    <g id="Слой_2" data-name="Слой 2">
      <g id="Слой_1-2" data-name="Слой 1">
        <g>
          <g>
            <g class="cls-2">
              <polygon points="45.22 0 15.07 0 0 26.11 15.07 52.21 45.22 52.21 60.29 26.11 45.22 0"/>
            </g>
            <polygon class="cls-3" points="45.22 0 15.07 0 0 26.11 15.07 52.21 45.22 52.21 60.29 26.11 45.22 0"/>
          </g>
          <g>
            <path class="cls-4" d="M17.6,28.65a2.92,2.92,0,1,0,2.92,2.92A2.92,2.92,0,0,0,17.6,28.65Z"/>
            <ellipse class="cls-4" cx="29.31" cy="10.4" rx="1.14" ry="2.36" transform="translate(1.24 23.79) rotate(-45.04)"/>
            <ellipse class="cls-4" cx="38.82" cy="9.92" rx="2.36" ry="1.14" transform="translate(4.34 30.33) rotate(-44.96)"/>
            <path class="cls-4" d="M44.89,14.15,42.15,11.4A1.12,1.12,0,1,0,40.56,13l2.75,2.75a2,2,0,0,1,0,2.78L35.68,29a2,2,0,0,1-2.71,0L25.31,18.47a1.94,1.94,0,0,1,0-2.74l2.33-2.33a1.12,1.12,0,0,0-1.58-1.58l-2.33,2.33a4.18,4.18,0,0,0,0,5.87l7.66,10.59a4.13,4.13,0,0,0,2,1.11v8.38a3.74,3.74,0,0,1-3.74,3.74H22.23a3.74,3.74,0,0,1-3.74-3.74v-3a5.62,5.62,0,1,0-1.7,0v3a5.44,5.44,0,0,0,5.44,5.44h7.41a5.44,5.44,0,0,0,5.44-5.44V31.76a4.14,4.14,0,0,0,2.22-1.19l7.59-10.52a4.18,4.18,0,0,0,0-5.91ZM13,31.57a4.59,4.59,0,1,1,4.59,4.59A4.6,4.6,0,0,1,13,31.57Z"/>
          </g>
        </g>
      </g>
    </g>
  </g>
</svg>
