<svg xmlns="http://www.w3.org/2000/svg" width="60.29" height="52.21" viewBox="0 0 60.29 52.21">
  <defs>
    <style>
      .cls-1 {
        isolation: isolate;
      }

      .cls-2 {
        opacity: 0;
        mix-blend-mode: multiply;
      }

      .cls-3 {
        fill: #238dc1;
      }

      .cls-4 {
        fill: #fff;
      }
    </style>
  </defs>
  <title>Ресурс 52</title>
  <g class="cls-1">
    <g id="Слой_2" data-name="Слой 2">
      <g id="Слой_1-2" data-name="Слой 1">
        <g>
          <g>
            <g class="cls-2">
              <polygon points="45.22 0 15.07 0 0 26.11 15.07 52.21 45.22 52.21 60.29 26.11 45.22 0"/>
            </g>
            <polygon class="cls-3" points="45.22 0 15.07 0 0 26.11 15.07 52.21 45.22 52.21 60.29 26.11 45.22 0"/>
          </g>
          <g>
            <path class="cls-4" d="M34.45,12.77a2.17,2.17,0,0,0-4.34,0v1.31h4.34Z"/>
            <circle class="cls-4" cx="39.51" cy="35.05" r="2.67"/>
            <path class="cls-4" d="M47.14,28.52,43.66,20.6C42,17,39.13,15.66,33.23,15.66H17.07c-1.23,0-3.23.25-3.23,3.15s.08,4.47.08,4.47L14.14,32c0,1.81,1.57,2.85,4.12,2.93a3.81,3.81,0,0,1,7.61,0H35.7a3.81,3.81,0,0,1,7.61,0h1c2.1,0,3.8-1.29,3.8-3.4A7.63,7.63,0,0,0,47.14,28.52Zm-17.85-3H25.75v3.54H22.67V25.51H19.13V22.43h3.54V18.89h3.08v3.54h3.54Zm5.59.34v-7.2l3.36.08c2.67.73,4,3.07,5.18,7.12Z"/>
            <circle class="cls-4" cx="22.07" cy="35.05" r="2.67"/>
          </g>
        </g>
      </g>
    </g>
  </g>
</svg>
