<svg xmlns="http://www.w3.org/2000/svg" width="60.29" height="52.24" viewBox="0 0 60.29 52.24">
  <defs>
    <style>
      .cls-1 {
        isolation: isolate;
      }

      .cls-2 {
        opacity: 0;
        mix-blend-mode: multiply;
      }

      .cls-3 {
        fill: #238dc1;
      }

      .cls-4 {
        fill: #fff;
      }
    </style>
  </defs>
  <title>Ресурс 53</title>
  <g class="cls-1">
    <g id="Слой_2" data-name="Слой 2">
      <g id="Слой_1-2" data-name="Слой 1">
        <g>
          <g>
            <g class="cls-2">
              <polygon points="45.22 0 15.07 0 0 26.11 15.07 52.21 45.22 52.21 60.29 26.11 45.22 0"/>
            </g>
            <polygon class="cls-3" points="45.22 0 15.07 0 0 26.11 15.07 52.21 45.22 52.21 60.29 26.11 45.22 0"/>
          </g>
          <g>
            <path class="cls-4" d="M31.8,20h-9v6a5.46,5.46,0,0,0,5.42,5.58H31.8a5.38,5.38,0,0,0,5.33-5.58V20Zm-2.63,8.72h-3.8a.57.57,0,1,1,0-1.14h3.8a.57.57,0,1,1,0,1.14Zm0-3.13h-3.8a.57.57,0,1,1,0-1.14h3.8a.57.57,0,1,1,0,1.14Zm0-3.13h-3.8a.57.57,0,1,1,0-1.14h3.8a.57.57,0,0,1,0,1.14Z"/>
            <path class="cls-4" d="M29.17,18.43h-3.8a.57.57,0,0,1,0-1.14h3.8a.57.57,0,0,1,0,1.14Z"/>
            <path class="cls-4" d="M29.17,15h-3.8a.57.57,0,0,1,0-1.14h3.8a.57.57,0,0,1,0,1.14Z"/>
            <path class="cls-4" d="M33.57,8.74H19.78V28.1a6.48,6.48,0,0,0,6.46,6.46h1.14c0,.62.76,1.14,1.77,1.32v3.68h0A1.08,1.08,0,0,0,28,40.63v3.73a1.08,1.08,0,0,0,1.08,1.08h0v6.8h1.52v-6.8h0a1.08,1.08,0,0,0,1.08-1.08V40.63a1.08,1.08,0,0,0-1.08-1.08h0V35.88c1-.18,1.74-.7,1.76-1.32h1.14A6.48,6.48,0,0,0,40,28.1V8.74Zm5,8.55v9.3c0,3.55-2.07,6.46-6.46,6.46H28c-4.49,0-6.46-2.9-6.46-6.46V10.83h17Z"/>
          </g>
        </g>
      </g>
    </g>
  </g>
</svg>
