<svg xmlns="http://www.w3.org/2000/svg" width="61.44" height="53.21" viewBox="0 0 61.44 53.21">
  <defs>
    <style>
      .cls-1 {
        isolation: isolate;
      }

      .cls-2 {
        opacity: 0;
        mix-blend-mode: multiply;
      }

      .cls-3, .cls-5 {
        fill: none;
        stroke-miterlimit: 10;
      }

      .cls-3 {
        stroke: #000;
      }

      .cls-4 {
        fill: #238dc1;
      }

      .cls-5 {
        stroke: #008dc1;
      }

      .cls-6 {
        fill: #fff;
      }
    </style>
  </defs>
  <title>Ресурс 32</title>
  <g class="cls-1">
    <g id="Слой_2" data-name="Слой 2">
      <g id="Слой_1-2" data-name="Слой 1">
        <g>
          <g>
            <g class="cls-2">
              <polygon points="45.8 0.5 15.65 0.5 0.58 26.61 15.65 52.71 45.8 52.71 60.87 26.61 45.8 0.5"/>
              <polygon class="cls-3" points="45.8 0.5 15.65 0.5 0.58 26.61 15.65 52.71 45.8 52.71 60.87 26.61 45.8 0.5"/>
            </g>
            <g>
              <polygon class="cls-4" points="45.8 0.5 15.65 0.5 0.58 26.61 15.65 52.71 45.8 52.71 60.87 26.61 45.8 0.5"/>
              <polygon class="cls-5" points="45.8 0.5 15.65 0.5 0.58 26.61 15.65 52.71 45.8 52.71 60.87 26.61 45.8 0.5"/>
            </g>
          </g>
          <path class="cls-6" d="M30.43,41.48l.74.48h0C45.32,32.4,44.43,22,44.43,22c-.62-5.85-4.55-6.36-8-5.59a21.51,21.51,0,0,0-5.62,2.24c-.13-.07-12.77-7-13.53,3.82C17.23,22.51,16.72,32.54,30.43,41.48ZM23.6,26.77a.93.93,0,0,1-1.3-.11,6.19,6.19,0,0,1-1.48-4.26A3.52,3.52,0,0,1,22.45,20a.92.92,0,0,1,1.13.09,1,1,0,0,1,.14.16.92.92,0,0,1-.26,1.27,1.7,1.7,0,0,0-.83,1.18,4.43,4.43,0,0,0,1.07,2.83A.92.92,0,0,1,23.6,26.77Z"/>
        </g>
      </g>
    </g>
  </g>
</svg>
