<svg xmlns="http://www.w3.org/2000/svg" width="61.44" height="53.21" viewBox="0 0 61.44 53.21">
  <defs>
    <style>
      .cls-1 {
        isolation: isolate;
      }

      .cls-2 {
        opacity: 0;
        mix-blend-mode: multiply;
      }

      .cls-3, .cls-5 {
        fill: none;
        stroke-miterlimit: 10;
      }

      .cls-3 {
        stroke: #000;
      }

      .cls-4 {
        fill: #fff;
      }

      .cls-5 {
        stroke: #238dc1;
      }

      .cls-6 {
        fill: #238dc1;
      }
    </style>
  </defs>
  <title>Ресурс 10</title>
  <g class="cls-1">
    <g id="Слой_2" data-name="Слой 2">
      <g id="Слой_1-2" data-name="Слой 1">
        <g>
          <g>
            <g class="cls-2">
              <polygon points="45.8 0.5 15.65 0.5 0.58 26.61 15.65 52.71 45.8 52.71 60.87 26.61 45.8 0.5"/>
              <polygon class="cls-3" points="45.8 0.5 15.65 0.5 0.58 26.61 15.65 52.71 45.8 52.71 60.87 26.61 45.8 0.5"/>
            </g>
            <g>
              <polygon class="cls-4" points="45.8 0.5 15.65 0.5 0.58 26.61 15.65 52.71 45.8 52.71 60.87 26.61 45.8 0.5"/>
              <polygon class="cls-5" points="45.8 0.5 15.65 0.5 0.58 26.61 15.65 52.71 45.8 52.71 60.87 26.61 45.8 0.5"/>
            </g>
          </g>
          <g>
            <path class="cls-6" d="M42.39,16.55H20.27a4.06,4.06,0,0,0-4,4V32.48a4.06,4.06,0,0,0,4,4H42.39a4.06,4.06,0,0,0,4-4V20.59A4.06,4.06,0,0,0,42.39,16.55ZM29.31,30.9A1.35,1.35,0,0,1,28,32.25H20.43a1.35,1.35,0,0,1-1.35-1.35V22.18a1.35,1.35,0,0,1,1.35-1.35H28a1.35,1.35,0,0,1,1.35,1.35Zm13.92-.72H32v-.85H43.23Zm0-3.45H32v-.84H43.23Zm0-3.45H32v-.85H43.23Z"/>
            <path class="cls-6" d="M24.08,26.06c-2.43,0-3.92,1.6-3.92,4.75H28C28,27.67,26.51,26.06,24.08,26.06Z"/>
            <circle class="cls-6" cx="23.92" cy="23.76" r="1.9"/>
          </g>
        </g>
      </g>
    </g>
  </g>
</svg>
