<svg xmlns="http://www.w3.org/2000/svg" width="61.44" height="53.21" viewBox="0 0 61.44 53.21">
  <defs>
    <style>
      .cls-1 {
        isolation: isolate;
      }

      .cls-2 {
        opacity: 0;
        mix-blend-mode: multiply;
      }

      .cls-3, .cls-5 {
        fill: none;
        stroke-miterlimit: 10;
      }

      .cls-3 {
        stroke: #000;
      }

      .cls-4 {
        fill: #fff;
      }

      .cls-5 {
        stroke: #238dc1;
      }

      .cls-6 {
        fill: #238dc1;
      }
    </style>
  </defs>
  <title>Ресурс 15</title>
  <g class="cls-1">
    <g id="Слой_2" data-name="Слой 2">
      <g id="Слой_1-2" data-name="Слой 1">
        <g>
          <g>
            <g class="cls-2">
              <polygon points="45.8 0.5 15.65 0.5 0.58 26.61 15.65 52.71 45.8 52.71 60.87 26.61 45.8 0.5"/>
              <polygon class="cls-3" points="45.8 0.5 15.65 0.5 0.58 26.61 15.65 52.71 45.8 52.71 60.87 26.61 45.8 0.5"/>
            </g>
            <g>
              <polygon class="cls-4" points="45.8 0.5 15.65 0.5 0.58 26.61 15.65 52.71 45.8 52.71 60.87 26.61 45.8 0.5"/>
              <polygon class="cls-5" points="45.8 0.5 15.65 0.5 0.58 26.61 15.65 52.71 45.8 52.71 60.87 26.61 45.8 0.5"/>
            </g>
          </g>
          <g>
            <path class="cls-6" d="M35.87,14H23.76a1.14,1.14,0,1,1,0-2.28H35.87a1.14,1.14,0,1,1,0,2.28Z"/>
            <path class="cls-6" d="M43.19,39s-8.12-14.73-8.46-15V11.82H25V24.13C24.72,24.39,16.68,39,16.68,39a1.24,1.24,0,0,0,1.19,2H42A1.24,1.24,0,0,0,43.19,39ZM26.52,13.61h6.7V23h-.59a2.94,2.94,0,0,0-.45,0H27.7a2.94,2.94,0,0,0-.45,0h-.73Zm-.38,23.84a2.07,2.07,0,1,1,2.07-2.07A2.07,2.07,0,0,1,26.13,37.45ZM29,28.38a.76.76,0,1,1,.76-.76A.76.76,0,0,1,29,28.38ZM32.88,33a1.31,1.31,0,1,1,1.31-1.31A1.31,1.31,0,0,1,32.88,33Z"/>
          </g>
        </g>
      </g>
    </g>
  </g>
</svg>
