<svg xmlns="http://www.w3.org/2000/svg" width="61.44" height="53.21" viewBox="0 0 61.44 53.21">
  <defs>
    <style>
      .cls-1 {
        isolation: isolate;
      }

      .cls-2 {
        opacity: 0;
        mix-blend-mode: multiply;
      }

      .cls-3, .cls-5 {
        fill: none;
        stroke-miterlimit: 10;
      }

      .cls-3 {
        stroke: #000;
      }

      .cls-4 {
        fill: #fff;
      }

      .cls-5 {
        stroke: #238dc1;
      }

      .cls-6 {
        fill: #238dc1;
      }
    </style>
  </defs>
  <title>Ресурс 14</title>
  <g class="cls-1">
    <g id="Слой_2" data-name="Слой 2">
      <g id="Слой_1-2" data-name="Слой 1">
        <g>
          <g>
            <g class="cls-2">
              <polygon points="45.8 0.5 15.65 0.5 0.58 26.61 15.65 52.71 45.8 52.71 60.87 26.61 45.8 0.5"/>
              <polygon class="cls-3" points="45.8 0.5 15.65 0.5 0.58 26.61 15.65 52.71 45.8 52.71 60.87 26.61 45.8 0.5"/>
            </g>
            <g>
              <polygon class="cls-4" points="45.8 0.5 15.65 0.5 0.58 26.61 15.65 52.71 45.8 52.71 60.87 26.61 45.8 0.5"/>
              <polygon class="cls-5" points="45.8 0.5 15.65 0.5 0.58 26.61 15.65 52.71 45.8 52.71 60.87 26.61 45.8 0.5"/>
            </g>
          </g>
          <g>
            <path class="cls-6" d="M24.79,34.52a1.19,1.19,0,0,0-1.19-1.19H18.38a1.19,1.19,0,0,0,0,2.37H23.6A1.19,1.19,0,0,0,24.79,34.52Z"/>
            <path class="cls-6" d="M18.38,29.2H23.6a1.19,1.19,0,1,0,0-2.37H18.38a1.19,1.19,0,0,0,0,2.37Z"/>
            <path class="cls-6" d="M18.38,22.82H23.6a1.19,1.19,0,1,0,0-2.37H18.38a1.19,1.19,0,0,0,0,2.37Z"/>
            <path class="cls-6" d="M42.44,20.86V15H21.72v4.17H23.6a2.52,2.52,0,1,1,0,5H21.74V25.5H23.6a2.52,2.52,0,0,1,0,5H21.74V32H23.6a2.52,2.52,0,0,1,0,5H21.72v4H42.44V35.79h0V20.86ZM33.63,21a2.79,2.79,0,1,1-2.79,2.79A2.79,2.79,0,0,1,33.63,21ZM28.52,35c0-4.63,1.77-6.5,5.34-6.5S39.4,30.39,39.4,35Z"/>
          </g>
        </g>
      </g>
    </g>
  </g>
</svg>
