<svg xmlns="http://www.w3.org/2000/svg" width="61.44" height="53.21" viewBox="0 0 61.44 53.21">
  <defs>
    <style>
      .cls-1 {
        isolation: isolate;
      }

      .cls-2 {
        opacity: 0;
        mix-blend-mode: multiply;
      }

      .cls-3, .cls-5 {
        fill: none;
        stroke-miterlimit: 10;
      }

      .cls-3 {
        stroke: #000;
      }

      .cls-4 {
        fill: #fff;
      }

      .cls-5 {
        stroke: #238dc1;
      }

      .cls-6 {
        fill: #238dc1;
      }
    </style>
  </defs>
  <title>Ресурс 11</title>
  <g class="cls-1">
    <g id="Слой_2" data-name="Слой 2">
      <g id="Слой_1-2" data-name="Слой 1">
        <g>
          <g>
            <g class="cls-2">
              <polygon points="45.8 0.5 15.65 0.5 0.58 26.61 15.65 52.71 45.8 52.71 60.87 26.61 45.8 0.5"/>
              <polygon class="cls-3" points="45.8 0.5 15.65 0.5 0.58 26.61 15.65 52.71 45.8 52.71 60.87 26.61 45.8 0.5"/>
            </g>
            <g>
              <polygon class="cls-4" points="45.8 0.5 15.65 0.5 0.58 26.61 15.65 52.71 45.8 52.71 60.87 26.61 45.8 0.5"/>
              <polygon class="cls-5" points="45.8 0.5 15.65 0.5 0.58 26.61 15.65 52.71 45.8 52.71 60.87 26.61 45.8 0.5"/>
            </g>
          </g>
          <g>
            <path class="cls-6" d="M26,26.6l1.06.22,0,.42-1,.45a.28.28,0,0,0-.14.37l.56,1.24a.28.28,0,0,0,.16.15.27.27,0,0,0,.22,0l1-.45.28.32-.54,1a.27.27,0,0,0,0,.21.28.28,0,0,0,.06.11l.07.05,1.19.68a.28.28,0,0,0,.21,0,.29.29,0,0,0,.17-.13l.54-.94.41.1.12,1.09a.29.29,0,0,0,.1.19.28.28,0,0,0,.21.06L32,31.58a.28.28,0,0,0,.25-.31l-.12-1.08.39-.16.74.81a.28.28,0,0,0,.2.09.29.29,0,0,0,.2-.07l1-.92a.28.28,0,0,0,0-.4l-.73-.8.22-.36,1.07.22a.29.29,0,0,0,.21,0,.27.27,0,0,0,.12-.18L35.86,27a.28.28,0,0,0-.22-.33l-1.06-.22,0-.42,1-.45a.28.28,0,0,0,.15-.16.27.27,0,0,0,0-.22L35.12,24a.28.28,0,0,0-.37-.14l-1,.45L33.48,24,34,23a.28.28,0,0,0,0-.21.27.27,0,0,0-.13-.17L32.73,22a.28.28,0,0,0-.39.11l-.53.94-.41-.1-.12-1.09a.28.28,0,0,0-.31-.25l-1.36.15a.28.28,0,0,0-.19.1.28.28,0,0,0-.06.21l.12,1.08-.39.16-.74-.81a.27.27,0,0,0-.19-.09.28.28,0,0,0-.2.07l-1,.92a.28.28,0,0,0-.09.2.28.28,0,0,0,.07.2l.73.8-.22.36-1.07-.22a.28.28,0,0,0-.33.22l-.28,1.34a.28.28,0,0,0,0,.21A.28.28,0,0,0,26,26.6Zm3.91-1a1.38,1.38,0,1,1-.09,1.94A1.38,1.38,0,0,1,29.88,25.64Z"/>
            <path class="cls-6" d="M35.17,10.41H26.45a5.14,5.14,0,0,0-5.12,5.12V38a5.13,5.13,0,0,0,5.12,5.12h8.72A5.14,5.14,0,0,0,40.29,38V15.54A5.14,5.14,0,0,0,35.17,10.41Zm-1.72,2a.71.71,0,1,1-.71.71A.71.71,0,0,1,33.45,12.46Zm-2.64,0a.71.71,0,1,1-.71.71A.71.71,0,0,1,30.81,12.46Zm-2.64,0a.71.71,0,1,1-.71.71A.71.71,0,0,1,28.17,12.46Zm5.09,27.94H28.35a.7.7,0,1,1,0-1.37h4.91a.7.7,0,1,1,0,1.37Zm5.27-3.6H23.09v-21H38.53Z"/>
          </g>
        </g>
      </g>
    </g>
  </g>
</svg>
