<svg xmlns="http://www.w3.org/2000/svg" width="61.44" height="53.21" viewBox="0 0 61.44 53.21">
  <defs>
    <style>
      .cls-1 {
        isolation: isolate;
      }

      .cls-2 {
        opacity: 0;
        mix-blend-mode: multiply;
      }

      .cls-3, .cls-5 {
        fill: none;
        stroke-miterlimit: 10;
      }

      .cls-3 {
        stroke: #000;
      }

      .cls-4 {
        fill: #fff;
      }

      .cls-5 {
        stroke: #238dc1;
      }

      .cls-6 {
        fill: #238dc1;
      }
    </style>
  </defs>
  <title>Ресурс 12</title>
  <g class="cls-1">
    <g id="Слой_2" data-name="Слой 2">
      <g id="Слой_1-2" data-name="Слой 1">
        <g>
          <g>
            <g class="cls-2">
              <polygon points="45.8 0.5 15.65 0.5 0.58 26.61 15.65 52.71 45.8 52.71 60.87 26.61 45.8 0.5"/>
              <polygon class="cls-3" points="45.8 0.5 15.65 0.5 0.58 26.61 15.65 52.71 45.8 52.71 60.87 26.61 45.8 0.5"/>
            </g>
            <g>
              <polygon class="cls-4" points="45.8 0.5 15.65 0.5 0.58 26.61 15.65 52.71 45.8 52.71 60.87 26.61 45.8 0.5"/>
              <polygon class="cls-5" points="45.8 0.5 15.65 0.5 0.58 26.61 15.65 52.71 45.8 52.71 60.87 26.61 45.8 0.5"/>
            </g>
          </g>
          <g>
            <polygon class="cls-6" points="25.35 31.35 17 39.7 40.23 39.7 40.23 24.31 29.27 35.27 25.35 31.35"/>
            <path class="cls-6" d="M41.66,14.13H34.25a.89.89,0,0,0-.71.56.57.57,0,0,0,.1.66L35.27,17l.54.54a2.3,2.3,0,0,0-.3.25L29,24.3l-1.91-2.08a2.41,2.41,0,0,0-3.41-.14l-.12.14-.1.08-8.3,8.3A2.41,2.41,0,1,0,18.56,34l6.67-6.67L27,29.24l.15.13.09.11a2.42,2.42,0,0,0,3.42,0l8.3-8.3a2.22,2.22,0,0,0,.25-.3l.42.42L41.31,23a.65.65,0,0,0,.74.17.87.87,0,0,0,.53-.73v-7.4A.93.93,0,0,0,41.66,14.13Z"/>
          </g>
        </g>
      </g>
    </g>
  </g>
</svg>
