<svg xmlns="http://www.w3.org/2000/svg" width="61.44" height="53.21" viewBox="0 0 61.44 53.21">
  <defs>
    <style>
      .cls-1 {
        isolation: isolate;
      }

      .cls-2 {
        opacity: 0;
        mix-blend-mode: multiply;
      }

      .cls-3, .cls-5 {
        fill: none;
        stroke-miterlimit: 10;
      }

      .cls-3 {
        stroke: #000;
      }

      .cls-4 {
        fill: #fff;
      }

      .cls-5 {
        stroke: #238dc1;
      }

      .cls-6 {
        fill: #238dc1;
      }
    </style>
  </defs>
  <title>Ресурс 13</title>
  <g class="cls-1">
    <g id="Слой_2" data-name="Слой 2">
      <g id="Слой_1-2" data-name="Слой 1">
        <g>
          <g>
            <g class="cls-2">
              <polygon points="45.8 0.5 15.65 0.5 0.58 26.61 15.65 52.71 45.8 52.71 60.87 26.61 45.8 0.5"/>
              <polygon class="cls-3" points="45.8 0.5 15.65 0.5 0.58 26.61 15.65 52.71 45.8 52.71 60.87 26.61 45.8 0.5"/>
            </g>
            <g>
              <polygon class="cls-4" points="45.8 0.5 15.65 0.5 0.58 26.61 15.65 52.71 45.8 52.71 60.87 26.61 45.8 0.5"/>
              <polygon class="cls-5" points="45.8 0.5 15.65 0.5 0.58 26.61 15.65 52.71 45.8 52.71 60.87 26.61 45.8 0.5"/>
            </g>
          </g>
          <g>
            <path class="cls-6" d="M33,27.58a.61.61,0,0,0-.37-.26l-2.2-.49-.06-.88,2.09-.9a.59.59,0,0,0,.31-.77l-1.13-2.62a.59.59,0,0,0-.77-.31l-2.07.9-.57-.68,1.16-2a.59.59,0,0,0,.06-.45.58.58,0,0,0-.27-.36l-2.45-1.45a.59.59,0,0,0-.8.21l-1.15,1.94L24,19.27,23.75,17a.6.6,0,0,0-.21-.4.58.58,0,0,0-.43-.13l-2.83.27a.58.58,0,0,0-.53.64L20,19.63l-.82.33-1.51-1.71a.58.58,0,0,0-.83-.05l-2.14,1.88a.59.59,0,0,0-.05.83l1.49,1.7-.47.75-2.23-.5a.59.59,0,0,0-.7.45l-.62,2.78a.58.58,0,0,0,.08.44.59.59,0,0,0,.37.26l2.2.49.06.88-2.09.9a.59.59,0,0,0-.31.77l1.13,2.61a.59.59,0,0,0,.77.31l2.07-.89.57.68-1.16,2a.59.59,0,0,0,.21.8l2.45,1.45a.58.58,0,0,0,.44.07.59.59,0,0,0,.36-.27l1.15-1.94.86.22.21,2.27a.58.58,0,0,0,.21.39.56.56,0,0,0,.25.12.61.61,0,0,0,.19,0l2.83-.27a.59.59,0,0,0,.4-.21.59.59,0,0,0,.13-.43l-.21-2.25.82-.33,1.51,1.71a.59.59,0,0,0,.83.05L30.53,34a.59.59,0,0,0,.05-.83l-1.49-1.7.47-.75,2.23.5a.59.59,0,0,0,.7-.45L33.11,28A.6.6,0,0,0,33,27.58Zm-7.64.09a2.86,2.86,0,1,1-2.17-3.42A2.87,2.87,0,0,1,25.39,27.67Z"/>
            <path class="cls-6" d="M47.81,27.87a.41.41,0,0,0-.11-.3l-1.07-1.18.32-.53,1.58.33a.42.42,0,0,0,.31-.06.41.41,0,0,0,.18-.26l.41-2a.41.41,0,0,0-.32-.49l-1.56-.32-.05-.62L49,21.78a.42.42,0,0,0,.21-.23.4.4,0,0,0,0-.32l-.83-1.83a.42.42,0,0,0-.55-.21l-1.45.66-.41-.47.8-1.4a.41.41,0,0,0,0-.32.4.4,0,0,0-.2-.25l-1.75-1a.42.42,0,0,0-.57.16L43.46,18l-.61-.14-.18-1.6a.41.41,0,0,0-.46-.37l-2,.22a.41.41,0,0,0-.28.15.41.41,0,0,0-.09.3L40,18.11l-.58.24-1.09-1.19a.4.4,0,0,0-.29-.13.41.41,0,0,0-.3.11L36.3,18.49a.42.42,0,0,0-.14.29.41.41,0,0,0,.11.3l1.07,1.18-.32.53-1.58-.33a.42.42,0,0,0-.49.32l-.41,2a.42.42,0,0,0,.32.49l1.56.32.05.63L35,24.86a.41.41,0,0,0-.21.55l.83,1.83a.41.41,0,0,0,.23.22.4.4,0,0,0,.32,0l1.45-.66.41.47-.8,1.4a.4.4,0,0,0,0,.32.41.41,0,0,0,.09.17l.1.08,1.75,1a.41.41,0,0,0,.32,0,.42.42,0,0,0,.25-.2l.79-1.39.61.14.18,1.6a.43.43,0,0,0,.15.28.41.41,0,0,0,.31.09l2-.22a.42.42,0,0,0,.37-.46l-.18-1.59.58-.24,1.09,1.19a.42.42,0,0,0,.29.13.42.42,0,0,0,.3-.11l1.49-1.36A.41.41,0,0,0,47.81,27.87Zm-4.46-3.05A2,2,0,1,1,43.48,22,2,2,0,0,1,43.35,24.82Z"/>
            <path class="cls-6" d="M41.56,41a.32.32,0,0,0-.08-.22l-.82-.87.23-.4,1.18.23a.31.31,0,0,0,.23,0,.3.3,0,0,0,.13-.2L42.73,38a.31.31,0,0,0-.25-.36l-1.17-.23,0-.47,1.09-.51a.31.31,0,0,0,.16-.17.3.3,0,0,0,0-.24l-.64-1.36a.31.31,0,0,0-.41-.15L40.37,35l-.31-.35.58-1.06a.31.31,0,0,0,0-.24.31.31,0,0,0-.15-.18l-1.32-.73a.31.31,0,0,0-.42.12l-.58,1-.46-.1-.15-1.2a.31.31,0,0,0-.35-.27l-1.49.19a.31.31,0,0,0-.21.12.3.3,0,0,0-.06.23l.15,1.18-.43.19-.83-.88a.3.3,0,0,0-.21-.1.32.32,0,0,0-.22.08l-1.1,1a.31.31,0,0,0-.1.22.32.32,0,0,0,.08.22l.82.87-.24.4-1.18-.23a.31.31,0,0,0-.36.25l-.29,1.48a.32.32,0,0,0,.25.36l1.17.23,0,.46L32,38.85a.31.31,0,0,0-.15.41l.64,1.36a.31.31,0,0,0,.41.15l1.08-.51.31.35-.58,1.05a.31.31,0,0,0,0,.24.3.3,0,0,0,.07.13l.08.06,1.32.73a.31.31,0,0,0,.42-.12l.58-1,.45.1.15,1.2a.31.31,0,0,0,.35.27L38.55,43a.32.32,0,0,0,.27-.35l-.15-1.18.43-.19.82.88a.31.31,0,0,0,.22.1.32.32,0,0,0,.22-.08l1.1-1A.31.31,0,0,0,41.56,41Zm-3.37-2.23a1.51,1.51,0,1,1,.07-2.14A1.52,1.52,0,0,1,38.19,38.74Z"/>
          </g>
        </g>
      </g>
    </g>
  </g>
</svg>
