<svg xmlns="http://www.w3.org/2000/svg" width="61.44" height="53.21" viewBox="0 0 61.44 53.21">
  <defs>
    <style>
      .cls-1 {
        isolation: isolate;
      }

      .cls-2 {
        opacity: 0;
        mix-blend-mode: multiply;
      }

      .cls-3, .cls-5 {
        fill: none;
        stroke-miterlimit: 10;
      }

      .cls-3 {
        stroke: #000;
      }

      .cls-4 {
        fill: #fff;
      }

      .cls-5 {
        stroke: #238dc1;
      }

      .cls-6 {
        fill: #238dc1;
      }
    </style>
  </defs>
  <title>Ресурс 17</title>
  <g class="cls-1">
    <g id="Слой_2" data-name="Слой 2">
      <g id="Слой_1-2" data-name="Слой 1">
        <g>
          <g>
            <g class="cls-2">
              <polygon points="45.8 0.5 15.65 0.5 0.58 26.61 15.65 52.71 45.8 52.71 60.87 26.61 45.8 0.5"/>
              <polygon class="cls-3" points="45.8 0.5 15.65 0.5 0.58 26.61 15.65 52.71 45.8 52.71 60.87 26.61 45.8 0.5"/>
            </g>
            <g>
              <polygon class="cls-4" points="45.8 0.5 15.65 0.5 0.58 26.61 15.65 52.71 45.8 52.71 60.87 26.61 45.8 0.5"/>
              <polygon class="cls-5" points="45.8 0.5 15.65 0.5 0.58 26.61 15.65 52.71 45.8 52.71 60.87 26.61 45.8 0.5"/>
            </g>
          </g>
          <g>
            <g>
              <g>
                <path class="cls-6" d="M29.75,28.68a3.6,3.6,0,0,1-2.23-.76.48.48,0,0,1,.62-.74,2.76,2.76,0,0,0,3.33,0,.48.48,0,0,1,.54.8,4,4,0,0,1-2.26.73Z"/>
                <g>
                  <circle class="cls-6" cx="26.53" cy="23.03" r="1.14" transform="translate(3.12 49.22) rotate(-89.17)"/>
                  <circle class="cls-6" cx="33.04" cy="23.02" r="1.14" transform="translate(9.55 55.73) rotate(-89.19)"/>
                </g>
              </g>
              <path class="cls-6" d="M41.9,36.74a4.52,4.52,0,0,0-4.17-3.28H36.61l-6.24,7.05-6.24-7.05H23a4.52,4.52,0,0,0-4.17,3.28l-2,7.31h27Z"/>
            </g>
            <g>
              <g>
                <path class="cls-6" d="M19.73,18.9H21v8.78H19.73c-1.29,0-2.34-2-2.34-4.39S18.44,18.9,19.73,18.9Z"/>
                <path class="cls-6" d="M30.21,8.94a10.37,10.37,0,0,0-10.1,7.44,3.87,3.87,0,0,1,.59,0,4.2,4.2,0,0,1,1.07.14,9,9,0,0,1,16.89,0,3.93,3.93,0,0,1,.87-.1,4.18,4.18,0,0,1,.81.08A10.51,10.51,0,0,0,30.21,8.94Z"/>
              </g>
              <path class="cls-6" d="M41.09,18.9H39.27v8.78h.44c-.31,1-2.14,3.26-7,3.86a2.23,2.23,0,0,0-2.18-1.2c-1.24,0-2.25.71-2.25,1.57s1,1.57,2.25,1.57a2.28,2.28,0,0,0,2.14-1.12c5.79-.66,7.61-3.58,7.87-4.68h.54c1.29,0,2.34-2,2.34-4.39S42.38,18.9,41.09,18.9Z"/>
            </g>
            <path class="cls-6" d="M27.25,30.73a8.63,8.63,0,0,1-3.93-7,6.46,6.46,0,0,1,.3-1.95c1.31-1.27,5-1.84,5-1.84a4.51,4.51,0,0,0,3-2.42,6.5,6.5,0,0,1,4.62,6.21,8.78,8.78,0,0,1-3,6.3l0,0A8.2,8.2,0,0,0,37.92,28V18l-.16,0-.39-1.14A5.3,5.3,0,0,0,32.95,13c-1.57.06-1.47,1.26-1.47,1.26a3.18,3.18,0,0,0-3.76-1.35c-2.17.74-4,1.82-4.68,4l-.4,1.2L22.3,18V29H19.67c.77,1.48,1.85,2,4.47,1l.26-.16A8.36,8.36,0,0,0,26.95,32s0,0,0,0A2.51,2.51,0,0,1,27.25,30.73Z"/>
          </g>
        </g>
      </g>
    </g>
  </g>
</svg>
