<svg xmlns="http://www.w3.org/2000/svg" width="61.44" height="53.21" viewBox="0 0 61.44 53.21">
  <defs>
    <style>
      .cls-1 {
        isolation: isolate;
      }

      .cls-2 {
        opacity: 0;
        mix-blend-mode: multiply;
      }

      .cls-3, .cls-5 {
        fill: none;
        stroke-miterlimit: 10;
      }

      .cls-3 {
        stroke: #000;
      }

      .cls-4 {
        fill: #fff;
      }

      .cls-5 {
        stroke: #238dc1;
      }

      .cls-6 {
        fill: #238dc1;
      }
    </style>
  </defs>
  <title>Ресурс 16</title>
  <g class="cls-1">
    <g id="Слой_2" data-name="Слой 2">
      <g id="Слой_1-2" data-name="Слой 1">
        <g>
          <g>
            <g class="cls-2">
              <polygon points="45.8 0.5 15.65 0.5 0.58 26.61 15.65 52.71 45.8 52.71 60.87 26.61 45.8 0.5"/>
              <polygon class="cls-3" points="45.8 0.5 15.65 0.5 0.58 26.61 15.65 52.71 45.8 52.71 60.87 26.61 45.8 0.5"/>
            </g>
            <g>
              <polygon class="cls-4" points="45.8 0.5 15.65 0.5 0.58 26.61 15.65 52.71 45.8 52.71 60.87 26.61 45.8 0.5"/>
              <polygon class="cls-5" points="45.8 0.5 15.65 0.5 0.58 26.61 15.65 52.71 45.8 52.71 60.87 26.61 45.8 0.5"/>
            </g>
          </g>
          <g>
            <path class="cls-6" d="M40.56,13.87H38v3.2h1.76V39.19H22V17.07h1.77v-3.2H21.24a2.41,2.41,0,0,0-2.4,2.4V40a2.41,2.41,0,0,0,2.4,2.4H40.56A2.41,2.41,0,0,0,43,40V16.27A2.41,2.41,0,0,0,40.56,13.87Z"/>
            <path class="cls-6" d="M34.75,13.87a1.44,1.44,0,0,0,.08-.46,3.85,3.85,0,0,0-7.69,0,1.41,1.41,0,0,0,.08.46H25v5.6H36.77v-5.6Zm-3.81,1.59a2,2,0,1,1,2-2A2,2,0,0,1,30.94,15.46Z"/>
            <path class="cls-6" d="M25,36a.4.4,0,0,1-.28-.11l-1.69-1.67.56-.57L25,35.06l2.33-2.56.59.54-2.61,2.87A.4.4,0,0,1,25,36Z"/>
            <path class="cls-6" d="M25,30.11a.4.4,0,0,1-.28-.11l-1.69-1.67.56-.57L25,29.14l2.33-2.56.59.54L25.33,30a.4.4,0,0,1-.28.13Z"/>
            <path class="cls-6" d="M25,24.19a.4.4,0,0,1-.28-.12l-1.69-1.67.56-.57L25,23.21l2.33-2.56.59.54-2.61,2.86a.4.4,0,0,1-.28.13Z"/>
            <rect class="cls-6" x="23.34" y="36.59" width="15.22" height="0.8"/>
            <rect class="cls-6" x="23.29" y="30.66" width="15.22" height="0.8"/>
            <rect class="cls-6" x="23.24" y="24.73" width="15.22" height="0.8"/>
          </g>
        </g>
      </g>
    </g>
  </g>
</svg>
