<svg xmlns="http://www.w3.org/2000/svg" width="61.44" height="53.21" viewBox="0 0 61.44 53.21">
  <defs>
    <style>
      .cls-1 {
        isolation: isolate;
      }

      .cls-2 {
        opacity: 0;
        mix-blend-mode: multiply;
      }

      .cls-3, .cls-5 {
        fill: none;
        stroke-miterlimit: 10;
      }

      .cls-3 {
        stroke: #000;
      }

      .cls-4 {
        fill: #fff;
      }

      .cls-5 {
        stroke: #238dc1;
      }

      .cls-6 {
        fill: #238dc1;
      }
    </style>
  </defs>
  <title>Ресурс 18</title>
  <g class="cls-1">
    <g id="Слой_2" data-name="Слой 2">
      <g id="Слой_1-2" data-name="Слой 1">
        <g>
          <g>
            <g class="cls-2">
              <polygon points="45.8 0.5 15.65 0.5 0.58 26.61 15.65 52.71 45.8 52.71 60.87 26.61 45.8 0.5"/>
              <polygon class="cls-3" points="45.8 0.5 15.65 0.5 0.58 26.61 15.65 52.71 45.8 52.71 60.87 26.61 45.8 0.5"/>
            </g>
            <g>
              <polygon class="cls-4" points="45.8 0.5 15.65 0.5 0.58 26.61 15.65 52.71 45.8 52.71 60.87 26.61 45.8 0.5"/>
              <polygon class="cls-5" points="45.8 0.5 15.65 0.5 0.58 26.61 15.65 52.71 45.8 52.71 60.87 26.61 45.8 0.5"/>
            </g>
          </g>
          <g>
            <path class="cls-6" d="M30.69,9.51A17.5,17.5,0,1,0,48.19,27a17.52,17.52,0,0,0-17.5-17.5ZM37.61,40,32.95,31.4a4.92,4.92,0,0,1-4.52,0L23.76,40A14.75,14.75,0,0,1,16,27l9.8,0c0-.05,0-.1,0-.15a4.69,4.69,0,0,1,2.24-4l-5.07-8.38a14.7,14.7,0,0,1,15.53,0l-5.07,8.38a4.68,4.68,0,0,1,2.24,4c0,.05,0,.1,0,.15l9.8,0a14.75,14.75,0,0,1-7.81,13Zm0,0"/>
            <path class="cls-6" d="M33.85,27a3.17,3.17,0,1,1-3.17-3.17A3.17,3.17,0,0,1,33.85,27Zm0,0"/>
          </g>
        </g>
      </g>
    </g>
  </g>
</svg>
