<svg xmlns="http://www.w3.org/2000/svg" width="61.44" height="53.21" viewBox="0 0 61.44 53.21">
  <defs>
    <style>
      .cls-1 {
        isolation: isolate;
      }

      .cls-2 {
        opacity: 0;
        mix-blend-mode: multiply;
      }

      .cls-3, .cls-5 {
        fill: none;
        stroke-miterlimit: 10;
      }

      .cls-3 {
        stroke: #000;
      }

      .cls-4 {
        fill: #fff;
      }

      .cls-5 {
        stroke: #238dc1;
      }

      .cls-6 {
        fill: #238dc1;
      }
    </style>
  </defs>
  <title>Ресурс 20</title>
  <g class="cls-1">
    <g id="Слой_2" data-name="Слой 2">
      <g id="Слой_1-2" data-name="Слой 1">
        <g>
          <g>
            <g class="cls-2">
              <polygon points="45.8 0.5 15.65 0.5 0.58 26.61 15.65 52.71 45.8 52.71 60.87 26.61 45.8 0.5"/>
              <polygon class="cls-3" points="45.8 0.5 15.65 0.5 0.58 26.61 15.65 52.71 45.8 52.71 60.87 26.61 45.8 0.5"/>
            </g>
            <g>
              <polygon class="cls-4" points="45.8 0.5 15.65 0.5 0.58 26.61 15.65 52.71 45.8 52.71 60.87 26.61 45.8 0.5"/>
              <polygon class="cls-5" points="45.8 0.5 15.65 0.5 0.58 26.61 15.65 52.71 45.8 52.71 60.87 26.61 45.8 0.5"/>
            </g>
          </g>
          <g>
            <path class="cls-6" d="M46.37,21.76H20.52a2.73,2.73,0,0,0-2.64,1.63L14.39,36.67c-.24.9.57,1.63,1.78,1.63H42a2.73,2.73,0,0,0,2.64-1.63L48.15,23.4C48.38,22.5,47.58,21.76,46.37,21.76ZM36.74,30a7.06,7.06,0,0,1-6.53,5.72c-3,0-5-2.56-4.41-5.72a7.06,7.06,0,0,1,6.53-5.72C35.35,24.31,37.33,26.87,36.74,30Z"/>
            <path class="cls-6" d="M34.83,29.05H32.58l.44-2a.29.29,0,0,0-.32-.35h-1.4a.49.49,0,0,0-.47.35l-.44,2H28.14a.5.5,0,0,0-.48.35l-.27,1.25a.3.3,0,0,0,.32.35H30l-.44,2a.29.29,0,0,0,.32.35h1.4a.49.49,0,0,0,.47-.35l.44-2H34.4a.49.49,0,0,0,.47-.35l.27-1.25A.29.29,0,0,0,34.83,29.05Z"/>
            <path class="cls-6" d="M20.52,20.08H44.93v-1a2.53,2.53,0,0,0-2.52-2.52H26.58V15.53A2.53,2.53,0,0,0,24.06,13h-5a2.53,2.53,0,0,0-2.52,2.52v1.08a2.52,2.52,0,0,0-2.21,2.49V30.2L16.25,23A4.36,4.36,0,0,1,20.52,20.08Z"/>
          </g>
        </g>
      </g>
    </g>
  </g>
</svg>
