<svg xmlns="http://www.w3.org/2000/svg" width="61.44" height="53.21" viewBox="0 0 61.44 53.21">
  <defs>
    <style>
      .cls-1 {
        isolation: isolate;
      }

      .cls-2 {
        opacity: 0;
        mix-blend-mode: multiply;
      }

      .cls-3, .cls-5 {
        fill: none;
        stroke-miterlimit: 10;
      }

      .cls-3 {
        stroke: #000;
      }

      .cls-4 {
        fill: #fff;
      }

      .cls-5 {
        stroke: #238dc1;
      }

      .cls-6 {
        fill: #238dc1;
      }
    </style>
  </defs>
  <title>Ресурс 21</title>
  <g class="cls-1">
    <g id="Слой_2" data-name="Слой 2">
      <g id="Слой_1-2" data-name="Слой 1">
        <g>
          <g>
            <g class="cls-2">
              <polygon points="45.8 0.5 15.65 0.5 0.58 26.61 15.65 52.71 45.8 52.71 60.87 26.61 45.8 0.5"/>
              <polygon class="cls-3" points="45.8 0.5 15.65 0.5 0.58 26.61 15.65 52.71 45.8 52.71 60.87 26.61 45.8 0.5"/>
            </g>
            <g>
              <polygon class="cls-4" points="45.8 0.5 15.65 0.5 0.58 26.61 15.65 52.71 45.8 52.71 60.87 26.61 45.8 0.5"/>
              <polygon class="cls-5" points="45.8 0.5 15.65 0.5 0.58 26.61 15.65 52.71 45.8 52.71 60.87 26.61 45.8 0.5"/>
            </g>
          </g>
          <g>
            <path class="cls-6" d="M35.29,23.32l.33.4a9.82,9.82,0,0,1,2.66,6.6c0,3-1.21,5.37-4,8.08l-.3.28,1.24,3H20l3.22-7.16h3.52V32.39H21.53v-.75H33.37v.75h-4.7v2.17h3.61l.65,1.74.64-.51a6.1,6.1,0,0,0,2.52-5,5.92,5.92,0,0,0-2.64-5.19Z"/>
            <path class="cls-6" d="M32,24.92l-.82-.63L30.78,24,27.49,27.9l.9.77-.73.75L22,24.56l.75-.79,1.08.87,3.43-4,2.65-3.21L32.85,14a2.27,2.27,0,0,1,1.24-.64,5.15,5.15,0,0,1,1.31.27l.38.11,1.71-1.85-1.87-1.83.6-.67,4.37,4.19-.64.74-1.59-1.62-1.79,1.73.2.38a2.65,2.65,0,0,1,.44,1.29,2,2,0,0,1-.68,1.41L33.6,20.77l1,.78a.28.28,0,0,1,.08.21.34.34,0,0,1,0,.12l-.38.41-.35.39Z"/>
          </g>
        </g>
      </g>
    </g>
  </g>
</svg>
