<svg xmlns="http://www.w3.org/2000/svg" width="61.44" height="53.21" viewBox="0 0 61.44 53.21">
  <defs>
    <style>
      .cls-1 {
        isolation: isolate;
      }

      .cls-2 {
        opacity: 0;
        mix-blend-mode: multiply;
      }

      .cls-3, .cls-5 {
        fill: none;
        stroke-miterlimit: 10;
      }

      .cls-3 {
        stroke: #000;
      }

      .cls-4 {
        fill: #fff;
      }

      .cls-5 {
        stroke: #238dc1;
      }

      .cls-6 {
        fill: #238dc1;
      }
    </style>
  </defs>
  <title>Ресурс 22</title>
  <g class="cls-1">
    <g id="Слой_2" data-name="Слой 2">
      <g id="Слой_1-2" data-name="Слой 1">
        <g>
          <g>
            <g class="cls-2">
              <polygon points="45.8 0.5 15.65 0.5 0.58 26.61 15.65 52.71 45.8 52.71 60.87 26.61 45.8 0.5"/>
              <polygon class="cls-3" points="45.8 0.5 15.65 0.5 0.58 26.61 15.65 52.71 45.8 52.71 60.87 26.61 45.8 0.5"/>
            </g>
            <g>
              <polygon class="cls-4" points="45.8 0.5 15.65 0.5 0.58 26.61 15.65 52.71 45.8 52.71 60.87 26.61 45.8 0.5"/>
              <polygon class="cls-5" points="45.8 0.5 15.65 0.5 0.58 26.61 15.65 52.71 45.8 52.71 60.87 26.61 45.8 0.5"/>
            </g>
          </g>
          <g>
            <g>
              <path class="cls-6" d="M24.26,35.52l4.05-7.73,3.95-7.53c1.78-3.39.88-7.38-2-8.89s-6.68,0-8.45,3.41L17.85,22.3,13.8,30c-1.78,3.39-.88,7.38,2,8.89S22.49,38.91,24.26,35.52Zm-5.19-13.6,3.53-6.73c1.54-2.95,4.79-4.31,7.23-3s3.17,4.72,1.63,7.67l-3.52,6.73Z"/>
              <path class="cls-6" d="M28.65,13.63a.45.45,0,0,1,.61-.19,3.07,3.07,0,0,1,1.6,1.91c.58,2-.81,4.42-.87,4.52a.45.45,0,1,1-.78-.46s1.25-2.18.78-3.81a2.16,2.16,0,0,0-1.15-1.36.45.45,0,0,1-.19-.61Z"/>
            </g>
            <g>
              <path class="cls-6" d="M37,22.46a8.65,8.65,0,0,0-6.58,8.92l16.52-4A8.65,8.65,0,0,0,37,22.46Z"/>
              <path class="cls-6" d="M41.09,39.27a8.65,8.65,0,0,0,6.58-8.92l-16.52,4A8.65,8.65,0,0,0,41.09,39.27Z"/>
            </g>
          </g>
        </g>
      </g>
    </g>
  </g>
</svg>
