<svg xmlns="http://www.w3.org/2000/svg" width="61.44" height="53.21" viewBox="0 0 61.44 53.21">
  <defs>
    <style>
      .cls-1 {
        isolation: isolate;
      }

      .cls-2 {
        opacity: 0;
        mix-blend-mode: multiply;
      }

      .cls-3, .cls-5 {
        fill: none;
        stroke-miterlimit: 10;
      }

      .cls-3 {
        stroke: #000;
      }

      .cls-4 {
        fill: #fff;
      }

      .cls-5 {
        stroke: #238dc1;
      }

      .cls-6 {
        fill: #238dc1;
      }
    </style>
  </defs>
  <title>Ресурс 23</title>
  <g class="cls-1">
    <g id="Слой_2" data-name="Слой 2">
      <g id="Слой_1-2" data-name="Слой 1">
        <g>
          <g>
            <g class="cls-2">
              <polygon points="45.8 0.5 15.65 0.5 0.58 26.61 15.65 52.71 45.8 52.71 60.87 26.61 45.8 0.5"/>
              <polygon class="cls-3" points="45.8 0.5 15.65 0.5 0.58 26.61 15.65 52.71 45.8 52.71 60.87 26.61 45.8 0.5"/>
            </g>
            <g>
              <polygon class="cls-4" points="45.8 0.5 15.65 0.5 0.58 26.61 15.65 52.71 45.8 52.71 60.87 26.61 45.8 0.5"/>
              <polygon class="cls-5" points="45.8 0.5 15.65 0.5 0.58 26.61 15.65 52.71 45.8 52.71 60.87 26.61 45.8 0.5"/>
            </g>
          </g>
          <g>
            <path class="cls-6" d="M18.18,29.15a2.92,2.92,0,1,0,2.92,2.92A2.92,2.92,0,0,0,18.18,29.15Z"/>
            <ellipse class="cls-6" cx="29.88" cy="10.9" rx="1.14" ry="2.36" transform="translate(1.05 24.35) rotate(-45.04)"/>
            <ellipse class="cls-6" cx="39.4" cy="10.42" rx="2.36" ry="1.14" transform="translate(4.16 30.88) rotate(-44.96)"/>
            <path class="cls-6" d="M45.47,14.65,42.72,11.9a1.12,1.12,0,1,0-1.58,1.58l2.75,2.75a2,2,0,0,1,0,2.78L36.26,29.53a2,2,0,0,1-2.71,0L25.89,19a1.94,1.94,0,0,1,0-2.74l2.33-2.33a1.12,1.12,0,0,0-1.58-1.58l-2.33,2.33a4.18,4.18,0,0,0,0,5.87l7.66,10.59a4.13,4.13,0,0,0,2,1.11v8.38a3.74,3.74,0,0,1-3.74,3.74H22.81a3.74,3.74,0,0,1-3.74-3.74v-3a5.62,5.62,0,1,0-1.7,0v3A5.44,5.44,0,0,0,22.81,46h7.41a5.44,5.44,0,0,0,5.44-5.44V32.26a4.14,4.14,0,0,0,2.22-1.19l7.59-10.52a4.18,4.18,0,0,0,0-5.91ZM13.59,32.07a4.59,4.59,0,1,1,4.59,4.59A4.6,4.6,0,0,1,13.59,32.07Z"/>
          </g>
        </g>
      </g>
    </g>
  </g>
</svg>
