<svg xmlns="http://www.w3.org/2000/svg" width="61.44" height="53.21" viewBox="0 0 61.44 53.21">
  <defs>
    <style>
      .cls-1 {
        isolation: isolate;
      }

      .cls-2 {
        opacity: 0;
        mix-blend-mode: multiply;
      }

      .cls-3, .cls-5 {
        fill: none;
        stroke-miterlimit: 10;
      }

      .cls-3 {
        stroke: #000;
      }

      .cls-4 {
        fill: #fff;
      }

      .cls-5 {
        stroke: #238dc1;
      }

      .cls-6 {
        fill: #238dc1;
      }
    </style>
  </defs>
  <title>Ресурс 24</title>
  <g class="cls-1">
    <g id="Слой_2" data-name="Слой 2">
      <g id="Слой_1-2" data-name="Слой 1">
        <g>
          <g>
            <g class="cls-2">
              <polygon points="45.8 0.5 15.65 0.5 0.58 26.61 15.65 52.71 45.8 52.71 60.87 26.61 45.8 0.5"/>
              <polygon class="cls-3" points="45.8 0.5 15.65 0.5 0.58 26.61 15.65 52.71 45.8 52.71 60.87 26.61 45.8 0.5"/>
            </g>
            <g>
              <polygon class="cls-4" points="45.8 0.5 15.65 0.5 0.58 26.61 15.65 52.71 45.8 52.71 60.87 26.61 45.8 0.5"/>
              <polygon class="cls-5" points="45.8 0.5 15.65 0.5 0.58 26.61 15.65 52.71 45.8 52.71 60.87 26.61 45.8 0.5"/>
            </g>
          </g>
          <g>
            <path class="cls-6" d="M35,13.27a2.17,2.17,0,0,0-4.34,0v1.31H35Z"/>
            <circle class="cls-6" cx="40.08" cy="35.55" r="2.67"/>
            <path class="cls-6" d="M47.72,29,44.24,21.1c-1.62-3.64-4.53-4.93-10.43-4.93H17.65c-1.23,0-3.23.25-3.23,3.15s.08,4.47.08,4.47l.22,8.76c0,1.81,1.57,2.85,4.12,2.93a3.81,3.81,0,0,1,7.61,0h9.83a3.81,3.81,0,0,1,7.61,0h1c2.1,0,3.8-1.29,3.8-3.4A7.63,7.63,0,0,0,47.72,29ZM29.87,26H26.33v3.54H23.25V26H19.71V22.93h3.54V19.39h3.08v3.54h3.54Zm5.59.34v-7.2l3.36.08c2.67.73,4,3.07,5.18,7.12Z"/>
            <circle class="cls-6" cx="22.64" cy="35.55" r="2.67"/>
          </g>
        </g>
      </g>
    </g>
  </g>
</svg>
