<svg xmlns="http://www.w3.org/2000/svg" width="61.44" height="53.21" viewBox="0 0 61.44 53.21">
  <defs>
    <style>
      .cls-1 {
        isolation: isolate;
      }

      .cls-2 {
        opacity: 0;
        mix-blend-mode: multiply;
      }

      .cls-3, .cls-5 {
        fill: none;
        stroke-miterlimit: 10;
      }

      .cls-3 {
        stroke: #000;
      }

      .cls-4 {
        fill: #fff;
      }

      .cls-5 {
        stroke: #238dc1;
      }

      .cls-6 {
        fill: #238dc1;
      }
    </style>
  </defs>
  <title>Ресурс 25</title>
  <g class="cls-1">
    <g id="Слой_2" data-name="Слой 2">
      <g id="Слой_1-2" data-name="Слой 1">
        <g>
          <g>
            <g class="cls-2">
              <polygon points="45.8 0.5 15.65 0.5 0.58 26.61 15.65 52.71 45.8 52.71 60.87 26.61 45.8 0.5"/>
              <polygon class="cls-3" points="45.8 0.5 15.65 0.5 0.58 26.61 15.65 52.71 45.8 52.71 60.87 26.61 45.8 0.5"/>
            </g>
            <g>
              <polygon class="cls-4" points="45.8 0.5 15.65 0.5 0.58 26.61 15.65 52.71 45.8 52.71 60.87 26.61 45.8 0.5"/>
              <polygon class="cls-5" points="45.8 0.5 15.65 0.5 0.58 26.61 15.65 52.71 45.8 52.71 60.87 26.61 45.8 0.5"/>
            </g>
          </g>
          <g>
            <path class="cls-6" d="M32.38,20.45h-9v6A5.46,5.46,0,0,0,28.82,32h3.56a5.38,5.38,0,0,0,5.33-5.58v-6Zm-2.63,8.72h-3.8a.57.57,0,1,1,0-1.14h3.8a.57.57,0,1,1,0,1.14Zm0-3.13h-3.8a.57.57,0,1,1,0-1.14h3.8a.57.57,0,1,1,0,1.14Zm0-3.13h-3.8a.57.57,0,1,1,0-1.14h3.8a.57.57,0,0,1,0,1.14Z"/>
            <path class="cls-6" d="M29.75,18.93h-3.8a.57.57,0,0,1,0-1.14h3.8a.57.57,0,0,1,0,1.14Z"/>
            <path class="cls-6" d="M29.75,15.51h-3.8a.57.57,0,0,1,0-1.14h3.8a.57.57,0,0,1,0,1.14Z"/>
            <path class="cls-6" d="M34.14,9.24H20.35V28.6a6.48,6.48,0,0,0,6.46,6.46H28c0,.62.76,1.14,1.77,1.32v3.68h0a1.08,1.08,0,0,0-1.08,1.08v3.73a1.08,1.08,0,0,0,1.08,1.08h0v6.8h1.52v-6.8h0a1.08,1.08,0,0,0,1.08-1.08V41.13a1.08,1.08,0,0,0-1.08-1.08h0V36.38c1-.18,1.74-.7,1.76-1.32h1.14A6.48,6.48,0,0,0,40.6,28.6V9.24Zm5,8.55v9.3c0,3.55-2.07,6.46-6.46,6.46H28.54c-4.49,0-6.46-2.9-6.46-6.46V11.33h17Z"/>
          </g>
        </g>
      </g>
    </g>
  </g>
</svg>
