<svg xmlns="http://www.w3.org/2000/svg" width="61.44" height="53.21" viewBox="0 0 61.44 53.21">
  <defs>
    <style>
      .cls-1 {
        isolation: isolate;
      }

      .cls-2 {
        opacity: 0;
        mix-blend-mode: multiply;
      }

      .cls-3, .cls-5 {
        fill: none;
        stroke-miterlimit: 10;
      }

      .cls-3 {
        stroke: #000;
      }

      .cls-4 {
        fill: #fff;
      }

      .cls-5 {
        stroke: #238dc1;
      }

      .cls-6 {
        fill: #238dc1;
      }
    </style>
  </defs>
  <title>Ресурс 26</title>
  <g class="cls-1">
    <g id="Слой_2" data-name="Слой 2">
      <g id="Слой_1-2" data-name="Слой 1">
        <g>
          <g>
            <g class="cls-2">
              <polygon points="45.8 0.5 15.65 0.5 0.58 26.61 15.65 52.71 45.8 52.71 60.87 26.61 45.8 0.5"/>
              <polygon class="cls-3" points="45.8 0.5 15.65 0.5 0.58 26.61 15.65 52.71 45.8 52.71 60.87 26.61 45.8 0.5"/>
            </g>
            <g>
              <polygon class="cls-4" points="45.8 0.5 15.65 0.5 0.58 26.61 15.65 52.71 45.8 52.71 60.87 26.61 45.8 0.5"/>
              <polygon class="cls-5" points="45.8 0.5 15.65 0.5 0.58 26.61 15.65 52.71 45.8 52.71 60.87 26.61 45.8 0.5"/>
            </g>
          </g>
          <path class="cls-6" d="M40.78,14.78s-2.71-3.95-6.91-2.22l-2.47,1.23a8.53,8.53,0,0,1-3.58-.61c-2.1-.74-7-.85-7.77,4.32,0,0-.49,4.15,2.46,12.82,0,0,1,12.08,2,13.56,0,0,1.73,2.47,2.47-.74,0,0-.49-10.36,3.94-10.6,0,0,3.21-1.48,3.7,3.45l.49,6.66s1.73,5,3.2.24,1-13.56,2.47-17.26C40.78,25.64,43,19.72,40.78,14.78Zm-13.56,2a4.75,4.75,0,0,0-2.91,1.45,1.83,1.83,0,0,0-.21,1.53,1,1,0,0,1-.72,1.19l-.23,0a1,1,0,0,1-1-.76,3.78,3.78,0,0,1,.5-3.12c1.28-1.85,4-2.25,4.28-2.29a1,1,0,0,1,1.1.86A1,1,0,0,1,27.23,16.75Z"/>
        </g>
      </g>
    </g>
  </g>
</svg>
