<svg xmlns="http://www.w3.org/2000/svg" width="61.44" height="53.21" viewBox="0 0 61.44 53.21">
  <defs>
    <style>
      .cls-1 {
        isolation: isolate;
      }

      .cls-2 {
        opacity: 0;
        mix-blend-mode: multiply;
      }

      .cls-3, .cls-5 {
        fill: none;
        stroke-miterlimit: 10;
      }

      .cls-3 {
        stroke: #000;
      }

      .cls-4 {
        fill: #fff;
      }

      .cls-5 {
        stroke: #238dc1;
      }

      .cls-6 {
        fill: #238dc1;
      }
    </style>
  </defs>
  <title>Ресурс 4</title>
  <g class="cls-1">
    <g id="Слой_2" data-name="Слой 2">
      <g id="Слой_1-2" data-name="Слой 1">
        <g>
          <g>
            <g class="cls-2">
              <polygon points="45.8 0.5 15.65 0.5 0.58 26.61 15.65 52.71 45.8 52.71 60.87 26.61 45.8 0.5"/>
              <polygon class="cls-3" points="45.8 0.5 15.65 0.5 0.58 26.61 15.65 52.71 45.8 52.71 60.87 26.61 45.8 0.5"/>
            </g>
            <g>
              <polygon class="cls-4" points="45.8 0.5 15.65 0.5 0.58 26.61 15.65 52.71 45.8 52.71 60.87 26.61 45.8 0.5"/>
              <polygon class="cls-5" points="45.8 0.5 15.65 0.5 0.58 26.61 15.65 52.71 45.8 52.71 60.87 26.61 45.8 0.5"/>
            </g>
          </g>
          <g>
            <path class="cls-6" d="M40.65,12.64H38.08v3.2h1.76V38H22.12V15.84h1.77v-3.2H21.32a2.41,2.41,0,0,0-2.4,2.4V38.75a2.41,2.41,0,0,0,2.4,2.4H40.65a2.41,2.41,0,0,0,2.4-2.4V15A2.41,2.41,0,0,0,40.65,12.64Z"/>
            <path class="cls-6" d="M34.83,12.64a1.44,1.44,0,0,0,.08-.46,3.85,3.85,0,0,0-7.69,0,1.41,1.41,0,0,0,.08.46H25.11v5.6H36.86v-5.6ZM31,14.22a2,2,0,1,1,2-2A2,2,0,0,1,31,14.22Z"/>
            <path class="cls-6" d="M25.11,34.8a.4.4,0,0,1-.28-.11L23.15,33l.56-.57,1.39,1.37,2.33-2.56.59.54-2.61,2.87a.4.4,0,0,1-.28.13Z"/>
            <path class="cls-6" d="M25.11,28.88a.4.4,0,0,1-.28-.11L23.15,27.1l.56-.57L25.1,27.9l2.33-2.56.59.54-2.61,2.86a.4.4,0,0,1-.28.13Z"/>
            <path class="cls-6" d="M25.11,23a.4.4,0,0,1-.28-.12l-1.69-1.67.56-.57L25.1,22l2.33-2.56L28,20l-2.61,2.86a.4.4,0,0,1-.28.13Z"/>
            <rect class="cls-6" x="23.43" y="35.36" width="15.22" height="0.8"/>
            <rect class="cls-6" x="23.37" y="29.43" width="15.22" height="0.8"/>
            <rect class="cls-6" x="23.32" y="23.5" width="15.22" height="0.8"/>
          </g>
        </g>
      </g>
    </g>
  </g>
</svg>
