<svg xmlns="http://www.w3.org/2000/svg" width="61.44" height="53.21" viewBox="0 0 61.44 53.21">
  <defs>
    <style>
      .cls-1 {
        isolation: isolate;
      }

      .cls-2 {
        opacity: 0;
        mix-blend-mode: multiply;
      }

      .cls-3, .cls-5 {
        fill: none;
        stroke-miterlimit: 10;
      }

      .cls-3 {
        stroke: #000;
      }

      .cls-4 {
        fill: #fff;
      }

      .cls-5 {
        stroke: #238dc1;
      }

      .cls-6 {
        fill: #238dc1;
      }
    </style>
  </defs>
  <title>Ресурс 6</title>
  <g class="cls-1">
    <g id="Слой_2" data-name="Слой 2">
      <g id="Слой_1-2" data-name="Слой 1">
        <g>
          <g>
            <g class="cls-2">
              <polygon points="45.8 0.5 15.65 0.5 0.58 26.61 15.65 52.71 45.8 52.71 60.87 26.61 45.8 0.5"/>
              <polygon class="cls-3" points="45.8 0.5 15.65 0.5 0.58 26.61 15.65 52.71 45.8 52.71 60.87 26.61 45.8 0.5"/>
            </g>
            <g>
              <polygon class="cls-4" points="45.8 0.5 15.65 0.5 0.58 26.61 15.65 52.71 45.8 52.71 60.87 26.61 45.8 0.5"/>
              <polygon class="cls-5" points="45.8 0.5 15.65 0.5 0.58 26.61 15.65 52.71 45.8 52.71 60.87 26.61 45.8 0.5"/>
            </g>
          </g>
          <g>
            <path class="cls-6" d="M47,25.41c-1-1.49-3.27,0-5.64,1.53-.66.43-1.33.85-2,1.21a2.6,2.6,0,0,1,.62.34A2.34,2.34,0,0,1,41,30.28c.05,1.54-1.21,2.33-2.45,2.9a14.45,14.45,0,0,1-4.93.68l-1,0a10.78,10.78,0,0,0-3,.55.48.48,0,0,1-.17,0,.49.49,0,0,1-.18-.95,11.43,11.43,0,0,1,3.28-.62l1.05,0a14,14,0,0,0,4.55-.59c1.38-.63,1.91-1.19,1.88-2a1.35,1.35,0,0,0-.55-1.05,2.43,2.43,0,0,0-1.67-.36,5.35,5.35,0,0,1-1,.27,10.85,10.85,0,0,1-7-.93l-.6-.36c-2-1.24-6.76-4.14-11.31.41h0l-2.16,2.18a1,1,0,0,0-.25.74l.65,4.45.39,2.69c.07.47.3.61.44.65l.15,0a.81.81,0,0,0,.58-.3,15.34,15.34,0,0,1,1.45-1.32,4.42,4.42,0,0,1,2.62-1.16,12.87,12.87,0,0,1,4.38,1.4c2,.86,4.18,1.83,6.23,1.83,6.43,0,11.81-5.81,13.86-9.72C47.24,27.8,47.55,26.16,47,25.41Z"/>
            <path class="cls-6" d="M28.47,13.57a.4.4,0,0,0-.39.39v1.95a.39.39,0,0,0,.78,0V14A.39.39,0,0,0,28.47,13.57Z"/>
            <path class="cls-6" d="M30.12,25.11a3.57,3.57,0,0,0,2.54-1.05,3.51,3.51,0,0,0,1-2.5V13.42a3.59,3.59,0,0,0-6.12-2.5,3.51,3.51,0,0,0-1,2.5v8.14A3.57,3.57,0,0,0,30.12,25.11ZM27.31,13.42a2.74,2.74,0,0,1,.81-2,2.81,2.81,0,0,1,4.81,2v3.68H27.31V13.42Z"/>
            <path class="cls-6" d="M38.8,25.06A3.71,3.71,0,0,0,41.67,19l-5.23,5.23A3.7,3.7,0,0,0,38.8,25.06Z"/>
            <path class="cls-6" d="M41.14,18.47a3.71,3.71,0,0,0-5.22,5.22Z"/>
          </g>
        </g>
      </g>
    </g>
  </g>
</svg>
