<svg xmlns="http://www.w3.org/2000/svg" width="61.44" height="53.21" viewBox="0 0 61.44 53.21">
  <defs>
    <style>
      .cls-1 {
        isolation: isolate;
      }

      .cls-2 {
        opacity: 0;
        mix-blend-mode: multiply;
      }

      .cls-3, .cls-5 {
        fill: none;
        stroke-miterlimit: 10;
      }

      .cls-3 {
        stroke: #000;
      }

      .cls-4 {
        fill: #fff;
      }

      .cls-5 {
        stroke: #238dc1;
      }

      .cls-6 {
        fill: #238dc1;
      }
    </style>
  </defs>
  <title>Ресурс 8</title>
  <g class="cls-1">
    <g id="Слой_2" data-name="Слой 2">
      <g id="Слой_1-2" data-name="Слой 1">
        <g>
          <g>
            <g class="cls-2">
              <polygon points="45.8 0.5 15.65 0.5 0.58 26.61 15.65 52.71 45.8 52.71 60.87 26.61 45.8 0.5"/>
              <polygon class="cls-3" points="45.8 0.5 15.65 0.5 0.58 26.61 15.65 52.71 45.8 52.71 60.87 26.61 45.8 0.5"/>
            </g>
            <g>
              <polygon class="cls-4" points="45.8 0.5 15.65 0.5 0.58 26.61 15.65 52.71 45.8 52.71 60.87 26.61 45.8 0.5"/>
              <polygon class="cls-5" points="45.8 0.5 15.65 0.5 0.58 26.61 15.65 52.71 45.8 52.71 60.87 26.61 45.8 0.5"/>
            </g>
          </g>
          <g>
            <path class="cls-6" d="M34.57,11.36H26.28a4.88,4.88,0,0,0-4.87,4.87V37.54a4.88,4.88,0,0,0,4.87,4.87h8.29a4.88,4.88,0,0,0,4.87-4.87V16.23A4.88,4.88,0,0,0,34.57,11.36Zm-1.64,1.95a.67.67,0,1,1-.67.67A.67.67,0,0,1,32.93,13.31Zm-2.51,0a.67.67,0,1,1-.67.67A.67.67,0,0,1,30.43,13.31Zm-2.51,0a.67.67,0,1,1-.67.67A.67.67,0,0,1,27.92,13.31Zm4.84,26.56H28.09a.66.66,0,1,1,0-1.3h4.67a.66.66,0,1,1,0,1.3Zm5-3.42H23.09v-20H37.77Z"/>
            <path class="cls-6" d="M30.43,26.06c-2.65,0-4.28,1.75-4.28,5.19h8.56C34.71,27.81,33.08,26.06,30.43,26.06Z"/>
            <circle class="cls-6" cx="30.25" cy="22.81" r="2.08"/>
          </g>
        </g>
      </g>
    </g>
  </g>
</svg>
