<svg xmlns="http://www.w3.org/2000/svg" width="61.44" height="53.21" viewBox="0 0 61.44 53.21">
  <defs>
    <style>
      .cls-1 {
        isolation: isolate;
      }

      .cls-2 {
        opacity: 0;
        mix-blend-mode: multiply;
      }

      .cls-3, .cls-5 {
        fill: none;
        stroke-miterlimit: 10;
      }

      .cls-3 {
        stroke: #000;
      }

      .cls-4 {
        fill: #fff;
      }

      .cls-5 {
        stroke: #238dc1;
      }

      .cls-6 {
        fill: #238dc1;
      }
    </style>
  </defs>
  <title>Ресурс 9</title>
  <g class="cls-1">
    <g id="Слой_2" data-name="Слой 2">
      <g id="Слой_1-2" data-name="Слой 1">
        <g>
          <g>
            <g class="cls-2">
              <polygon points="45.8 0.5 15.65 0.5 0.58 26.61 15.65 52.71 45.8 52.71 60.87 26.61 45.8 0.5"/>
              <polygon class="cls-3" points="45.8 0.5 15.65 0.5 0.58 26.61 15.65 52.71 45.8 52.71 60.87 26.61 45.8 0.5"/>
            </g>
            <g>
              <polygon class="cls-4" points="45.8 0.5 15.65 0.5 0.58 26.61 15.65 52.71 45.8 52.71 60.87 26.61 45.8 0.5"/>
              <polygon class="cls-5" points="45.8 0.5 15.65 0.5 0.58 26.61 15.65 52.71 45.8 52.71 60.87 26.61 45.8 0.5"/>
            </g>
          </g>
          <g>
            <path class="cls-6" d="M21.83,31.44a1.23,1.23,0,0,1,1.23,1.23h0a1.23,1.23,0,0,1-1.23,1.23H16.4a1.23,1.23,0,0,1-1.23-1.23h0a1.23,1.23,0,0,1,1.23-1.23Z"/>
            <path class="cls-6" d="M21.83,24.67a1.23,1.23,0,0,1,1.23,1.24h0a1.23,1.23,0,0,1-1.23,1.23H16.4a1.23,1.23,0,0,1-1.23-1.23h0a1.23,1.23,0,0,1,1.23-1.24Z"/>
            <path class="cls-6" d="M21.83,18a1.23,1.23,0,0,1,1.23,1.23h0a1.23,1.23,0,0,1-1.23,1.24H16.4a1.23,1.23,0,0,1-1.23-1.24h0A1.23,1.23,0,0,1,16.4,18Z"/>
            <path class="cls-6" d="M41.44,18.45V12.3H19.88v4.34h2a2.62,2.62,0,0,1,0,5.25H19.89v1.4h1.94a2.62,2.62,0,0,1,0,5.25H19.89V30h1.94a2.62,2.62,0,0,1,0,5.25h-2v4.12H41.44V34h0V18.45ZM37,33.11a4.39,4.39,0,0,1-4-.2,13.9,13.9,0,0,1-4.07-5.83c-1.42-3.35-1.58-6.09-1.33-7a4.63,4.63,0,0,1,2.66-2.95.73.73,0,0,1,1,.39l1.67,3.94a.7.7,0,0,1-.39,1c-.85.36-1.81.77-1.83,1.33a6.79,6.79,0,0,0,.63,2.35,7.71,7.71,0,0,0,1.28,2.12c.36.35,1.38,0,2.22-.39a.7.7,0,0,1,1,.39l1.67,3.94A.73.73,0,0,1,37,33.11Z"/>
          </g>
        </g>
      </g>
    </g>
  </g>
</svg>
