<svg xmlns="http://www.w3.org/2000/svg" width="61" height="1261">
  <svg width="61" height="53" id="10h">
    <defs>
      <style>
        .cls-6{fill:#fff}
      </style>
    </defs>
    <g style="isolation:isolate">
      <g id="10h-Слой_2" data-name="Слой 2">
        <g id="10h-Слой_1-2" data-name="Слой 1">
          <path fill="#238dc1" d="M45.8.5H15.65L.58 26.61l15.07 26.1H45.8l15.07-26.1L45.8.5z"/>
          <path stroke="#008dc1" fill="none" stroke-miterlimit="10" d="M45.8.5H15.65L.58 26.61l15.07 26.1H45.8l15.07-26.1L45.8.5z"/>
          <path class="cls-6" d="M42.39 16.55H20.27a4.06 4.06 0 0 0-4 4v11.93a4.06 4.06 0 0 0 4 4h22.12a4.06 4.06 0 0 0 4-4V20.59a4.06 4.06 0 0 0-4-4.04zM29.31 30.9A1.35 1.35 0 0 1 28 32.25h-7.57a1.35 1.35 0 0 1-1.35-1.35v-8.72a1.35 1.35 0 0 1 1.35-1.35H28a1.35 1.35 0 0 1 1.35 1.35zm13.92-.72H32v-.85h11.23zm0-3.45H32v-.84h11.23zm0-3.45H32v-.85h11.23z"/>
          <path class="cls-6" d="M24.08 26.06c-2.43 0-3.92 1.6-3.92 4.75H28c0-3.14-1.49-4.75-3.92-4.75z"/>
          <circle class="cls-6" cx="23.92" cy="23.76" r="1.9"/>
        </g>
      </g>
    </g>
  </svg>
  <svg width="61" height="53" id="11h" y="53">
    <defs>
      <style>
        .cls-4{fill:#238dc1}
      </style>
    </defs>
    <g style="isolation:isolate">
      <g id="11h-Слой_2" data-name="Слой 2">
        <g id="11h-Слой_1-2" data-name="Слой 1">
          <path fill="#238dc1" d="M45.8.5H15.65L.58 26.61l15.07 26.1H45.8l15.07-26.1L45.8.5z"/>
          <path stroke="#008dc1" fill="none" stroke-miterlimit="10" d="M45.8.5H15.65L.58 26.61l15.07 26.1H45.8l15.07-26.1L45.8.5z"/>
          <path d="M31.14 45.94c8.34-6.09 13.61-15.74 15.3-28l-15.3-6.09-15.3 6.09c1.69 12.25 7 21.9 15.3 28z" fill="#fff" fill-rule="evenodd"/>
          <path fill="#238dc1" d="M37.21 31.49a.43.43 0 0 0-.11-.31L36 29.94l.34-.56 1.65.34a.44.44 0 0 0 .33-.06.42.42 0 0 0 .19-.28l.43-2.06a.43.43 0 0 0-.34-.51l-1.63-.34-.05-.65 1.53-.69a.44.44 0 0 0 .22-.24.41.41 0 0 0 0-.33l-.86-1.91a.43.43 0 0 0-.57-.21l-1.52.68-.43-.49.83-1.46a.43.43 0 0 0 0-.33.42.42 0 0 0-.2-.26l-1.82-1a.44.44 0 0 0-.59.16l-.82 1.45L32 21l-.19-1.67a.43.43 0 0 0-.48-.38l-2.08.23a.42.42 0 0 0-.29.16.43.43 0 0 0-.09.32l.18 1.66-.6.25-1.13-1.24a.42.42 0 0 0-.3-.14.43.43 0 0 0-.31.11l-1.51 1.4a.44.44 0 0 0-.14.3.43.43 0 0 0 .11.31l1.12 1.23-.29.56-1.64-.34a.44.44 0 0 0-.51.34l-.42 2.06a.44.44 0 0 0 .34.51l1.63.34.05.65-1.53.69a.43.43 0 0 0-.22.57l.86 1.91a.43.43 0 0 0 .24.23.42.42 0 0 0 .33 0l1.52-.69.43.49-.83 1.46a.42.42 0 0 0 0 .33.43.43 0 0 0 .1.18.4.4 0 0 0 .11.08l1.82 1a.43.43 0 0 0 .33 0 .44.44 0 0 0 .26-.2l.82-1.45.63.15.19 1.67a.45.45 0 0 0 .16.29.43.43 0 0 0 .32.09l2.01-.14a.44.44 0 0 0 .38-.48l-.19-1.66.6-.25 1.13 1.24a.43.43 0 0 0 .3.14.44.44 0 0 0 .31-.11l1.55-1.41a.43.43 0 0 0 .13-.3zm-4.65-3.18a2.11 2.11 0 1 1 .14-3 2.12 2.12 0 0 1-.14 3z"/>
        </g>
      </g>
    </g>
  </svg>
  <svg width="61" height="53" id="12h" y="106">
    <defs>
      <style>
        .cls-6{fill:#fff}
      </style>
    </defs>
    <g style="isolation:isolate">
      <g id="12h-Слой_2" data-name="Слой 2">
        <g id="12h-Слой_1-2" data-name="Слой 1">
          <path fill="#238dc1" d="M45.8.5H15.65L.58 26.61l15.07 26.1H45.8l15.07-26.1L45.8.5z"/>
          <path stroke="#008dc1" fill="none" stroke-miterlimit="10" d="M45.8.5H15.65L.58 26.61l15.07 26.1H45.8l15.07-26.1L45.8.5z"/>
          <path class="cls-6" d="M35.87 14H23.76a1.14 1.14 0 1 1 0-2.28h12.11a1.14 1.14 0 1 1 0 2.28z"/>
          <path class="cls-6" d="M43.19 39s-8.12-14.73-8.46-15V11.82H25v12.31c-.28.26-8.32 14.87-8.32 14.87a1.24 1.24 0 0 0 1.19 2H42a1.24 1.24 0 0 0 1.19-2zM26.52 13.61h6.7V23h-.59a2.94 2.94 0 0 0-.45 0H27.7a2.94 2.94 0 0 0-.45 0h-.73zm-.38 23.84a2.07 2.07 0 1 1 2.07-2.07 2.07 2.07 0 0 1-2.08 2.07zM29 28.38a.76.76 0 1 1 .76-.76.76.76 0 0 1-.76.76zM32.88 33a1.31 1.31 0 1 1 1.31-1.31A1.31 1.31 0 0 1 32.88 33z"/>
        </g>
      </g>
    </g>
  </svg>
  <svg width="61" height="53" id="13h" y="159">
    <defs>
      <style>
        .cls-6{fill:#fff}
      </style>
    </defs>
    <g style="isolation:isolate">
      <g id="13h-Слой_2" data-name="Слой 2">
        <g id="13h-Слой_1-2" data-name="Слой 1">
          <path fill="#238dc1" d="M45.8.5H15.65L.58 26.61l15.07 26.1H45.8l15.07-26.1L45.8.5z"/>
          <path stroke="#008dc1" fill="none" stroke-miterlimit="10" d="M45.8.5H15.65L.58 26.61l15.07 26.1H45.8l15.07-26.1L45.8.5z"/>
          <path class="cls-6" d="M24.79 34.52a1.19 1.19 0 0 0-1.19-1.19h-5.22a1.19 1.19 0 0 0 0 2.37h5.22a1.19 1.19 0 0 0 1.19-1.18zm-6.41-5.32h5.22a1.19 1.19 0 1 0 0-2.37h-5.22a1.19 1.19 0 0 0 0 2.37zm0-6.38h5.22a1.19 1.19 0 1 0 0-2.37h-5.22a1.19 1.19 0 0 0 0 2.37z"/>
          <path class="cls-6" d="M42.44 20.86V15H21.72v4.17h1.88a2.52 2.52 0 1 1 0 5h-1.86v1.33h1.86a2.52 2.52 0 0 1 0 5h-1.86V32h1.86a2.52 2.52 0 0 1 0 5h-1.88v4h20.72V20.86zm-8.81.14a2.79 2.79 0 1 1-2.79 2.79A2.79 2.79 0 0 1 33.63 21zm-5.11 14c0-4.63 1.77-6.5 5.34-6.5s5.54 1.89 5.54 6.5z"/>
        </g>
      </g>
    </g>
  </svg>
  <svg width="61" height="53" id="14h" y="212">
    <defs>
      <style>
        .cls-6{fill:#fff}
      </style>
    </defs>
    <g style="isolation:isolate">
      <g id="14h-Слой_2" data-name="Слой 2">
        <g id="14h-Слой_1-2" data-name="Слой 1">
          <path fill="#238dc1" d="M45.8.5H15.65L.58 26.61l15.07 26.1H45.8l15.07-26.1L45.8.5z"/>
          <path stroke="#008dc1" fill="none" stroke-miterlimit="10" d="M45.8.5H15.65L.58 26.61l15.07 26.1H45.8l15.07-26.1L45.8.5z"/>
          <path class="cls-6" d="M26 26.6l1.06.22v.42l-1 .45a.28.28 0 0 0-.14.37l.56 1.24a.28.28 0 0 0 .16.15.27.27 0 0 0 .22 0l1-.45.28.32-.54 1a.27.27 0 0 0 0 .21.28.28 0 0 0 .06.11l.07.05 1.19.68a.28.28 0 0 0 .21 0 .29.29 0 0 0 .17-.13l.54-.94.41.1.12 1.09a.29.29 0 0 0 .1.19.28.28 0 0 0 .21.06l1.32-.16a.28.28 0 0 0 .25-.31l-.12-1.08.39-.16.74.81a.28.28 0 0 0 .2.09.29.29 0 0 0 .2-.07l1-.92a.28.28 0 0 0 0-.4l-.73-.8.22-.36 1.07.22a.29.29 0 0 0 .21 0 .27.27 0 0 0 .12-.18l.31-1.42a.28.28 0 0 0-.22-.33l-1.06-.22v-.42l1-.45a.28.28 0 0 0 .15-.16.27.27 0 0 0 0-.22l-.61-1.2a.28.28 0 0 0-.37-.14l-1 .45-.27-.31.52-1a.28.28 0 0 0 0-.21.27.27 0 0 0-.13-.17L32.73 22a.28.28 0 0 0-.39.11l-.53.94-.41-.1-.12-1.09a.28.28 0 0 0-.31-.25l-1.36.15a.28.28 0 0 0-.19.1.28.28 0 0 0-.06.21l.12 1.08-.39.16-.74-.81a.27.27 0 0 0-.19-.09.28.28 0 0 0-.2.07l-1 .92a.28.28 0 0 0-.09.2.28.28 0 0 0 .07.2l.73.8-.22.36-1.07-.22a.28.28 0 0 0-.33.22l-.28 1.34a.28.28 0 0 0 0 .21.28.28 0 0 0 .23.09zm3.91-1a1.38 1.38 0 1 1-.09 1.94 1.38 1.38 0 0 1 .06-1.9z"/>
          <path class="cls-6" d="M35.17 10.41h-8.72a5.14 5.14 0 0 0-5.12 5.12V38a5.13 5.13 0 0 0 5.12 5.12h8.72A5.14 5.14 0 0 0 40.29 38V15.54a5.14 5.14 0 0 0-5.12-5.13zm-1.72 2a.71.71 0 1 1-.71.71.71.71 0 0 1 .71-.66zm-2.64 0a.71.71 0 1 1-.71.71.71.71 0 0 1 .71-.66zm-2.64 0a.71.71 0 1 1-.71.71.71.71 0 0 1 .71-.66zm5.09 27.94h-4.91a.7.7 0 1 1 0-1.37h4.91a.7.7 0 1 1 0 1.37zm5.27-3.6H23.09v-21h15.44z"/>
        </g>
      </g>
    </g>
  </svg>
  <svg width="61" height="53" id="15h" y="265">
    <defs>
      <style>
        .cls-6{fill:#fff}
      </style>
    </defs>
    <g style="isolation:isolate">
      <g id="15h-Слой_2" data-name="Слой 2">
        <g id="15h-Слой_1-2" data-name="Слой 1">
          <path fill="#238dc1" d="M45.8.5H15.65L.58 26.61l15.07 26.1H45.8l15.07-26.1L45.8.5z"/>
          <path stroke="#008dc1" fill="none" stroke-miterlimit="10" d="M45.8.5H15.65L.58 26.61l15.07 26.1H45.8l15.07-26.1L45.8.5z"/>
          <path class="cls-6" d="M25.35 31.35L17 39.7h23.23V24.31L29.27 35.27l-3.92-3.92z"/>
          <path class="cls-6" d="M41.66 14.13h-7.41a.89.89 0 0 0-.71.56.57.57 0 0 0 .1.66L35.27 17l.54.54a2.3 2.3 0 0 0-.3.25L29 24.3l-1.91-2.08a2.41 2.41 0 0 0-3.41-.14l-.12.14-.1.08-8.3 8.3a2.41 2.41 0 1 0 3.4 3.4l6.67-6.67L27 29.24l.15.13.09.11a2.42 2.42 0 0 0 3.42 0l8.3-8.3a2.22 2.22 0 0 0 .25-.3l.42.42 1.68 1.7a.65.65 0 0 0 .74.17.87.87 0 0 0 .53-.73v-7.4a.93.93 0 0 0-.92-.91z"/>
        </g>
      </g>
    </g>
  </svg>
  <svg width="61" height="53" id="16h" y="318">
    <defs>
      <style>
        .cls-6{fill:#fff}
      </style>
    </defs>
    <g style="isolation:isolate">
      <g id="16h-Слой_2" data-name="Слой 2">
        <g id="16h-Слой_1-2" data-name="Слой 1">
          <path fill="#238dc1" d="M45.8.5H15.65L.58 26.61l15.07 26.1H45.8l15.07-26.1L45.8.5z"/>
          <path stroke="#008dc1" fill="none" stroke-miterlimit="10" d="M45.8.5H15.65L.58 26.61l15.07 26.1H45.8l15.07-26.1L45.8.5z"/>
          <path class="cls-6" d="M33 27.58a.61.61 0 0 0-.37-.26l-2.2-.49-.06-.88 2.09-.9a.59.59 0 0 0 .31-.77l-1.13-2.62a.59.59 0 0 0-.77-.31l-2.07.9-.57-.68 1.16-2a.59.59 0 0 0 .06-.45.58.58 0 0 0-.27-.36l-2.45-1.45a.59.59 0 0 0-.8.21l-1.15 1.94-.78-.19-.25-2.27a.6.6 0 0 0-.21-.4.58.58 0 0 0-.43-.13l-2.83.27a.58.58 0 0 0-.53.64l.25 2.25-.82.33-1.51-1.71a.58.58 0 0 0-.83-.05l-2.14 1.88a.59.59 0 0 0-.05.83l1.49 1.7-.47.75-2.23-.5a.59.59 0 0 0-.7.45l-.62 2.78a.58.58 0 0 0 .08.44.59.59 0 0 0 .37.26l2.2.49.06.88-2.09.9a.59.59 0 0 0-.31.77l1.13 2.61a.59.59 0 0 0 .77.31l2.07-.89.57.68-1.16 2a.59.59 0 0 0 .21.8l2.45 1.45a.58.58 0 0 0 .44.07.59.59 0 0 0 .36-.27l1.15-1.94.86.22.21 2.27a.58.58 0 0 0 .21.39.56.56 0 0 0 .25.12.61.61 0 0 0 .19 0l2.83-.27a.59.59 0 0 0 .4-.21.59.59 0 0 0 .13-.43l-.21-2.25.82-.33 1.51 1.71a.59.59 0 0 0 .83.05L30.53 34a.59.59 0 0 0 .05-.83l-1.49-1.7.47-.75 2.23.5a.59.59 0 0 0 .7-.45l.62-2.77a.6.6 0 0 0-.11-.42zm-7.64.09a2.86 2.86 0 1 1-2.17-3.42 2.87 2.87 0 0 1 2.2 3.42zm22.45.2a.41.41 0 0 0-.11-.3l-1.07-1.18.32-.53 1.58.33a.42.42 0 0 0 .31-.06.41.41 0 0 0 .18-.26l.41-2a.41.41 0 0 0-.32-.49l-1.56-.32-.05-.62 1.5-.66a.42.42 0 0 0 .21-.23.4.4 0 0 0 0-.32l-.83-1.83a.42.42 0 0 0-.55-.21l-1.45.66-.41-.47.8-1.4a.41.41 0 0 0 0-.32.4.4 0 0 0-.2-.25l-1.75-1a.42.42 0 0 0-.57.16L43.46 18l-.61-.14-.18-1.6a.41.41 0 0 0-.46-.37l-2 .22a.41.41 0 0 0-.28.15.41.41 0 0 0-.09.3l.16 1.55-.58.24-1.09-1.19a.4.4 0 0 0-.29-.13.41.41 0 0 0-.3.11l-1.44 1.35a.42.42 0 0 0-.14.29.41.41 0 0 0 .11.3l1.07 1.18-.32.53-1.58-.33a.42.42 0 0 0-.49.32l-.41 2a.42.42 0 0 0 .32.49l1.56.32.05.63-1.47.64a.41.41 0 0 0-.21.55l.83 1.83a.41.41 0 0 0 .23.22.4.4 0 0 0 .32 0l1.45-.66.41.47-.8 1.4a.4.4 0 0 0 0 .32.41.41 0 0 0 .09.17l.1.08 1.75 1a.41.41 0 0 0 .32 0 .42.42 0 0 0 .25-.2l.79-1.39.61.14.18 1.6a.43.43 0 0 0 .15.28.41.41 0 0 0 .31.09l2-.22a.42.42 0 0 0 .37-.46l-.18-1.59.58-.24 1.09 1.19a.42.42 0 0 0 .29.13.42.42 0 0 0 .3-.11l1.49-1.36a.41.41 0 0 0 .09-.23zm-4.46-3.05a2 2 0 1 1 .13-2.82 2 2 0 0 1-.13 2.82zM41.56 41a.32.32 0 0 0-.08-.22l-.82-.87.23-.4 1.18.23a.31.31 0 0 0 .23 0 .3.3 0 0 0 .13-.2l.3-1.54a.31.31 0 0 0-.25-.36l-1.17-.23v-.47l1.09-.51a.31.31 0 0 0 .16-.17.3.3 0 0 0 0-.24l-.64-1.36a.31.31 0 0 0-.41-.15l-1.14.49-.31-.35.58-1.06a.31.31 0 0 0 0-.24.31.31 0 0 0-.15-.18l-1.32-.73a.31.31 0 0 0-.42.12l-.58 1-.46-.1-.15-1.2a.31.31 0 0 0-.35-.27l-1.49.19a.31.31 0 0 0-.21.12.3.3 0 0 0-.06.23l.15 1.18-.43.19-.83-.88a.3.3 0 0 0-.21-.1.32.32 0 0 0-.22.08l-1.1 1a.31.31 0 0 0-.1.22.32.32 0 0 0 .08.22l.82.87-.24.4-1.18-.23a.31.31 0 0 0-.36.25l-.29 1.48a.32.32 0 0 0 .25.36l1.17.23v.46l-.96.59a.31.31 0 0 0-.15.41l.64 1.36a.31.31 0 0 0 .41.15l1.08-.51.31.35-.58 1.05a.31.31 0 0 0 0 .24.3.3 0 0 0 .07.13l.08.06 1.32.73a.31.31 0 0 0 .42-.12l.58-1 .45.1.15 1.2a.31.31 0 0 0 .35.27l1.42-.27a.32.32 0 0 0 .27-.35l-.15-1.18.43-.19.82.88a.31.31 0 0 0 .22.1.32.32 0 0 0 .22-.08l1.1-1a.31.31 0 0 0 .1-.18zm-3.37-2.23a1.51 1.51 0 1 1 .07-2.14 1.52 1.52 0 0 1-.07 2.11z"/>
        </g>
      </g>
    </g>
  </svg>
  <svg width="60" height="52" id="17h" y="371">
    <defs>
      <style>
        .cls-4{fill:#fff}
      </style>
    </defs>
    <g style="isolation:isolate">
      <g id="17h-Слой_2" data-name="Слой 2">
        <g id="17h-Слой_1-2" data-name="Слой 1">
          <path fill="#238dc1" d="M45.22 0H15.07L0 26.11l15.07 26.1h30.15l15.07-26.1L45.22 0z"/>
          <path class="cls-4" d="M29.17 28.18a3.6 3.6 0 0 1-2.23-.76.48.48 0 0 1 .62-.74 2.76 2.76 0 0 0 3.33 0 .48.48 0 0 1 .54.8 4 4 0 0 1-2.26.73z"/>
          <circle class="cls-4" cx="25.95" cy="22.53" r="1.14" transform="rotate(-89.17 25.951 22.528)"/>
          <circle class="cls-4" cx="32.46" cy="22.52" r="1.14" transform="rotate(-89.19 32.46 22.523)"/>
          <path class="cls-4" d="M41.32 36.24A4.52 4.52 0 0 0 37.15 33H36l-6.21 7-6.24-7h-1.12a4.52 4.52 0 0 0-4.17 3.28l-2 7.31h27z"/>
          <path class="cls-4" d="M19.15 18.4h1.22v8.78h-1.22c-1.29 0-2.34-2-2.34-4.39s1.05-4.39 2.34-4.39zm10.48-9.96a10.37 10.37 0 0 0-10.1 7.44 3.87 3.87 0 0 1 .59 0 4.2 4.2 0 0 1 1.07.14 9 9 0 0 1 16.89 0 3.93 3.93 0 0 1 .87-.1 4.18 4.18 0 0 1 .81.08 10.51 10.51 0 0 0-10.13-7.56zm10.88 9.96h-1.82v8.78h.44c-.31 1-2.14 3.26-7 3.86a2.23 2.23 0 0 0-2.13-1.2c-1.24 0-2.25.71-2.25 1.57S28.72 33 30 33a2.28 2.28 0 0 0 2.14-1.12c5.79-.66 7.61-3.58 7.87-4.68h.54c1.29 0 2.34-2 2.34-4.39s-1.09-4.41-2.38-4.41z"/>
          <path class="cls-4" d="M26.67 30.23a8.63 8.63 0 0 1-3.93-7A6.46 6.46 0 0 1 23 21.3c1.31-1.27 5-1.84 5-1.84a4.51 4.51 0 0 0 3-2.42 6.5 6.5 0 0 1 4.62 6.21 8.78 8.78 0 0 1-3 6.3 8.2 8.2 0 0 0 4.56-2.08v-10h-.16l-.39-1.14a5.3 5.3 0 0 0-4.42-3.85c-1.57.06-1.47 1.26-1.47 1.26a3.18 3.18 0 0 0-3.76-1.35c-2.17.74-4 1.82-4.68 4l-.4 1.2-.33-.09v11h-2.48c.77 1.48 1.85 2 4.47 1l.26-.16a8.36 8.36 0 0 0 2.56 2.11 2.51 2.51 0 0 1 .29-1.22z"/>
        </g>
      </g>
    </g>
  </svg>
  <svg width="60" height="52" id="18h" y="423">
    <defs>
      <style>
        .cls-4{fill:#fff}
      </style>
    </defs>
    <g style="isolation:isolate">
      <g id="18h-Слой_2" data-name="Слой 2">
        <g id="18h-Слой_1-2" data-name="Слой 1">
          <path fill="#238dc1" d="M45.22 0H15.07L0 26.11l15.07 26.1h30.15l15.07-26.1L45.22 0z"/>
          <path class="cls-4" d="M40 13.37h-2.58v3.2h1.76v22.12H21.46V16.57h1.77v-3.2h-2.57a2.41 2.41 0 0 0-2.4 2.4v23.72a2.41 2.41 0 0 0 2.4 2.4H40a2.41 2.41 0 0 0 2.4-2.4V15.77a2.41 2.41 0 0 0-2.4-2.4z"/>
          <path class="cls-4" d="M34.17 13.37a1.44 1.44 0 0 0 .08-.46 3.85 3.85 0 0 0-7.69 0 1.41 1.41 0 0 0 .08.46h-2.19V19H36.2v-5.6zM30.36 15a2 2 0 1 1 2-2 2 2 0 0 1-2 2zm-5.91 20.54a.4.4 0 0 1-.28-.11l-1.69-1.67.56-.57 1.39 1.37L26.76 32l.59.54-2.61 2.87a.4.4 0 0 1-.28.13zm0-5.93a.4.4 0 0 1-.28-.11l-1.69-1.67.56-.57 1.39 1.37 2.33-2.56.59.54-2.61 2.86a.4.4 0 0 1-.28.13zm0-5.92a.4.4 0 0 1-.28-.12l-1.69-1.67.56-.57 1.39 1.37 2.33-2.56.59.54-2.61 2.86a.4.4 0 0 1-.28.13zm-1.68 12.4h15.22v.8H22.77zm-.06-5.93h15.22v.8H22.71zm-.05-5.93h15.22v.8H22.66z"/>
        </g>
      </g>
    </g>
  </svg>
  <svg width="60" height="52" id="19h" y="475">
    <defs>
      <style>
        .cls-4{fill:#fff}
      </style>
    </defs>
    <g style="isolation:isolate">
      <g id="19h-Слой_2" data-name="Слой 2">
        <g id="19h-Слой_1-2" data-name="Слой 1">
          <path fill="#238dc1" d="M45.22 0H15.07L0 26.11l15.07 26.1h30.15l15.07-26.1L45.22 0z"/>
          <path class="cls-4" d="M30.11 9a17.5 17.5 0 1 0 17.5 17.5A17.52 17.52 0 0 0 30.11 9zM37 39.51l-4.63-8.61a4.92 4.92 0 0 1-4.52 0l-4.67 8.61a14.75 14.75 0 0 1-7.81-13h9.8v-.15a4.69 4.69 0 0 1 2.24-4L22.35 14a14.7 14.7 0 0 1 15.53 0l-5.07 8.38a4.68 4.68 0 0 1 2.24 4v.15h9.8a14.75 14.75 0 0 1-7.81 13zm0 0"/>
          <path class="cls-4" d="M33.28 26.51a3.17 3.17 0 1 1-3.17-3.17 3.17 3.17 0 0 1 3.17 3.17zm0 0"/>
        </g>
      </g>
    </g>
  </svg>
  <svg width="60" height="52" id="20h" y="527">
    <defs>
      <style>
        .cls-4{fill:#fff}
      </style>
    </defs>
    <g style="isolation:isolate">
      <g id="20h-Слой_2" data-name="Слой 2">
        <g id="20h-Слой_1-2" data-name="Слой 1">
          <path fill="#238dc1" d="M45.22 0H15.07L0 26.11l15.07 26.1h30.15l15.07-26.1L45.22 0z"/>
          <rect class="cls-4" x="12.61" y="23.29" width="36" height="8.98" rx="3" ry="3"/>
          <rect class="cls-4" x="17.88" y="18.8" width="9.73" height="4.25" rx="1.88" ry="1.88"/>
          <path class="cls-4" d="M18.83 31.58h3.45v4.84h-3.45zm21.23 0h3.45v4.84h-3.45z"/>
          <rect class="cls-4" x="12.61" y="16.39" width="4.5" height="11.05" rx="1.45" ry="1.45"/>
        </g>
      </g>
    </g>
  </svg>
  <svg width="60" height="52" id="21h" y="579">
    <defs>
      <style>
        .cls-4{fill:#fff}
      </style>
    </defs>
    <g style="isolation:isolate">
      <g id="21h-Слой_2" data-name="Слой 2">
        <g id="21h-Слой_1-2" data-name="Слой 1">
          <path fill="#238dc1" d="M45.22 0H15.07L0 26.11l15.07 26.1h30.15l15.07-26.1L45.22 0z"/>
          <path class="cls-4" d="M45.79 21.26H19.94a2.73 2.73 0 0 0-2.64 1.64l-3.48 13.27c-.24.9.57 1.63 1.78 1.63h25.84a2.73 2.73 0 0 0 2.64-1.63l3.49-13.27c.23-.9-.57-1.64-1.78-1.64zm-9.62 8.27a7.06 7.06 0 0 1-6.53 5.72c-3 0-5-2.56-4.41-5.72a7.06 7.06 0 0 1 6.53-5.72c3.02 0 4.99 2.56 4.4 5.72z"/>
          <path class="cls-4" d="M34.25 28.55H32l.44-2a.29.29 0 0 0-.32-.35h-1.4a.49.49 0 0 0-.47.35l-.44 2h-2.25a.5.5 0 0 0-.48.35l-.27 1.25a.3.3 0 0 0 .32.35h2.25l-.44 2a.29.29 0 0 0 .32.35h1.4a.49.49 0 0 0 .47-.35l.44-2h2.25a.49.49 0 0 0 .47-.35l.27-1.25a.29.29 0 0 0-.31-.35zm-14.31-8.97h24.41v-1a2.53 2.53 0 0 0-2.52-2.52H26V15a2.53 2.53 0 0 0-2.52-2.52h-5A2.53 2.53 0 0 0 16 15v1.08a2.52 2.52 0 0 0-2.21 2.49V29.7l1.9-7.24a4.36 4.36 0 0 1 4.25-2.88z"/>
        </g>
      </g>
    </g>
  </svg>
  <svg width="60" height="52" id="22h" y="631">
    <defs>
      <style>
        .cls-4{fill:#fff}
      </style>
    </defs>
    <g style="isolation:isolate">
      <g id="22h-Слой_2" data-name="Слой 2">
        <g id="22h-Слой_1-2" data-name="Слой 1">
          <path fill="#238dc1" d="M45.22 0H15.07L0 26.11l15.07 26.1h30.15l15.07-26.1L45.22 0z"/>
          <path class="cls-4" d="M34.72 22.82l.33.4a9.82 9.82 0 0 1 2.66 6.6c0 3-1.21 5.37-4 8.08l-.3.28 1.24 3H19.38l3.22-7.16h3.52v-2.13h-5.17v-.75h11.84v.75h-4.7v2.17h3.61l.65 1.74.64-.51a6.1 6.1 0 0 0 2.52-5 5.92 5.92 0 0 0-2.64-5.19z"/>
          <path class="cls-4" d="M31.47 24.42l-.82-.63-.46-.34-3.27 3.95.9.77-.73.75-5.66-4.85.75-.79 1.08.87 3.43-4 2.65-3.21 2.93-3.36a2.27 2.27 0 0 1 1.24-.64 5.15 5.15 0 0 1 1.31.27l.38.11 1.71-1.85L35 9.59l.6-.67 4.4 4.19-.64.74-1.59-1.62L36 14l.2.38a2.65 2.65 0 0 1 .44 1.29A2 2 0 0 1 36 17l-3 3.27 1 .78a.28.28 0 0 1 .08.21.34.34 0 0 1 0 .12l-.38.41-.35.39z"/>
        </g>
      </g>
    </g>
  </svg>
  <svg width="60" height="52" id="23h" y="683">
    <defs>
      <style>
        .cls-4{fill:#fff}
      </style>
    </defs>
    <g style="isolation:isolate">
      <g id="23h-Слой_2" data-name="Слой 2">
        <g id="23h-Слой_1-2" data-name="Слой 1">
          <path fill="#238dc1" d="M45.22 0H15.07L0 26.11l15.07 26.1h30.15l15.07-26.1L45.22 0z"/>
          <path class="cls-4" d="M23.68 35l4.05-7.73 3.95-7.53c1.78-3.39.88-7.38-2-8.89s-6.68 0-8.45 3.41l-3.96 7.54-4.05 7.73c-1.78 3.39-.88 7.38 2 8.89s6.69-.01 8.46-3.42zM18.5 21.42l3.5-6.73c1.54-2.95 4.79-4.31 7.23-3s3.17 4.72 1.63 7.67l-3.52 6.73z"/>
          <path class="cls-4" d="M28.07 13.13a.45.45 0 0 1 .61-.19 3.07 3.07 0 0 1 1.6 1.91c.58 2-.81 4.42-.87 4.52a.45.45 0 1 1-.78-.46s1.25-2.18.78-3.81a2.16 2.16 0 0 0-1.15-1.36.45.45 0 0 1-.19-.61zM36.42 22a8.65 8.65 0 0 0-6.58 8.92l16.52-4A8.65 8.65 0 0 0 36.42 22zm4.1 16.77a8.65 8.65 0 0 0 6.58-8.92l-16.52 4a8.65 8.65 0 0 0 9.94 4.92z"/>
        </g>
      </g>
    </g>
  </svg>
  <svg width="60" height="52" id="24h" y="735">
    <defs>
      <style>
        .cls-4{fill:#fff}
      </style>
    </defs>
    <g style="isolation:isolate">
      <g id="24h-Слой_2" data-name="Слой 2">
        <g id="24h-Слой_1-2" data-name="Слой 1">
          <path fill="#238dc1" d="M45.22 0H15.07L0 26.11l15.07 26.1h30.15l15.07-26.1L45.22 0z"/>
          <path class="cls-4" d="M17.6 28.65a2.92 2.92 0 1 0 2.92 2.92 2.92 2.92 0 0 0-2.92-2.92z"/>
          <ellipse class="cls-4" cx="29.31" cy="10.4" rx="1.14" ry="2.36" transform="rotate(-45.04 29.309 10.4)"/>
          <ellipse class="cls-4" cx="38.82" cy="9.92" rx="2.36" ry="1.14" transform="rotate(-44.96 38.818 9.921)"/>
          <path class="cls-4" d="M44.89 14.15l-2.74-2.75a1.12 1.12 0 1 0-1.59 1.6l2.75 2.75a2 2 0 0 1 0 2.78L35.68 29a2 2 0 0 1-2.71 0l-7.66-10.53a1.94 1.94 0 0 1 0-2.74l2.33-2.33a1.12 1.12 0 0 0-1.58-1.58l-2.33 2.33a4.18 4.18 0 0 0 0 5.87l7.66 10.59a4.13 4.13 0 0 0 2 1.11v8.38a3.74 3.74 0 0 1-3.74 3.74h-7.42a3.74 3.74 0 0 1-3.74-3.74v-3a5.62 5.62 0 1 0-1.7 0v3a5.44 5.44 0 0 0 5.44 5.44h7.41a5.44 5.44 0 0 0 5.44-5.44v-8.34a4.14 4.14 0 0 0 2.22-1.19l7.59-10.52a4.18 4.18 0 0 0 0-5.91zM13 31.57a4.59 4.59 0 1 1 4.59 4.59A4.6 4.6 0 0 1 13 31.57z"/>
        </g>
      </g>
    </g>
  </svg>
  <svg width="60" height="52" id="25h" y="787">
    <defs>
      <style>
        .cls-4{fill:#fff}
      </style>
    </defs>
    <g style="isolation:isolate">
      <g id="25h-Слой_2" data-name="Слой 2">
        <g id="25h-Слой_1-2" data-name="Слой 1">
          <path fill="#238dc1" d="M45.22 0H15.07L0 26.11l15.07 26.1h30.15l15.07-26.1L45.22 0z"/>
          <path class="cls-4" d="M34.45 12.77a2.17 2.17 0 0 0-4.34 0v1.31h4.34z"/>
          <circle class="cls-4" cx="39.51" cy="35.05" r="2.67"/>
          <path class="cls-4" d="M47.14 28.52l-3.48-7.92C42 17 39.13 15.66 33.23 15.66H17.07c-1.23 0-3.23.25-3.23 3.15s.08 4.47.08 4.47l.22 8.72c0 1.81 1.57 2.85 4.12 2.93a3.81 3.81 0 0 1 7.61 0h9.83a3.81 3.81 0 0 1 7.61 0h1c2.1 0 3.8-1.29 3.8-3.4a7.63 7.63 0 0 0-.97-3.01zm-17.85-3h-3.54v3.54h-3.08v-3.55h-3.54v-3.08h3.54v-3.54h3.08v3.54h3.54zm5.59.34v-7.2l3.36.08c2.67.73 4 3.07 5.18 7.12z"/>
          <circle class="cls-4" cx="22.07" cy="35.05" r="2.67"/>
        </g>
      </g>
    </g>
  </svg>
  <svg width="60" height="52" id="26h" y="839">
    <defs>
      <style>
        .cls-4{fill:#fff}
      </style>
    </defs>
    <g style="isolation:isolate">
      <g id="26h-Слой_2" data-name="Слой 2">
        <g id="26h-Слой_1-2" data-name="Слой 1">
          <path fill="#238dc1" d="M45.22 0H15.07L0 26.11l15.07 26.1h30.15l15.07-26.1L45.22 0z"/>
          <path class="cls-4" d="M31.8 20h-9v6a5.46 5.46 0 0 0 5.42 5.58h3.58A5.38 5.38 0 0 0 37.13 26v-6zm-2.63 8.72h-3.8a.57.57 0 1 1 0-1.14h3.8a.57.57 0 1 1 0 1.14zm0-3.13h-3.8a.57.57 0 1 1 0-1.14h3.8a.57.57 0 1 1 0 1.14zm0-3.13h-3.8a.57.57 0 1 1 0-1.14h3.8a.57.57 0 0 1 0 1.14zm0-4.03h-3.8a.57.57 0 0 1 0-1.14h3.8a.57.57 0 0 1 0 1.14zm0-3.43h-3.8a.57.57 0 0 1 0-1.14h3.8a.57.57 0 0 1 0 1.14z"/>
          <path class="cls-4" d="M33.57 8.74H19.78V28.1a6.48 6.48 0 0 0 6.46 6.46h1.14c0 .62.76 1.14 1.77 1.32v3.68A1.08 1.08 0 0 0 28 40.63v3.73a1.08 1.08 0 0 0 1.08 1.08v6.8h1.52v-6.8a1.08 1.08 0 0 0 1.08-1.08v-3.73a1.08 1.08 0 0 0-1.08-1.08v-3.67c1-.18 1.74-.7 1.76-1.32h1.14A6.48 6.48 0 0 0 40 28.1V8.74zm5 8.55v9.3c0 3.55-2.07 6.46-6.46 6.46H28c-4.49 0-6.46-2.9-6.46-6.46V10.83h17z"/>
        </g>
      </g>
    </g>
  </svg>
  <svg width="60" height="52" id="27h" y="891">
    <g data-name="Слой 2">
      <g data-name="Слой 1">
        <path fill="#238dc1" d="M45.22 0H15.07L0 26.11l15.07 26.1h30.15l15.07-26.1L45.22 0z"/>
        <path d="M40.21 14.28s-2.71-3.95-6.91-2.22l-2.47 1.23a8.53 8.53 0 0 1-3.58-.61c-2.1-.74-7-.85-7.77 4.32 0 0-.49 4.15 2.46 12.82 0 0 1 12.08 2 13.56 0 0 1.73 2.47 2.47-.74 0 0-.49-10.36 3.94-10.6 0 0 3.21-1.48 3.7 3.45l.49 6.66s1.73 5 3.2.24 1-13.56 2.47-17.26c0 .01 2.22-5.91 0-10.85zm-13.56 2a4.75 4.75 0 0 0-2.91 1.45 1.83 1.83 0 0 0-.21 1.53 1 1 0 0 1-.72 1.19h-.23a1 1 0 0 1-1-.76 3.78 3.78 0 0 1 .5-3.12c1.28-1.85 4-2.25 4.28-2.29a1 1 0 0 1 1.1.86 1 1 0 0 1-.81 1.11z" fill="#fff"/>
      </g>
    </g>
  </svg>
  <svg width="61" height="53" id="4h" y="943">
    <defs>
      <style>
        .cls-6{fill:#fff}
      </style>
    </defs>
    <g style="isolation:isolate">
      <g id="4h-Слой_2" data-name="Слой 2">
        <g id="4h-Слой_1-2" data-name="Слой 1">
          <path fill="#238dc1" d="M45.8.5H15.65L.58 26.61l15.07 26.1H45.8l15.07-26.1L45.8.5z"/>
          <path stroke="#008dc1" fill="none" stroke-miterlimit="10" d="M45.8.5H15.65L.58 26.61l15.07 26.1H45.8l15.07-26.1L45.8.5z"/>
          <path class="cls-6" d="M40.65 12.64h-2.57v3.2h1.76V38H22.12V15.84h1.77v-3.2h-2.57a2.41 2.41 0 0 0-2.4 2.4v23.71a2.41 2.41 0 0 0 2.4 2.4h19.33a2.41 2.41 0 0 0 2.4-2.4V15a2.41 2.41 0 0 0-2.4-2.36z"/>
          <path class="cls-6" d="M34.83 12.64a1.44 1.44 0 0 0 .08-.46 3.85 3.85 0 0 0-7.69 0 1.41 1.41 0 0 0 .08.46h-2.19v5.6h11.75v-5.6zM31 14.22a2 2 0 1 1 2-2 2 2 0 0 1-2 2zM25.11 34.8a.4.4 0 0 1-.28-.11L23.15 33l.56-.57 1.39 1.37 2.33-2.56.59.54-2.61 2.87a.4.4 0 0 1-.28.13zm0-5.92a.4.4 0 0 1-.28-.11l-1.68-1.67.56-.57 1.39 1.37 2.33-2.56.59.54-2.61 2.86a.4.4 0 0 1-.28.13zm0-5.88a.4.4 0 0 1-.28-.12l-1.69-1.67.56-.57L25.1 22l2.33-2.56.57.56-2.61 2.86a.4.4 0 0 1-.28.13zm-1.68 12.36h15.22v.8H23.43zm-.06-5.93h15.22v.8H23.37zm-.05-5.93h15.22v.8H23.32z"/>
        </g>
      </g>
    </g>
  </svg>
  <svg width="61" height="53" id="5h" y="996">
    <g data-name="Слой 2">
      <g data-name="Слой 1">
        <path fill="#238dc1" d="M45.8.5H15.65L.58 26.61l15.07 26.1H45.8l15.07-26.1L45.8.5z"/>
        <path stroke="#008dc1" fill="none" stroke-miterlimit="10" d="M45.8.5H15.65L.58 26.61l15.07 26.1H45.8l15.07-26.1L45.8.5z"/>
        <path d="M30.43 41.48l.74.48C45.32 32.4 44.43 22 44.43 22c-.62-5.85-4.55-6.36-8-5.59a21.51 21.51 0 0 0-5.62 2.24c-.13-.07-12.77-7-13.53 3.82-.05.04-.56 10.07 13.15 19.01zM23.6 26.77a.93.93 0 0 1-1.3-.11 6.19 6.19 0 0 1-1.48-4.26 3.52 3.52 0 0 1 1.63-2.4.92.92 0 0 1 1.13.09 1 1 0 0 1 .14.16.92.92 0 0 1-.26 1.27 1.7 1.7 0 0 0-.83 1.18 4.43 4.43 0 0 0 1.07 2.83.92.92 0 0 1-.1 1.24z" fill="#fff"/>
      </g>
    </g>
  </svg>
  <svg width="61" height="53" id="6h" y="1049">
    <defs>
      <style>
        .cls-6{fill:#fff}
      </style>
    </defs>
    <g style="isolation:isolate">
      <g id="6h-Слой_2" data-name="Слой 2">
        <g id="6h-Слой_1-2" data-name="Слой 1">
          <path fill="#238dc1" d="M45.8.5H15.65L.58 26.61l15.07 26.1H45.8l15.07-26.1L45.8.5z"/>
          <path stroke="#008dc1" fill="none" stroke-miterlimit="10" d="M45.8.5H15.65L.58 26.61l15.07 26.1H45.8l15.07-26.1L45.8.5z"/>
          <path class="cls-6" d="M47 25.41c-1-1.49-3.27 0-5.64 1.53-.66.43-1.33.85-2 1.21a2.6 2.6 0 0 1 .62.34A2.34 2.34 0 0 1 41 30.28c.05 1.54-1.21 2.33-2.45 2.9a14.45 14.45 0 0 1-4.93.68h-1a10.78 10.78 0 0 0-3 .55.48.48 0 0 1-.17 0 .49.49 0 0 1-.18-.95 11.43 11.43 0 0 1 3.28-.62h1.05a14 14 0 0 0 4.55-.59c1.38-.63 1.91-1.19 1.88-2a1.35 1.35 0 0 0-.55-1.05 2.43 2.43 0 0 0-1.67-.36 5.35 5.35 0 0 1-1 .27 10.85 10.85 0 0 1-7-.93l-.6-.36c-2-1.24-6.76-4.14-11.31.41l-2.16 2.18a1 1 0 0 0-.25.74l.65 4.45.39 2.69c.07.47.3.61.44.65h.15a.81.81 0 0 0 .58-.3 15.34 15.34 0 0 1 1.45-1.32 4.42 4.42 0 0 1 2.62-1.16 12.87 12.87 0 0 1 4.38 1.4c2 .86 4.18 1.83 6.23 1.83 6.43 0 11.81-5.81 13.86-9.72 1-1.87 1.31-3.51.76-4.26zM28.47 13.57a.4.4 0 0 0-.39.39v1.95a.39.39 0 0 0 .78 0V14a.39.39 0 0 0-.39-.43z"/>
          <path class="cls-6" d="M30.12 25.11a3.57 3.57 0 0 0 2.54-1.05 3.51 3.51 0 0 0 1-2.5v-8.14a3.59 3.59 0 0 0-6.12-2.5 3.51 3.51 0 0 0-1 2.5v8.14a3.57 3.57 0 0 0 3.58 3.55zm-2.81-11.69a2.74 2.74 0 0 1 .81-2 2.81 2.81 0 0 1 4.81 2v3.68h-5.62v-3.68zM38.8 25.06A3.71 3.71 0 0 0 41.67 19l-5.23 5.23a3.7 3.7 0 0 0 2.36.83zm2.34-6.59a3.71 3.71 0 0 0-5.22 5.22z"/>
        </g>
      </g>
    </g>
  </svg>
  <svg width="61" height="53" id="7h" y="1102">
    <defs>
      <style>
        .cls-6,.cls-7{fill:#fff}.cls-7{fill-rule:evenodd}
      </style>
    </defs>
    <g style="isolation:isolate">
      <g id="7h-Слой_2" data-name="Слой 2">
        <g id="7h-Слой_1-2" data-name="Слой 1">
          <path fill="#238dc1" d="M45.8.5H15.65L.58 26.61l15.07 26.1H45.8l15.07-26.1L45.8.5z"/>
          <path stroke="#008dc1" fill="none" stroke-miterlimit="10" d="M45.8.5H15.65L.58 26.61l15.07 26.1H45.8l15.07-26.1L45.8.5z"/>
          <path class="cls-6" d="M26.23 22.57l-1.91.51.14.53.11.38.92-.24a1.4 1.4 0 0 1 1.71 1l3.46 13.06a1.4 1.4 0 0 1-1 1.7l-6.12 1.62a1.43 1.43 0 0 1-1.73-1l-.69-2.35a.76.76 0 0 0-.92-.52l-2.2.63a1.39 1.39 0 0 1-1.7-1L14 28.23a1.4 1.4 0 0 1 1-1.71l.63-.17-.24-.91-1.56.42a1.85 1.85 0 0 0-1.34 2.24l3.94 14.83a1.85 1.85 0 0 0 2.28 1.28l12.39-3.28a1.85 1.85 0 0 0 1.34-2.24l-3.93-14.84a1.85 1.85 0 0 0-2.28-1.28zm-5.62 18l-2.28-1.47c-.49-.28-1.53-1.1-1.4-1.1a3.33 3.33 0 0 0 2 .13l.62-.17a1.05 1.05 0 0 1 1.3.74l.23.85c.26 1 1.08 1.31 1.12 1.48s-1.09-.1-1.58-.42z"/>
          <path class="cls-6" d="M22.67 22.51l-1.48.39c-.22-.57-1.22-.8-1.83-.64s-1.36.85-1.27 1.46l-1.48.39A.89.89 0 0 0 16 25.2l.08.32.37 1.48 7.78-2.06-.39-1.47-.09-.33a.89.89 0 0 0-1.08-.63zm-2.84 1.61a.66.66 0 1 1 .47-.81.66.66 0 0 1-.48.81z"/>
          <path class="cls-7" d="M34.11 9.14a6.16 6.16 0 1 1-6.16 6.16 6.16 6.16 0 0 1 6.16-6.16z"/>
          <path class="cls-6" d="M45.63 26.92C44.84 24.2 43.5 23 40.89 23h-1.33l-3.2 14.43h11.25zM43.79 31h-4.1v-.92h4.1z"/>
          <path class="cls-7" d="M33.75 22.85l-2.58 4.37 2.25 10.22h1.22l2.22-10.39-3.11-4.2z"/>
          <path class="cls-6" d="M23.2 40.25a.52.52 0 0 1-.5-.37l-.7-2.34a1.68 1.68 0 0 0-1.61-1.19 1.75 1.75 0 0 0-.43.06l-2.18.59h-.12a.47.47 0 0 1-.45-.35L14.9 28a.49.49 0 0 1 .34-.6l.39-.1.19.72 9.43-2.5-.19-.72.67-.18h.13a.49.49 0 0 1 .47.36L29.79 38a.49.49 0 0 1 0 .37.48.48 0 0 1-.3.22l-6.12 1.63h-.13zm-1.37-4.46l2.41-.64-.58-2.2 2.2-.58-.65-2.37-2.2.58-.58-2.2L20 29l.59 2.2-2.2.59.61 2.38 2.2-.58z"/>
        </g>
      </g>
    </g>
  </svg>
  <svg width="61" height="53" id="8h" y="1155">
    <defs>
      <style>
        .cls-6{fill:#fff}
      </style>
    </defs>
    <g style="isolation:isolate">
      <g id="8h-Слой_2" data-name="Слой 2">
        <g id="8h-Слой_1-2" data-name="Слой 1">
          <path fill="#238dc1" d="M45.8.5H15.65L.58 26.61l15.07 26.1H45.8l15.07-26.1L45.8.5z"/>
          <path stroke="#008dc1" fill="none" stroke-miterlimit="10" d="M45.8.5H15.65L.58 26.61l15.07 26.1H45.8l15.07-26.1L45.8.5z"/>
          <path class="cls-6" d="M34.57 11.36h-8.29a4.88 4.88 0 0 0-4.87 4.87v21.31a4.88 4.88 0 0 0 4.87 4.87h8.29a4.88 4.88 0 0 0 4.87-4.87V16.23a4.88 4.88 0 0 0-4.87-4.87zm-1.64 1.95a.67.67 0 1 1-.67.67.67.67 0 0 1 .67-.67zm-2.51 0a.67.67 0 1 1-.67.67.67.67 0 0 1 .68-.67zm-2.51 0a.67.67 0 1 1-.67.67.67.67 0 0 1 .68-.67zm4.84 26.56h-4.66a.66.66 0 1 1 0-1.3h4.67a.66.66 0 1 1 0 1.3zm5-3.42H23.09v-20h14.68z"/>
          <path class="cls-6" d="M30.43 26.06c-2.65 0-4.28 1.75-4.28 5.19h8.56c0-3.44-1.63-5.19-4.28-5.19z"/>
          <circle class="cls-6" cx="30.25" cy="22.81" r="2.08"/>
        </g>
      </g>
    </g>
  </svg>
  <svg width="61" height="53" id="9h" y="1208">
    <defs>
      <style>
        .cls-6{fill:#fff}
      </style>
    </defs>
    <g style="isolation:isolate">
      <g id="9h-Слой_2" data-name="Слой 2">
        <g id="9h-Слой_1-2" data-name="Слой 1">
          <path fill="#238dc1" d="M45.8.5H15.65L.58 26.61l15.07 26.1H45.8l15.07-26.1L45.8.5z"/>
          <path stroke="#008dc1" fill="none" stroke-miterlimit="10" d="M45.8.5H15.65L.58 26.61l15.07 26.1H45.8l15.07-26.1L45.8.5z"/>
          <path class="cls-6" d="M21.83 31.44a1.23 1.23 0 0 1 1.23 1.23 1.23 1.23 0 0 1-1.23 1.23H16.4a1.23 1.23 0 0 1-1.23-1.23 1.23 1.23 0 0 1 1.23-1.23zm0-6.77a1.23 1.23 0 0 1 1.23 1.24 1.23 1.23 0 0 1-1.23 1.23H16.4a1.23 1.23 0 0 1-1.23-1.23 1.23 1.23 0 0 1 1.23-1.24zm0-6.67a1.23 1.23 0 0 1 1.23 1.23 1.23 1.23 0 0 1-1.23 1.24H16.4a1.23 1.23 0 0 1-1.23-1.24A1.23 1.23 0 0 1 16.4 18z"/>
          <path class="cls-6" d="M41.44 18.45V12.3H19.88v4.34h2a2.62 2.62 0 0 1 0 5.25h-1.99v1.4h1.94a2.62 2.62 0 0 1 0 5.25h-1.94V30h1.94a2.62 2.62 0 0 1 0 5.25h-2v4.12h21.61V18.45zM37 33.11a4.39 4.39 0 0 1-4-.2 13.9 13.9 0 0 1-4.07-5.83c-1.42-3.35-1.58-6.09-1.33-7a4.63 4.63 0 0 1 2.66-2.95.73.73 0 0 1 1 .39l1.67 3.94a.7.7 0 0 1-.39 1c-.85.36-1.81.77-1.83 1.33a6.79 6.79 0 0 0 .63 2.35 7.71 7.71 0 0 0 1.28 2.12c.36.35 1.38 0 2.22-.39a.7.7 0 0 1 1 .39l1.67 3.94a.73.73 0 0 1-.51.91z"/>
        </g>
      </g>
    </g>
  </svg>
</svg>
