<svg xmlns="http://www.w3.org/2000/svg" width="254.24" height="125.91" viewBox="0 0 254.24 125.91">
  <defs>
    <style>
      .cls-1 {
        fill: #00a7e1;
      }

      .cls-2 {
        fill: #4da6de;
      }

      .cls-3 {
        fill: #004f71;
      }

      .cls-4 {
        fill: #238dc1;
      }

      .cls-5 {
        fill: #004055;
      }
    </style>
  </defs>
  <title>Ресурс 28 1</title>
  <g id="Слой_2" data-name="Слой 2">
    <g id="Слой_1-2" data-name="Слой 1">
      <g>
        <path class="cls-1" d="M35.86,67.5,26.89,52h-8V52A160.22,160.22,0,0,0,17.54,75.4q.07,3.85.38,7.62h9Z"/>
        <path class="cls-1" d="M10.47,75.69A167.08,167.08,0,0,1,10.8,52H9L0,67.5,9,83h2.17q-.43-3.65-.66-7.34"/>
        <path class="cls-2" d="M39.95,1.25s0,0-.07,0l.05,0h0"/>
        <path class="cls-2" d="M39.88,1.23h0s0,0,0,0h0"/>
        <path class="cls-1" d="M56.92,0H51.26a30.83,30.83,0,0,1,2,5.11A54.61,54.61,0,0,1,55.11,15a109.89,109.89,0,0,1,.26,16.05h1.55l9-15.53Z"/>
        <path class="cls-1" d="M45.17,8.12a27.22,27.22,0,0,0-2.05-3.71A10.59,10.59,0,0,0,40.8,1.77a3,3,0,0,0-.87-.52h0s-.05,0,0,0l-.15,0-.34-.05h-.12A2.56,2.56,0,0,0,38,1.64L30,15.53l9,15.53H51.41a100.41,100.41,0,0,0-3.18-14.71,59,59,0,0,0-3.06-8.22"/>
        <path class="cls-3" d="M50.14,69H40.09l-9,15.53,8.15,14.11C40.19,97.08,41,95.53,41.8,94A95.93,95.93,0,0,0,47.7,78.83c1.07-3.62,1.87-6.93,2.45-9.85"/>
        <path class="cls-3" d="M58,69h-7c-.52,3-1.14,6.41-2,10.2a123,123,0,0,1-4.53,16c-.6,1.6-1.26,3.23-2,4.87H58L67,84.5Z"/>
        <path class="cls-4" d="M30.58,50l9,15.53H50.78c.51-3,.79-5.37,1-7.05l.11-1.13a5.1,5.1,0,0,1,.59-10c0-.85,0-1.76,0-2.73a99.47,99.47,0,0,0-.62-10.14H39.54Z"/>
        <path class="cls-4" d="M57.47,34.49H55.18c-.25,3.89-.6,7.32-.86,10.22-.09.95-.19,1.84-.28,2.67a5.12,5.12,0,0,1-.92,10.16l-.29,0-.14,1.09c-.25,1.66-.57,4-1,6.94h5.83l9-15.53Z"/>
        <path class="cls-3" d="M96.41,36.05a2.09,2.09,0,0,1-.58.69,1.29,1.29,0,0,1-.76.21,2,2,0,0,1-1-.35q-.56-.35-1.33-.77a11,11,0,0,0-1.8-.77,7.64,7.64,0,0,0-2.44-.35,7.33,7.33,0,0,0-2.22.3,4.69,4.69,0,0,0-1.6.84,3.36,3.36,0,0,0-1,1.29,4.19,4.19,0,0,0-.32,1.65A2.86,2.86,0,0,0,84,40.7,5.38,5.38,0,0,0,85.73,42a15.94,15.94,0,0,0,2.43,1q1.36.43,2.79.91A26.6,26.6,0,0,1,93.73,45a9.63,9.63,0,0,1,2.43,1.62A7.32,7.32,0,0,1,97.87,49a8.23,8.23,0,0,1,.65,3.44,11.1,11.1,0,0,1-.76,4.12,9.5,9.5,0,0,1-2.22,3.35A10.47,10.47,0,0,1,92,62.16a13.26,13.26,0,0,1-4.83.82,15.7,15.7,0,0,1-3.08-.3,16.33,16.33,0,0,1-2.91-.86,15.62,15.62,0,0,1-2.62-1.35,12.56,12.56,0,0,1-2.18-1.75l1.79-2.9a1.89,1.89,0,0,1,.59-.53,1.5,1.5,0,0,1,.77-.21,2.18,2.18,0,0,1,1.22.46q.66.46,1.56,1a12.36,12.36,0,0,0,2.12,1,8.24,8.24,0,0,0,2.91.46,6,6,0,0,0,4-1.22,4.37,4.37,0,0,0,1.43-3.51,3.24,3.24,0,0,0-.65-2.09,5.21,5.21,0,0,0-1.71-1.36A12.88,12.88,0,0,0,88,48.92q-1.36-.38-2.77-.83A23.87,23.87,0,0,1,82.47,47,9,9,0,0,1,80,45.37a7.43,7.43,0,0,1-1.71-2.53,9.53,9.53,0,0,1-.65-3.74,8.77,8.77,0,0,1,.71-3.46,8.91,8.91,0,0,1,2.07-3,10.19,10.19,0,0,1,3.35-2.09,12.42,12.42,0,0,1,4.58-.79,15.44,15.44,0,0,1,5.35.9,12.11,12.11,0,0,1,4.17,2.52Z"/>
        <path class="cls-3" d="M102.51,62.62v-23h3.42a1.37,1.37,0,0,1,1.43,1l.36,1.71A13.15,13.15,0,0,1,109,41.06a8.25,8.25,0,0,1,1.43-1,7.81,7.81,0,0,1,1.63-.64,7.34,7.34,0,0,1,1.91-.24,5.46,5.46,0,0,1,3.62,1.18,7.09,7.09,0,0,1,2.12,3.13,7,7,0,0,1,1.36-2,7.45,7.45,0,0,1,1.79-1.34,8.3,8.3,0,0,1,2.07-.76,10.08,10.08,0,0,1,2.21-.25,9.35,9.35,0,0,1,3.42.58,6.56,6.56,0,0,1,2.52,1.71,7.52,7.52,0,0,1,1.55,2.74,11.81,11.81,0,0,1,.53,3.71V62.62h-5.6V48a4.9,4.9,0,0,0-1-3.31,3.6,3.6,0,0,0-2.86-1.11,4.3,4.3,0,0,0-1.6.29,3.81,3.81,0,0,0-1.29.84A3.85,3.85,0,0,0,122,46a5.34,5.34,0,0,0-.32,1.91V62.62H116V48a5,5,0,0,0-.94-3.37,3.5,3.5,0,0,0-2.75-1.06,4.57,4.57,0,0,0-2.28.6,7.59,7.59,0,0,0-2,1.63V62.62Z"/>
        <path class="cls-3" d="M147.32,59.16a6.69,6.69,0,0,0,3-.62,8.82,8.82,0,0,0,2.46-1.87V52.78a31.14,31.14,0,0,0-4.09.42A10.9,10.9,0,0,0,146,54a3.47,3.47,0,0,0-1.43,1.1,2.37,2.37,0,0,0-.43,1.37,2.4,2.4,0,0,0,.87,2.09,3.81,3.81,0,0,0,2.28.63m8.37,3.46a2.59,2.59,0,0,1-1.22-.24,1.63,1.63,0,0,1-.68-1l-.5-1.64a20.06,20.06,0,0,1-1.72,1.38,10.23,10.23,0,0,1-1.75,1,9,9,0,0,1-1.94.61,11.85,11.85,0,0,1-2.28.2,9,9,0,0,1-2.72-.39,6,6,0,0,1-2.15-1.18,5.29,5.29,0,0,1-1.4-2,6.86,6.86,0,0,1-.5-2.72,5.32,5.32,0,0,1,.69-2.57,6.47,6.47,0,0,1,2.3-2.29,14.78,14.78,0,0,1,4.28-1.69,30.68,30.68,0,0,1,6.67-.76V48.07a5,5,0,0,0-1-3.43,3.67,3.67,0,0,0-2.88-1.11,6.92,6.92,0,0,0-2.26.31,9.41,9.41,0,0,0-1.57.71l-1.24.71a2.45,2.45,0,0,1-1.24.31,1.62,1.62,0,0,1-1-.3,2.53,2.53,0,0,1-.66-.71l-1-1.77a13.88,13.88,0,0,1,9.66-3.64,9.54,9.54,0,0,1,3.65.66A7.73,7.73,0,0,1,156,41.66a7.88,7.88,0,0,1,1.69,2.82,10.77,10.77,0,0,1,.58,3.59V62.62Z"/>
        <path class="cls-3" d="M163.48,62.62v-23h3.29a1.82,1.82,0,0,1,1.2.3,1.77,1.77,0,0,1,.45,1.09l.32,2.6a10.2,10.2,0,0,1,2.61-3.24,5.54,5.54,0,0,1,3.54-1.18,4.36,4.36,0,0,1,2.59.7L177.11,44a1.08,1.08,0,0,1-.33.57.92.92,0,0,1-.58.17,6.63,6.63,0,0,1-1-.11,8,8,0,0,0-1.3-.11,4.74,4.74,0,0,0-1.65.27,4.17,4.17,0,0,0-1.3.77,5.31,5.31,0,0,0-1,1.22,12,12,0,0,0-.83,1.64V62.62Z"/>
        <path class="cls-3" d="M188.15,63a6.14,6.14,0,0,1-4.66-1.69,6.5,6.5,0,0,1-1.62-4.68V43.73h-2.38a1.09,1.09,0,0,1-.77-.29,1.13,1.13,0,0,1-.32-.88v-2.2l3.74-.61,1.18-6.29a1.23,1.23,0,0,1,.43-.7,1.29,1.29,0,0,1,.82-.25h2.9v7.25h6.21v4h-6.21V56.22A2.47,2.47,0,0,0,188,57.9a1.84,1.84,0,0,0,1.46.61,2.68,2.68,0,0,0,.87-.12,4.77,4.77,0,0,0,.61-.26l.47-.26a.78.78,0,0,1,.41-.12.65.65,0,0,1,.41.12,1.89,1.89,0,0,1,.34.37l1.68,2.69a8.51,8.51,0,0,1-2.81,1.53,10.54,10.54,0,0,1-3.29.52"/>
        <path class="cls-2" d="M91.38,88.46q.27.59.49,1.21.23-.62.49-1.23t.55-1.18L101.75,71a1.17,1.17,0,0,1,.6-.65,3.15,3.15,0,0,1,.93-.11h3.4v28h-4V79.09c0-.31,0-.65,0-1s0-.73.07-1.11l-9,16.59a1.71,1.71,0,0,1-1.61,1h-.64a1.69,1.69,0,0,1-1.61-1L80.79,76.91q.06.58.1,1.14c0,.37,0,.72,0,1V98.26h-4v-28h3.4a3.15,3.15,0,0,1,.93.11,1.17,1.17,0,0,1,.6.65l9,16.26q.27.56.55,1.16"/>
        <path class="cls-2" d="M119.16,81.16a4.83,4.83,0,0,0-3.57,1.3,6.31,6.31,0,0,0-1.65,3.65h9.85a6.16,6.16,0,0,0-.3-2,4.58,4.58,0,0,0-.88-1.57,4,4,0,0,0-1.45-1,4.93,4.93,0,0,0-2-.38m-.08-3a9.42,9.42,0,0,1,3.38.59,7.43,7.43,0,0,1,2.68,1.74,8,8,0,0,1,1.76,2.81,10.58,10.58,0,0,1,.63,3.78,2.65,2.65,0,0,1-.21,1.3.85.85,0,0,1-.78.33H113.81a9.93,9.93,0,0,0,.53,2.92,6,6,0,0,0,1.19,2,4.63,4.63,0,0,0,1.79,1.21,6.43,6.43,0,0,0,2.32.4,7.07,7.07,0,0,0,2.12-.28,9.94,9.94,0,0,0,1.55-.62q.66-.34,1.13-.62a1.69,1.69,0,0,1,.85-.28.89.89,0,0,1,.78.39l1.18,1.53a7.48,7.48,0,0,1-1.67,1.48,9.7,9.7,0,0,1-2,1,11.31,11.31,0,0,1-2.16.54,14.62,14.62,0,0,1-2.16.16,10.37,10.37,0,0,1-3.82-.69,8.48,8.48,0,0,1-3.05-2,9.36,9.36,0,0,1-2-3.32,13.18,13.18,0,0,1-.73-4.57,11.17,11.17,0,0,1,.65-3.85A9.17,9.17,0,0,1,112.19,81a8.74,8.74,0,0,1,3-2.09,9.66,9.66,0,0,1,3.93-.77"/>
        <path class="cls-2" d="M138.12,81.69q-.19,2.74-.51,4.89a38.58,38.58,0,0,1-.73,3.81,20,20,0,0,1-.92,2.85,12.21,12.21,0,0,1-1.05,2h8.76V81.69Zm9.6-3.24V95.11h3.63v8.61a1.25,1.25,0,0,1-.34.92,1.17,1.17,0,0,1-.87.34h-2.58V98.26H131.88v5.54a1.32,1.32,0,0,1-.28.82,1,1,0,0,1-.86.37h-2.64V95.25h.8a4,4,0,0,0,1.3-.26,3.18,3.18,0,0,0,1.22-.89,7.14,7.14,0,0,0,1.11-1.81,16.24,16.24,0,0,0,1-3,42.34,42.34,0,0,0,.74-4.52q.31-2.66.51-6.31Z"/>
        <path class="cls-2" d="M153.43,98.28V78.44h4.18V90.86c0,.29,0,.59,0,.92s-.07.66-.13,1a8.47,8.47,0,0,1,.8-1.48l.41-.56,1-1.36L161,87.49l1.56-2.17,4.26-5.83a2.89,2.89,0,0,1,.62-.72,1.32,1.32,0,0,1,.87-.33h2.53V98.26h-4.18V85.85c0-.26,0-.55,0-.87s.07-.65.12-1c-.13.28-.26.55-.39.79a6.2,6.2,0,0,1-.39.63l-.42.57-1,1.37-1.39,1.89-1.57,2.17-4.24,5.83a3.27,3.27,0,0,1-.62.71,1.29,1.29,0,0,1-.87.34Z"/>
        <path class="cls-2" d="M174.78,78.44H179V95.11h8.57V78.44h4.16V95.11h3.63v8.61a1.27,1.27,0,0,1-.33.92,1.14,1.14,0,0,1-.85.34h-2.58V98.26H174.78Z"/>
        <path class="cls-2" d="M197.39,98.28V78.44h4.18V90.86c0,.29,0,.59,0,.92s-.08.66-.13,1a8.47,8.47,0,0,1,.8-1.48l.41-.56,1-1.36L205,87.49l1.56-2.17,4.26-5.83a2.89,2.89,0,0,1,.62-.72,1.32,1.32,0,0,1,.87-.33h2.53V98.26h-4.18V85.85c0-.26,0-.55,0-.87s.07-.65.12-1c-.13.28-.26.55-.39.79a6.2,6.2,0,0,1-.39.63l-.42.57-1,1.37-1.39,1.89-1.57,2.17-4.24,5.83a3.27,3.27,0,0,1-.62.71,1.29,1.29,0,0,1-.87.34Z"/>
        <polygon class="cls-2" points="235.65 78.44 235.65 98.26 231.49 98.26 231.49 89.27 222.92 89.27 222.92 98.26 218.74 98.26 218.74 78.44 222.92 78.44 222.92 86.12 231.49 86.12 231.49 78.44 235.65 78.44"/>
        <path class="cls-2" d="M245.09,95.66a6,6,0,0,0,2.81-.61,9,9,0,0,0,2.28-1.76V89.6a29.49,29.49,0,0,0-3.77.37,10.13,10.13,0,0,0-2.49.72,3.39,3.39,0,0,0-1.37,1,2.22,2.22,0,0,0-.42,1.31,2.87,2.87,0,0,0,.22,1.19A2.16,2.16,0,0,0,243,95a2.52,2.52,0,0,0,.93.47,4.46,4.46,0,0,0,1.18.14m7.29,2.6a1.81,1.81,0,0,1-.91-.18,1.41,1.41,0,0,1-.52-.75l-.41-1.61a15.27,15.27,0,0,1-1.5,1.22,9.85,9.85,0,0,1-1.53.89,7.51,7.51,0,0,1-1.69.55,10,10,0,0,1-2,.18,7.41,7.41,0,0,1-2.24-.33,4.92,4.92,0,0,1-1.8-1,4.74,4.74,0,0,1-1.2-1.66,5.74,5.74,0,0,1-.44-2.33,4.5,4.5,0,0,1,.61-2.23,5.58,5.58,0,0,1,2-2,13.11,13.11,0,0,1,3.71-1.43,27,27,0,0,1,5.68-.64V85.67a4.75,4.75,0,0,0-.91-3.19,3.37,3.37,0,0,0-2.68-1,5.87,5.87,0,0,0-2,.3,9.15,9.15,0,0,0-1.42.65c-.4.23-.76.45-1.07.65a1.8,1.8,0,0,1-1,.3,1.19,1.19,0,0,1-.73-.22,1.84,1.84,0,0,1-.5-.55l-.76-1.36a11.35,11.35,0,0,1,8-3.13,7.86,7.86,0,0,1,3,.55,6.08,6.08,0,0,1,2.23,1.57,6.91,6.91,0,0,1,1.38,2.4,9.44,9.44,0,0,1,.48,3.08V98.26Z"/>
        <g>
          <g>
            <path class="cls-5" d="M78.62,123.15a.85.85,0,0,0,.26-.11,1.08,1.08,0,0,0,.24-.21,1.37,1.37,0,0,0,.21-.33l.39-.8-3.17-5.59h1a.34.34,0,0,1,.23.07.63.63,0,0,1,.14.18l1.95,3.58a4.92,4.92,0,0,1,.33.79,4,4,0,0,1,.13-.4c.05-.13.11-.27.17-.4l1.66-3.58a.51.51,0,0,1,.14-.17.34.34,0,0,1,.23-.08h.88L80.19,123a2.41,2.41,0,0,1-.32.54,1.51,1.51,0,0,1-.37.34,1.36,1.36,0,0,1-.43.18,2.21,2.21,0,0,1-.49.05,1.52,1.52,0,0,1-.46-.05c-.11,0-.16-.09-.16-.16v-.68h.39a1.29,1.29,0,0,0,.27,0"/>
            <path class="cls-5" d="M88.41,121.42l.12.29.12-.29c0-.1.08-.19.13-.28l2.67-4.85a.3.3,0,0,1,.15-.15.7.7,0,0,1,.22,0h.79V124h-.94V118.2c0-.08,0-.16,0-.25s0-.18,0-.27L89,122.61a.41.41,0,0,1-.39.25h-.15a.41.41,0,0,1-.39-.25l-2.76-4.95c0,.1,0,.19,0,.28s0,.18,0,.25V124H84.4v-7.88h.79a.67.67,0,0,1,.22,0,.32.32,0,0,1,.15.15l2.72,4.85.13.28"/>
          </g>
          <polygon class="cls-5" points="101.01 123.99 99.94 123.99 99.94 120.41 95.69 120.41 95.69 123.99 94.62 123.99 94.62 116.11 95.69 116.11 95.69 119.62 99.94 119.62 99.94 116.11 101.01 116.11 101.01 123.99"/>
          <path class="cls-5" d="M110.9,124h-1.07v-7.88h1.07Zm-6.82-3.64v2.79h1.53a2.64,2.64,0,0,0,.78-.1,1.46,1.46,0,0,0,.53-.29,1.1,1.1,0,0,0,.3-.45,1.81,1.81,0,0,0,0-1.16,1.08,1.08,0,0,0-.3-.43,1.36,1.36,0,0,0-.53-.27,2.92,2.92,0,0,0-.78-.09Zm0-4.24v3.39h1.54a4.39,4.39,0,0,1,1.24.16,2.42,2.42,0,0,1,.86.44,1.75,1.75,0,0,1,.5.67,2.2,2.2,0,0,1,.16.85,2.52,2.52,0,0,1-.18,1,2,2,0,0,1-.54.75,2.45,2.45,0,0,1-.87.47,3.85,3.85,0,0,1-1.18.16H103v-7.88Z"/>
          <polygon class="cls-5" points="117.78 116.11 117.78 116.98 113.98 116.98 113.98 119.6 117.06 119.6 117.06 120.43 113.98 120.43 113.98 123.12 117.78 123.12 117.78 123.99 112.92 123.99 112.92 116.11 117.78 116.11"/>
          <path class="cls-5" d="M123.15,120.2h1.27a2.45,2.45,0,0,0,.81-.12,1.67,1.67,0,0,0,.59-.34,1.38,1.38,0,0,0,.36-.52,1.77,1.77,0,0,0,.12-.67,1.51,1.51,0,0,0-.47-1.18,2,2,0,0,0-1.41-.42h-1.27Zm0,.85V124h-1.06v-7.88h2.33a4.37,4.37,0,0,1,1.3.17,2.51,2.51,0,0,1,.92.49,2,2,0,0,1,.54.77,2.74,2.74,0,0,1,.18,1,2.56,2.56,0,0,1-.19,1,2.18,2.18,0,0,1-.56.79,2.63,2.63,0,0,1-.92.51,4,4,0,0,1-1.26.18Z"/>
          <polygon class="cls-5" points="133.56 116.11 133.56 116.98 129.76 116.98 129.76 119.6 132.83 119.6 132.83 120.43 129.76 120.43 129.76 123.12 133.56 123.12 133.56 123.99 128.7 123.99 128.7 116.11 133.56 116.11"/>
          <polygon class="cls-5" points="144.88 123.99 135.05 123.99 135.05 116.11 136.12 116.11 136.12 123.16 139.42 123.16 139.42 116.11 140.49 116.11 140.49 123.16 143.81 123.16 143.81 116.11 144.88 116.11 144.88 123.99"/>
          <polygon class="cls-5" points="151.75 116.11 151.75 116.98 147.96 116.98 147.96 119.6 151.03 119.6 151.03 120.43 147.96 120.43 147.96 123.12 151.76 123.12 151.75 123.99 146.9 123.99 146.9 116.11 151.75 116.11"/>
          <polygon class="cls-5" points="159.64 123.99 158.57 123.99 158.57 120.41 154.32 120.41 154.32 123.99 153.25 123.99 153.25 116.11 154.32 116.11 154.32 119.62 158.57 119.62 158.57 116.11 159.64 116.11 159.64 123.99"/>
          <g>
            <path class="cls-5" d="M166.77,116.44a1,1,0,0,1,.2-.23.41.41,0,0,1,.28-.1H168V124H167v-5.6c0-.15,0-.32,0-.49s0-.35.05-.54a4.63,4.63,0,0,1-.2.46,4.21,4.21,0,0,1-.21.37l-3.7,5.46a1,1,0,0,1-.2.23.42.42,0,0,1-.28.1h-.79v-7.88h1.07v5.61c0,.16,0,.32,0,.49s0,.35,0,.55a4.56,4.56,0,0,1,.2-.47q.11-.21.21-.38Z"/>
            <path class="cls-5" d="M171,118.35a1.72,1.72,0,0,0,.1.59,1.07,1.07,0,0,0,.3.44,1.38,1.38,0,0,0,.53.28,2.79,2.79,0,0,0,.78.1h1.56V117h-1.56a2.7,2.7,0,0,0-.78.1,1.41,1.41,0,0,0-.53.28,1.08,1.08,0,0,0-.31.44,1.62,1.62,0,0,0-.1.57m3.28,5.64V120.6h-1.13l-.26,0a.85.85,0,0,0-.24.09,1.06,1.06,0,0,0-.23.18,2.25,2.25,0,0,0-.23.28l-1.71,2.43a.75.75,0,0,1-.27.28.77.77,0,0,1-.4.1H169l2-2.88a1.9,1.9,0,0,1,.78-.69,2.85,2.85,0,0,1-.82-.28,2,2,0,0,1-.59-.45,1.8,1.8,0,0,1-.35-.61,2.3,2.3,0,0,1-.11-.74,2.24,2.24,0,0,1,.18-.92,1.93,1.93,0,0,1,.54-.71,2.52,2.52,0,0,1,.87-.46,3.9,3.9,0,0,1,1.17-.16h2.62V124Z"/>
            <path class="cls-5" d="M181.25,120.4v2.75H183a2.62,2.62,0,0,0,.79-.1,1.45,1.45,0,0,0,.54-.29,1.15,1.15,0,0,0,.31-.45,1.6,1.6,0,0,0,.1-.57,1.18,1.18,0,0,0-.43-1,2,2,0,0,0-1.3-.36Zm0-.76h1.41a2.76,2.76,0,0,0,.78-.1,1.58,1.58,0,0,0,.55-.28,1.09,1.09,0,0,0,.32-.43,1.41,1.41,0,0,0,.1-.55,1.21,1.21,0,0,0-.42-1,2.13,2.13,0,0,0-1.3-.32h-1.45ZM180.19,124v-7.88h2.51a4.82,4.82,0,0,1,1.25.14,2.42,2.42,0,0,1,.86.41,1.59,1.59,0,0,1,.5.65,2.22,2.22,0,0,1,.16.86,1.73,1.73,0,0,1-.09.56,1.71,1.71,0,0,1-.27.5,1.91,1.91,0,0,1-.46.41,2.55,2.55,0,0,1-.65.3,2.43,2.43,0,0,1,1.3.62,1.63,1.63,0,0,1,.44,1.19,2.22,2.22,0,0,1-.18.91,2,2,0,0,1-.54.71,2.53,2.53,0,0,1-.87.46A3.93,3.93,0,0,1,183,124Z"/>
            <path class="cls-5" d="M194.12,121.42l.12.29.12-.29c0-.1.08-.19.13-.28l2.67-4.85a.3.3,0,0,1,.14-.15.7.7,0,0,1,.22,0h.79V124h-.94V118.2c0-.08,0-.16,0-.25s0-.18,0-.27l-2.7,4.93a.41.41,0,0,1-.39.25h-.15a.41.41,0,0,1-.39-.25L191,117.67c0,.1,0,.19,0,.28s0,.18,0,.25V124h-.94v-7.88h.79a.67.67,0,0,1,.22,0,.32.32,0,0,1,.15.15l2.72,4.85c0,.09.09.18.13.28"/>
          </g>
          <polygon class="cls-5" points="205.19 116.11 205.19 116.98 201.4 116.98 201.4 119.6 204.47 119.6 204.47 120.43 201.4 120.43 201.4 123.12 205.2 123.12 205.19 123.99 200.33 123.99 200.33 116.11 205.19 116.11"/>
          <g>
            <path class="cls-5" d="M209.1,117c0,.9-.11,1.69-.19,2.37s-.18,1.27-.29,1.76a8,8,0,0,1-.37,1.25,3.91,3.91,0,0,1-.43.82h3.89V117Zm3.68-.84v7h1.29v2.44a.3.3,0,0,1-.09.23.35.35,0,0,1-.25.09h-.63V124h-6.35v1.6a.3.3,0,0,1-.1.23.35.35,0,0,1-.25.09h-.64v-2.76h.8a1.16,1.16,0,0,0,.34-.27,2,2,0,0,0,.33-.53,5.63,5.63,0,0,0,.29-.87,11.91,11.91,0,0,0,.25-1.28q.11-.76.19-1.77t.13-2.34Z"/>
            <path class="cls-5" d="M220.45,116.44a1,1,0,0,1,.2-.23.41.41,0,0,1,.28-.1h.79V124h-1.07v-5.6c0-.15,0-.32,0-.49s0-.35.05-.54a4.63,4.63,0,0,1-.2.46,4.21,4.21,0,0,1-.21.37l-3.7,5.46a1,1,0,0,1-.2.23.42.42,0,0,1-.28.1h-.79v-7.88h1.07v5.61c0,.16,0,.32,0,.49s0,.35,0,.55a4.56,4.56,0,0,1,.2-.47q.11-.21.21-.38Z"/>
            <path class="cls-5" d="M223.74,124v-7.88h1.07v7h3.94v-7h1.07v7H231v2.44a.3.3,0,0,1-.1.23.34.34,0,0,1-.24.09H230V124Z"/>
            <path class="cls-5" d="M237.44,116.44a1,1,0,0,1,.2-.23.41.41,0,0,1,.28-.1h.79V124h-1.07v-5.6c0-.15,0-.32,0-.49s0-.35.05-.54a4.63,4.63,0,0,1-.2.46,4.21,4.21,0,0,1-.21.37l-3.7,5.46a1,1,0,0,1-.2.23.42.42,0,0,1-.28.1h-.79v-7.88h1.07v5.61c0,.16,0,.32,0,.49s0,.35,0,.55a4.56,4.56,0,0,1,.2-.47q.11-.21.21-.38Z"/>
          </g>
          <polygon class="cls-5" points="247.11 123.99 246.04 123.99 246.04 120.41 241.79 120.41 241.79 123.99 240.72 123.99 240.72 116.11 241.79 116.11 241.79 119.62 246.04 119.62 246.04 116.11 247.11 116.11 247.11 123.99"/>
          <polygon class="cls-5" points="249.12 116.11 249.12 123.99 253.98 123.99 253.99 123.12 250.19 123.12 250.19 120.43 253.26 120.43 253.26 119.6 250.19 119.6 250.19 116.98 253.98 116.98 253.98 116.11 249.12 116.11"/>
        </g>
      </g>
    </g>
  </g>
</svg>
