<svg xmlns="http://www.w3.org/2000/svg" width="500.03" height="147.18">
  <defs>
    <style>
      .cls-1{fill:#57a5d1}.cls-2{fill:#13546f}
    </style>
  </defs>
  <g id="Слой_2" data-name="Слой 2">
    <g id="Слой_1-2" data-name="Слой 1">
      <path class="cls-1" d="M52 97.92L39 75.4H27.44v.11a232.32 232.32 0 0 0-2 33.88q.1 5.58.54 11.06H39zM15.19 109.8a242.35 242.35 0 0 1 .48-34.41H13L0 97.92l13 22.52h3.15q-.63-5.28-.96-10.64zM58 1.82h-.11.07zm-.15-.03zM82.58 0h-8.22a44.84 44.84 0 0 1 2.88 7.41 79.34 79.34 0 0 1 2.7 14.35A159.41 159.41 0 0 1 80.32 45h2.25l13-22.52zM65.54 11.78a39.53 39.53 0 0 0-3-5.38 15.36 15.36 0 0 0-3.37-3.83 4.3 4.3 0 0 0-1.27-.75h-.27l-.49-.07h-.17a3.71 3.71 0 0 0-1.75.67l-11.66 20.1L56.57 45h18A145.52 145.52 0 0 0 70 23.71a85.48 85.48 0 0 0-4.46-11.93z"/>
      <path class="cls-2" d="M72.75 100.07H58.16l-13 22.52L57 143.06c1.33-2.22 2.56-4.47 3.67-6.71a139 139 0 0 0 8.55-22c1.53-5.25 2.68-10.05 3.53-14.28zm11.42 0H74.06c-.75 4.33-1.65 9.3-2.89 14.8a178.26 178.26 0 0 1-6.57 23.19c-.88 2.32-1.84 4.68-2.93 7.06h22.5l13-22.52z"/>
      <path d="M44.36 72.56l13 22.52h16.3c.74-4.32 1.15-7.8 1.43-10.23l.17-1.63a7.4 7.4 0 0 1 .86-14.53v-4a144.21 144.21 0 0 0-.9-14.69H57.36zM83.37 50h-3.32c-.36 5.65-.87 10.62-1.25 14.82-.13 1.38-.27 2.66-.4 3.87a7.43 7.43 0 0 1-1.34 14.73h-.43l-.2 1.58c-.36 2.41-.82 5.82-1.51 10.07h8.46l13-22.52z" fill="#417e9e"/>
      <path class="cls-2" d="M134 85.95a2.69 2.69 0 0 1-.75.89 1.67 1.67 0 0 1-1 .28 2.56 2.56 0 0 1-1.34-.45q-.72-.45-1.72-1a14.21 14.21 0 0 0-2.34-1 9.93 9.93 0 0 0-3.17-.45 9.5 9.5 0 0 0-2.88.39 6.05 6.05 0 0 0-2.08 1.09 4.37 4.37 0 0 0-1.25 1.68 5.47 5.47 0 0 0-.41 2.14A3.7 3.7 0 0 0 118 92a7 7 0 0 0 2.22 1.69 20.89 20.89 0 0 0 3.15 1.25q1.77.55 3.62 1.18a34.54 34.54 0 0 1 3.62 1.46 12.5 12.5 0 0 1 3.15 2.1 9.53 9.53 0 0 1 2.22 3.11 10.73 10.73 0 0 1 .84 4.46 14.4 14.4 0 0 1-1 5.35 12.33 12.33 0 0 1-2.88 4.35 13.61 13.61 0 0 1-4.64 2.92 17.2 17.2 0 0 1-6.27 1.06 20.42 20.42 0 0 1-4-.39 21.21 21.21 0 0 1-3.78-1.12 20.33 20.33 0 0 1-3.4-1.75 16.36 16.36 0 0 1-2.83-2.27l2.33-3.76a2.47 2.47 0 0 1 .76-.69 2 2 0 0 1 1-.28 2.83 2.83 0 0 1 1.59.6q.85.6 2 1.33a16 16 0 0 0 2.75 1.33 10.67 10.67 0 0 0 3.78.6 7.82 7.82 0 0 0 5.24-1.59 5.68 5.68 0 0 0 1.85-4.56 4.21 4.21 0 0 0-.84-2.71 6.77 6.77 0 0 0-2.22-1.76 16.83 16.83 0 0 0-3.15-1.21q-1.77-.5-3.59-1.08a31.13 31.13 0 0 1-3.59-1.4 11.61 11.61 0 0 1-3.14-2.22 9.65 9.65 0 0 1-2.22-3.28 12.39 12.39 0 0 1-.84-4.86 11.4 11.4 0 0 1 .93-4.49 11.6 11.6 0 0 1 2.69-3.88 13.25 13.25 0 0 1 4.36-2.71 16.14 16.14 0 0 1 5.95-1A20 20 0 0 1 130.6 79a15.72 15.72 0 0 1 5.4 3.24zm8 34.5V90.53h4.44a1.78 1.78 0 0 1 1.85 1.31l.47 2.22a17.19 17.19 0 0 1 1.66-1.6 10.65 10.65 0 0 1 1.85-1.25 10.13 10.13 0 0 1 2.12-.83 9.53 9.53 0 0 1 2.49-.31 7.09 7.09 0 0 1 4.69 1.53 9.2 9.2 0 0 1 2.75 4.07 9.16 9.16 0 0 1 1.77-2.55 9.65 9.65 0 0 1 2.33-1.74 10.73 10.73 0 0 1 2.69-1 13.06 13.06 0 0 1 2.87-.32 12.17 12.17 0 0 1 4.44.76 8.56 8.56 0 0 1 3.26 2.18 9.76 9.76 0 0 1 2 3.56 15.36 15.36 0 0 1 .69 4.81v19h-7.27v-19a6.36 6.36 0 0 0-1.27-4.3 4.67 4.67 0 0 0-3.71-1.44 5.6 5.6 0 0 0-2.08.38 4.84 4.84 0 0 0-2.81 2.89 6.92 6.92 0 0 0-.41 2.48v19h-7.3v-19a6.47 6.47 0 0 0-1.2-4.38 4.55 4.55 0 0 0-3.58-1.37 5.92 5.92 0 0 0-3 .77 9.85 9.85 0 0 0-2.55 2.11v21.9zm69 0a3.36 3.36 0 0 1-1.59-.31 2.12 2.12 0 0 1-.88-1.24l-.65-2.13a26.3 26.3 0 0 1-2.24 1.79 13.2 13.2 0 0 1-2.27 1.3 11.69 11.69 0 0 1-2.52.79 15.44 15.44 0 0 1-3 .26 11.69 11.69 0 0 1-3.53-.51 7.77 7.77 0 0 1-2.8-1.53 6.88 6.88 0 0 1-1.83-2.54 8.93 8.93 0 0 1-.65-3.53 6.91 6.91 0 0 1 .9-3.34 8.4 8.4 0 0 1 3-3 19.21 19.21 0 0 1 5.56-2.2 39.86 39.86 0 0 1 8.65-1v-1.75a6.51 6.51 0 0 0-1.29-4.45 4.76 4.76 0 0 0-3.74-1.44 9 9 0 0 0-2.93.41 12.1 12.1 0 0 0-2 .92l-1.61.92a3.19 3.19 0 0 1-1.61.41 2.11 2.11 0 0 1-1.29-.39 3.3 3.3 0 0 1-.85-.92l-1.29-2.3A18 18 0 0 1 203.11 90a12.36 12.36 0 0 1 4.74.86 10 10 0 0 1 3.53 2.39 10.23 10.23 0 0 1 2.19 3.66 13.94 13.94 0 0 1 .75 4.67v18.9zM200.17 116a8.69 8.69 0 0 0 3.87-.8 11.44 11.44 0 0 0 3.19-2.44v-5a40.28 40.28 0 0 0-5.31.54 14.25 14.25 0 0 0-3.43 1 4.53 4.53 0 0 0-1.85 1.43 3.51 3.51 0 0 0 .57 4.49 4.94 4.94 0 0 0 2.96.78zm20.99 4.45V90.53h4.27a2.37 2.37 0 0 1 1.56.39 2.31 2.31 0 0 1 .59 1.41l.41 3.38a13.25 13.25 0 0 1 3.39-4.21A7.2 7.2 0 0 1 236 90a5.66 5.66 0 0 1 3.36.9l-.47 5.39a1.41 1.41 0 0 1-.43.74 1.2 1.2 0 0 1-.75.22 8.63 8.63 0 0 1-1.31-.15 10.31 10.31 0 0 0-1.69-.15 6.12 6.12 0 0 0-2.15.35 5.43 5.43 0 0 0-1.69 1 6.84 6.84 0 0 0-1.32 1.59 15.3 15.3 0 0 0-1.07 2.13v18.43zm32.03.46a8 8 0 0 1-6-2.2 8.44 8.44 0 0 1-2.11-6.08V95.92h-3.09a1.43 1.43 0 0 1-1-.38 1.47 1.47 0 0 1-.41-1.14v-2.85l4.86-.79 1.53-8.17a1.6 1.6 0 0 1 .56-.9 1.68 1.68 0 0 1 1.06-.32h3.77v9.42h8.07v5.13h-8.13v16.21a3.2 3.2 0 0 0 .69 2.19 2.4 2.4 0 0 0 1.9.79 3.45 3.45 0 0 0 1.13-.16 6.24 6.24 0 0 0 .8-.34l.6-.34a1 1 0 0 1 .53-.16.84.84 0 0 1 .53.16 2.46 2.46 0 0 1 .44.48l2.18 3.5a11 11 0 0 1-3.65 2 13.7 13.7 0 0 1-4.26.66z"/>
      <path d="M271.09 143.57a1.11 1.11 0 0 0 .34-.14 1.34 1.34 0 0 0 .32-.27 1.78 1.78 0 0 0 .28-.43l.5-1-4.14-7.31h1.3a.44.44 0 0 1 .29.09.78.78 0 0 1 .19.23l2.54 4.67a6.43 6.43 0 0 1 .43 1c0-.17.11-.35.17-.52s.14-.35.22-.52l2.16-4.67a.67.67 0 0 1 .18-.22.45.45 0 0 1 .3-.1h1.15l-4.18 8.95a3.25 3.25 0 0 1-.42.7 2 2 0 0 1-.48.44 1.75 1.75 0 0 1-.56.23 2.94 2.94 0 0 1-.65.07 2 2 0 0 1-.6-.07c-.14 0-.21-.11-.21-.2v-.88h.5a1.68 1.68 0 0 0 .37-.05zm12.77-2.25l.16.38.15-.38a3.46 3.46 0 0 1 .17-.36l3.49-6.33a.39.39 0 0 1 .19-.2.91.91 0 0 1 .29 0h1v10.29h-1.22v-8.23l-3.53 6.44a.53.53 0 0 1-.5.32h-.2a.54.54 0 0 1-.5-.32l-3.61-6.46v8.26h-1.22v-10.35h1a.87.87 0 0 1 .29 0 .42.42 0 0 1 .2.2l3.68 6.42zm16.45 3.36h-1.39V140h-5.55v4.68H292v-10.3h1.4V139h5.55v-4.59h1.39zm4.02-10.3v4.43h2a5.65 5.65 0 0 1 1.67.19 3.11 3.11 0 0 1 1.12.57 2.27 2.27 0 0 1 .65.88 2.9 2.9 0 0 1 .21 1.11 3.24 3.24 0 0 1-.24 1.28 2.6 2.6 0 0 1-.7 1 3.21 3.21 0 0 1-1.14.62 5.07 5.07 0 0 1-1.54.22h-3.38v-10.3zm0 5.54v3.65h2a3.4 3.4 0 0 0 1-.14 1.87 1.87 0 0 0 .7-.38 1.41 1.41 0 0 0 .4-.58 2.34 2.34 0 0 0 0-1.52 1.37 1.37 0 0 0-.4-.57 1.76 1.76 0 0 0-.69-.35 3.82 3.82 0 0 0-1-.12zm8.9 4.75h-1.39v-10.29h1.39zm8.97-10.29v1.14h-4.95v3.42h4V140h-4v3.51h5v1.14h-6.34v-10.27zm7.02 6.45v3.85h-1.38v-10.3h3a5.71 5.71 0 0 1 1.7.23 3.29 3.29 0 0 1 1.2.64 2.61 2.61 0 0 1 .71 1 3.52 3.52 0 0 1 .23 1.31 3.38 3.38 0 0 1-.25 1.31 2.87 2.87 0 0 1-.74 1 3.42 3.42 0 0 1-1.2.67 5.18 5.18 0 0 1-1.65.24zm0-1.1h1.65a3.18 3.18 0 0 0 1.05-.16 2.19 2.19 0 0 0 .77-.44 1.82 1.82 0 0 0 .47-.68 2.32 2.32 0 0 0 .16-.87 2 2 0 0 0-.61-1.54 2.66 2.66 0 0 0-1.84-.55h-1.65zm13.58-5.35v1.14h-4.95v3.42h4V140h-4v3.51h5v1.14h-6.34v-10.27zm14.79 10.3h-12.83v-10.3h1.39v9.2h4.31v-9.2h1.39v9.2h4.34v-9.2h1.4zm8.97-10.3v1.14h-4.95v3.42h4V140h-4v3.51h5v1.14h-6.34v-10.27zm10.3 10.3h-1.39V140h-5.55v4.68h-1.39v-10.3h1.39V139h5.55v-4.59h1.39zm9.3-9.86a1.34 1.34 0 0 1 .26-.3.55.55 0 0 1 .37-.14h1v10.29h-1.39V136.72c0-.23 0-.46.06-.71a6 6 0 0 1-.26.6 4.76 4.76 0 0 1-.28.48l-4.83 7.13a1.29 1.29 0 0 1-.26.3.55.55 0 0 1-.37.14h-1v-10.28h1.39v7.96c0 .22 0 .46-.06.71a6 6 0 0 1 .26-.61c.09-.18.19-.35.28-.5zm9.84 9.86v-4.43h-1.48a1.75 1.75 0 0 0-.34 0 1.13 1.13 0 0 0-.31.12 1.4 1.4 0 0 0-.3.23 2.85 2.85 0 0 0-.3.36l-2.27 3.22a1 1 0 0 1-.35.36 1 1 0 0 1-.52.13h-1l2.66-3.76a2.49 2.49 0 0 1 1-.9 3.71 3.71 0 0 1-1.08-.36 2.65 2.65 0 0 1-.77-.59 2.33 2.33 0 0 1-.46-.79 2.93 2.93 0 0 1-.15-1 2.88 2.88 0 0 1 .24-1.2 2.49 2.49 0 0 1 .7-.92 3.35 3.35 0 0 1 1.13-.6 5.11 5.11 0 0 1 1.54-.21h3.43v10.29zm-4.28-7.37a2.26 2.26 0 0 0 .12.77 1.39 1.39 0 0 0 .4.58 1.82 1.82 0 0 0 .7.36 3.69 3.69 0 0 0 1 .12h2v-3.66h-2a3.5 3.5 0 0 0-1 .13 1.85 1.85 0 0 0-.7.37 1.41 1.41 0 0 0-.4.58 2.11 2.11 0 0 0-.13.75zm11.96 7.37v-10.3H407a6.29 6.29 0 0 1 1.63.19 3.16 3.16 0 0 1 1.13.53 2.08 2.08 0 0 1 .65.84 2.89 2.89 0 0 1 .21 1.12 2.28 2.28 0 0 1-.12.73 2.24 2.24 0 0 1-.35.65 2.52 2.52 0 0 1-.6.54 3.38 3.38 0 0 1-.85.39 3.17 3.17 0 0 1 1.7.81 2.13 2.13 0 0 1 .58 1.55 2.89 2.89 0 0 1-.24 1.19 2.56 2.56 0 0 1-.71.93 3.26 3.26 0 0 1-1.14.6 5.13 5.13 0 0 1-1.54.21zm1.39-5.68h1.84a3.68 3.68 0 0 0 1-.13 2.08 2.08 0 0 0 .72-.36 1.4 1.4 0 0 0 .42-.56 1.81 1.81 0 0 0 .14-.71 1.58 1.58 0 0 0-.55-1.33 2.78 2.78 0 0 0-1.7-.42h-1.9zm0 1v3.58h2.23a3.44 3.44 0 0 0 1-.14 1.88 1.88 0 0 0 .7-.44 1.48 1.48 0 0 0 .41-.59 2.13 2.13 0 0 0 .13-.75 1.54 1.54 0 0 0-.57-1.26 2.66 2.66 0 0 0-1.7-.46zm16.8 1.32l.16.38.15-.38a3.41 3.41 0 0 1 .17-.36l3.49-6.33a.39.39 0 0 1 .19-.2.9.9 0 0 1 .29 0h1v10.29h-1.22v-8.23l-3.53 6.44a.53.53 0 0 1-.5.32h-.2a.54.54 0 0 1-.5-.32l-3.61-6.46v8.26h-1.22v-10.35h1a.87.87 0 0 1 .29 0 .42.42 0 0 1 .2.2l3.55 6.33zm14.46-6.94v1.14h-4.95v3.42h4V140h-4v3.51h5v1.14H430v-10.27zm9.9 0v9.2h1.68v3.18a.39.39 0 0 1-.12.3.45.45 0 0 1-.32.12h-.83v-2.51h-8.3v2.09a.39.39 0 0 1-.12.3.46.46 0 0 1-.32.12h-.83v-3.6h1a1.51 1.51 0 0 0 .45-.35 2.6 2.6 0 0 0 .43-.69 7 7 0 0 0 .38-1.13 16.16 16.16 0 0 0 .33-1.67q.15-1 .26-2.31c.07-.88.12-1.9.16-3.05zm-4.8 1.1c-.06 1.18-.14 2.21-.25 3.09s-.23 1.65-.38 2.3a10.68 10.68 0 0 1-.48 1.63 5.07 5.07 0 0 1-.57 1.07h5.08v-8.1zm14.82-.66a1.34 1.34 0 0 1 .26-.3.54.54 0 0 1 .37-.14h1v10.29h-1.4V136.72c0-.23 0-.46.06-.71a5.61 5.61 0 0 1-.26.6 5.16 5.16 0 0 1-.28.48l-4.83 7.13a1.35 1.35 0 0 1-.26.3.54.54 0 0 1-.37.14h-1v-10.28H451v7.96c0 .22 0 .46-.07.71a6 6 0 0 1 .26-.61c.09-.18.18-.35.28-.5zm4.29 9.86v-10.3h1.39v9.2h5.14v-9.2h1.4v9.2H470v3.18a.39.39 0 0 1-.12.3.45.45 0 0 1-.32.12h-.83v-2.51zm17.88-9.86a1.34 1.34 0 0 1 .26-.3.55.55 0 0 1 .37-.14h1v10.29h-1.39V136.72c0-.23 0-.46.06-.71a5.61 5.61 0 0 1-.26.6 4.42 4.42 0 0 1-.28.48l-4.83 7.13a1.28 1.28 0 0 1-.26.3.55.55 0 0 1-.37.14h-1v-10.28h1.39v7.96c0 .22 0 .46-.06.71a5.92 5.92 0 0 1 .26-.61c.09-.18.19-.35.28-.5zm12.58 9.86h-1.39V140h-5.51v4.68h-1.39v-10.3h1.39V139h5.55v-4.59H491zm9-10.3v1.14h-4.95v3.42h4V140h-4v3.51h5v1.14h-6.34v-10.27z" fill="#0e465c"/>
      <path class="cls-1" d="M287.91 107.17q.35.77.63 1.58.3-.81.64-1.6t.72-1.53l11.48-21.07a1.52 1.52 0 0 1 .78-.85 4.12 4.12 0 0 1 1.21-.14h4.42v36.34h-5.2V93.69q0-.7.09-1.44l-11.66 21.55a2.22 2.22 0 0 1-2.09 1.34h-.83a2.19 2.19 0 0 1-2.09-1.34l-11.85-21.63q.08.76.13 1.48t.05 1.35v24.9h-5.2V83.57h4.42a4.12 4.12 0 0 1 1.21.14 1.52 1.52 0 0 1 .78.85l11.66 21.12q.35.72.7 1.49zm35.98-13.41a12.24 12.24 0 0 1 4.39.77 9.65 9.65 0 0 1 3.48 2.26 10.39 10.39 0 0 1 2.28 3.65 13.75 13.75 0 0 1 .82 4.91 3.47 3.47 0 0 1-.28 1.69 1.11 1.11 0 0 1-1 .43h-16.53a12.92 12.92 0 0 0 .68 3.8 7.82 7.82 0 0 0 1.55 2.66 6 6 0 0 0 2.32 1.58 8.36 8.36 0 0 0 3 .52 9.17 9.17 0 0 0 2.75-.37 12.91 12.91 0 0 0 2-.81q.86-.44 1.46-.81a2.18 2.18 0 0 1 1.11-.37 1.16 1.16 0 0 1 1 .5l1.54 2a9.78 9.78 0 0 1-2.17 1.92 12.59 12.59 0 0 1-2.57 1.27 14.55 14.55 0 0 1-2.8.71 19 19 0 0 1-2.8.21 13.47 13.47 0 0 1-5-.9 11 11 0 0 1-4-2.64 12.17 12.17 0 0 1-2.62-4.31 17.13 17.13 0 0 1-.95-5.93 14.48 14.48 0 0 1 .85-5 11.92 11.92 0 0 1 2.42-4 11.37 11.37 0 0 1 3.84-2.71 12.53 12.53 0 0 1 5.23-1.03zm.1 3.94a6.27 6.27 0 0 0-4.64 1.69 8.21 8.21 0 0 0-2.14 4.74H330a8 8 0 0 0-.39-2.54 6 6 0 0 0-1.15-2 5.23 5.23 0 0 0-1.88-1.36 6.39 6.39 0 0 0-2.58-.53zm37.09-3.53v21.65h4.72V127a1.62 1.62 0 0 1-.44 1.2 1.52 1.52 0 0 1-1.12.44h-3.35v-8.74h-20.38v7.19a1.71 1.71 0 0 1-.37 1.06 1.32 1.32 0 0 1-1.12.48h-3.43V116h1a5.13 5.13 0 0 0 1.69-.34 4.14 4.14 0 0 0 1.59-1.16 9.26 9.26 0 0 0 1.44-2.35 21.14 21.14 0 0 0 1.24-3.91 55 55 0 0 0 1-5.87q.4-3.46.66-8.2zm-12.46 4.21q-.25 3.56-.66 6.35a49.86 49.86 0 0 1-.95 4.95 25.84 25.84 0 0 1-1.2 3.71 15.88 15.88 0 0 1-1.36 2.61h11.38V98.38zm19.87 21.55V94.17h5.42v16.12q0 .56-.06 1.2t-.16 1.3a11.12 11.12 0 0 1 1-1.92s.19-.28.53-.73l1.3-1.77 1.79-2.46 2-2.81 5.53-7.57a3.78 3.78 0 0 1 .81-.93 1.71 1.71 0 0 1 1.14-.43h3.28v25.73h-5.37v-16.12c0-.34 0-.71.05-1.14s.08-.85.15-1.29q-.25.56-.5 1a7.79 7.79 0 0 1-.5.82s-.21.28-.54.74l-1.29 1.78-1.8 2.46q-1 1.38-2 2.81l-5.5 7.57a4.27 4.27 0 0 1-.81.92 1.68 1.68 0 0 1-1.14.44zm27.73-25.76h5.42v21.65h11.13V94.17h5.4v21.65h4.72V127a1.65 1.65 0 0 1-.43 1.2 1.48 1.48 0 0 1-1.11.44H418v-8.74h-21.78zm29.37 25.76V94.17H431v16.12q0 .56-.06 1.2t-.16 1.3a11.12 11.12 0 0 1 1-1.92s.19-.28.53-.73l1.3-1.77 1.79-2.46 2-2.81 5.6-7.57a3.78 3.78 0 0 1 .81-.93 1.71 1.71 0 0 1 1.14-.43h3.28v25.73h-5.42v-16.12c0-.34 0-.71.05-1.14s.08-.85.15-1.29q-.25.56-.5 1a7.79 7.79 0 0 1-.5.82s-.21.28-.54.74l-1.29 1.78-1.8 2.46q-1 1.38-2 2.81l-5.5 7.57a4.27 4.27 0 0 1-.81.92 1.68 1.68 0 0 1-1.14.44zm49.67-25.76v25.73h-5.4v-11.68h-11.12v11.68h-5.42V94.17h5.42v10h11.13v-10zM497 119.9a2.35 2.35 0 0 1-1.19-.24 1.84 1.84 0 0 1-.68-1l-.53-2.09a19.67 19.67 0 0 1-1.94 1.59 12.77 12.77 0 0 1-2 1.16 9.76 9.76 0 0 1-2.19.72 13 13 0 0 1-2.59.24 9.59 9.59 0 0 1-2.91-.43 6.39 6.39 0 0 1-2.33-1.3 6.15 6.15 0 0 1-1.55-2.16 7.46 7.46 0 0 1-.57-3 5.85 5.85 0 0 1 .79-2.9 7.25 7.25 0 0 1 2.62-2.54 17 17 0 0 1 4.82-1.85 35.06 35.06 0 0 1 7.38-.83v-1.72a6.17 6.17 0 0 0-1.19-4.14 4.37 4.37 0 0 0-3.48-1.36 7.65 7.65 0 0 0-2.62.39 11.93 11.93 0 0 0-1.84.85q-.78.45-1.39.85a2.33 2.33 0 0 1-1.29.39 1.54 1.54 0 0 1-.95-.29 2.4 2.4 0 0 1-.64-.72l-1-1.77a14.74 14.74 0 0 1 10.39-4.06 10.2 10.2 0 0 1 3.95.72 7.9 7.9 0 0 1 2.9 2 9 9 0 0 1 1.79 3.12 12.27 12.27 0 0 1 .62 4v16.37zm-9.46-3.38a7.81 7.81 0 0 0 3.65-.79 11.64 11.64 0 0 0 3-2.28v-4.79a38.44 38.44 0 0 0-4.89.48 13.15 13.15 0 0 0-3.23.93 4.41 4.41 0 0 0-1.78 1.35 2.89 2.89 0 0 0-.54 1.7 3.74 3.74 0 0 0 .29 1.55 2.83 2.83 0 0 0 .81 1.06 3.3 3.3 0 0 0 1.21.61 5.79 5.79 0 0 0 1.46.18z"/>
    </g>
  </g>
</svg>
