<?xml version="1.0" standalone="no"?>
<!DOCTYPE svg PUBLIC "-//W3C//DTD SVG 20010904//EN"
 "http://www.w3.org/TR/2001/REC-SVG-20010904/DTD/svg10.dtd">
<svg version="1.0" xmlns="http://www.w3.org/2000/svg"
 width="300.000000pt" height="300.000000pt" viewBox="0 0 300.000000 300.000000"
 preserveAspectRatio="xMidYMid meet">
<metadata>
Created by potrace 1.11, written by Peter Selinger 2001-2013
</metadata>
<g transform="translate(0.000000,300.000000) scale(0.100000,-0.100000)"
fill="#000000" stroke="none">
<path d="M1783 2768 c-2 -5 3 -23 12 -41 86 -167 168 -411 220 -660 2 -10 6
-26 9 -35 4 -15 11 -52 21 -117 2 -11 8 -49 14 -85 6 -36 13 -87 16 -115 3
-27 8 -61 10 -75 2 -14 6 -54 10 -90 3 -36 8 -83 10 -105 17 -160 25 -698 15
-1010 -1 -55 -2 -105 -1 -111 0 -7 24 -11 63 -10 l61 1 178 295 c98 162 183
302 188 310 6 8 53 87 106 175 186 308 230 380 248 405 18 26 23 65 8 75 -6 3
-16 18 -24 33 -7 15 -64 109 -125 210 -62 100 -112 187 -112 192 0 4 -4 10 -8
12 -5 2 -22 26 -38 55 -16 29 -110 185 -209 348 -99 162 -187 308 -196 323
l-15 27 -228 0 c-125 0 -230 -3 -233 -7z"/>
<path d="M735 2671 c-50 -17 -68 -37 -121 -128 -18 -30 -183 -302 -231 -382
-13 -20 -32 -52 -43 -71 -11 -19 -32 -53 -45 -75 -14 -22 -34 -56 -45 -75 -11
-19 -58 -98 -105 -174 -47 -76 -85 -143 -85 -147 0 -5 -4 -9 -8 -9 -4 0 -15
-16 -24 -35 -17 -37 -15 -41 50 -141 6 -10 20 -34 29 -51 9 -18 20 -33 25 -33
4 0 8 -4 8 -10 0 -5 64 -115 143 -245 78 -129 151 -250 162 -269 11 -19 54
-90 95 -157 41 -68 84 -139 95 -158 22 -38 39 -66 90 -147 l33 -50 503 0 c277
1 510 5 517 9 7 5 10 12 7 17 -3 4 -9 34 -14 67 -5 32 -11 69 -14 83 -3 14 -9
48 -13 75 -4 28 -8 52 -9 55 -2 9 -17 85 -22 110 -2 13 -11 56 -19 95 -9 38
-17 79 -20 90 -35 169 -126 492 -199 705 -151 443 -316 761 -492 945 -55 58
-120 103 -153 107 -3 0 -14 4 -25 8 -13 5 -40 1 -70 -9z"/>
</g>
</svg>
