<svg xmlns="http://www.w3.org/2000/svg" width="60.29" height="52.21" viewBox="0 0 60.29 52.21">
  <defs>
    <style>
      .cls-1 {
        isolation: isolate;
      }

      .cls-2 {
        opacity: 0;
        mix-blend-mode: multiply;
      }

      .cls-3 {
        fill: #238dc1;
      }

      .cls-4 {
        fill: #fff;
      }
    </style>
  </defs>
  <title>Ресурс 44</title>
  <g class="cls-1">
    <g id="Слой_2" data-name="Слой 2">
      <g id="Слой_1-2" data-name="Слой 1">
        <g>
          <g>
            <g class="cls-2">
              <polygon points="45.22 0 15.07 0 0 26.11 15.07 52.21 45.22 52.21 60.29 26.11 45.22 0"/>
            </g>
            <polygon class="cls-3" points="45.22 0 15.07 0 0 26.11 15.07 52.21 45.22 52.21 60.29 26.11 45.22 0"/>
          </g>
          <g>
            <g>
              <g>
                <path class="cls-4" d="M29.17,28.18a3.6,3.6,0,0,1-2.23-.76.48.48,0,0,1,.62-.74,2.76,2.76,0,0,0,3.33,0,.48.48,0,0,1,.54.8,4,4,0,0,1-2.26.73Z"/>
                <g>
                  <circle class="cls-4" cx="25.95" cy="22.53" r="1.14" transform="translate(3.05 48.15) rotate(-89.17)"/>
                  <circle class="cls-4" cx="32.46" cy="22.52" r="1.14" transform="translate(9.48 54.66) rotate(-89.19)"/>
                </g>
              </g>
              <path class="cls-4" d="M41.32,36.24A4.52,4.52,0,0,0,37.15,33H36L29.79,40,23.55,33H22.43a4.52,4.52,0,0,0-4.17,3.28l-2,7.31h27Z"/>
            </g>
            <g>
              <g>
                <path class="cls-4" d="M19.15,18.4h1.22v8.78H19.15c-1.29,0-2.34-2-2.34-4.39S17.86,18.4,19.15,18.4Z"/>
                <path class="cls-4" d="M29.63,8.44a10.37,10.37,0,0,0-10.1,7.44,3.87,3.87,0,0,1,.59,0,4.2,4.2,0,0,1,1.07.14,9,9,0,0,1,16.89,0,3.93,3.93,0,0,1,.87-.1,4.18,4.18,0,0,1,.81.08A10.51,10.51,0,0,0,29.63,8.44Z"/>
              </g>
              <path class="cls-4" d="M40.51,18.4H38.69v8.78h.44c-.31,1-2.14,3.26-7,3.86A2.23,2.23,0,0,0,30,29.84c-1.24,0-2.25.71-2.25,1.57S28.72,33,30,33a2.28,2.28,0,0,0,2.14-1.12c5.79-.66,7.61-3.58,7.87-4.68h.54c1.29,0,2.34-2,2.34-4.39S41.8,18.4,40.51,18.4Z"/>
            </g>
            <path class="cls-4" d="M26.67,30.23a8.63,8.63,0,0,1-3.93-7A6.46,6.46,0,0,1,23,21.3c1.31-1.27,5-1.84,5-1.84a4.51,4.51,0,0,0,3-2.42,6.5,6.5,0,0,1,4.62,6.21,8.78,8.78,0,0,1-3,6.3l0,0a8.2,8.2,0,0,0,4.56-2.08v-10l-.16,0-.39-1.14a5.3,5.3,0,0,0-4.42-3.85c-1.57.06-1.47,1.26-1.47,1.26a3.18,3.18,0,0,0-3.76-1.35c-2.17.74-4,1.82-4.68,4l-.4,1.2-.33-.09v11H19.09c.77,1.48,1.85,2,4.47,1l.26-.16a8.36,8.36,0,0,0,2.56,2.11s0,0,0,0A2.51,2.51,0,0,1,26.67,30.23Z"/>
          </g>
        </g>
      </g>
    </g>
  </g>
</svg>
