<svg xmlns="http://www.w3.org/2000/svg" width="60.29" height="52.21" viewBox="0 0 60.29 52.21">
  <defs>
    <style>
      .cls-1 {
        isolation: isolate;
      }

      .cls-2 {
        opacity: 0;
        mix-blend-mode: multiply;
      }

      .cls-3 {
        fill: #238dc1;
      }

      .cls-4 {
        fill: #fff;
      }
    </style>
  </defs>
  <title>Ресурс 45</title>
  <g class="cls-1">
    <g id="Слой_2" data-name="Слой 2">
      <g id="Слой_1-2" data-name="Слой 1">
        <g>
          <g>
            <g class="cls-2">
              <polygon points="45.22 0 15.07 0 0 26.11 15.07 52.21 45.22 52.21 60.29 26.11 45.22 0"/>
            </g>
            <polygon class="cls-3" points="45.22 0 15.07 0 0 26.11 15.07 52.21 45.22 52.21 60.29 26.11 45.22 0"/>
          </g>
          <g>
            <path class="cls-4" d="M40,13.37H37.42v3.2h1.76V38.69H21.46V16.57h1.77v-3.2H20.66a2.41,2.41,0,0,0-2.4,2.4V39.49a2.41,2.41,0,0,0,2.4,2.4H40a2.41,2.41,0,0,0,2.4-2.4V15.77A2.41,2.41,0,0,0,40,13.37Z"/>
            <path class="cls-4" d="M34.17,13.37a1.44,1.44,0,0,0,.08-.46,3.85,3.85,0,0,0-7.69,0,1.41,1.41,0,0,0,.08.46H24.45V19H36.2v-5.6ZM30.36,15a2,2,0,1,1,2-2A2,2,0,0,1,30.36,15Z"/>
            <path class="cls-4" d="M24.45,35.54a.4.4,0,0,1-.28-.11l-1.69-1.67.56-.57,1.39,1.37L26.76,32l.59.54-2.61,2.87a.4.4,0,0,1-.28.13Z"/>
            <path class="cls-4" d="M24.45,29.61a.4.4,0,0,1-.28-.11l-1.69-1.67.56-.57,1.39,1.37,2.33-2.56.59.54-2.61,2.86a.4.4,0,0,1-.28.13Z"/>
            <path class="cls-4" d="M24.45,23.69a.4.4,0,0,1-.28-.12l-1.69-1.67.56-.57,1.39,1.37,2.33-2.56.59.54-2.61,2.86a.4.4,0,0,1-.28.13Z"/>
            <rect class="cls-4" x="22.77" y="36.09" width="15.22" height="0.8"/>
            <rect class="cls-4" x="22.71" y="30.16" width="15.22" height="0.8"/>
            <rect class="cls-4" x="22.66" y="24.23" width="15.22" height="0.8"/>
          </g>
        </g>
      </g>
    </g>
  </g>
</svg>
