<svg xmlns="http://www.w3.org/2000/svg" width="61.44" height="53.21" viewBox="0 0 61.44 53.21">
  <defs>
    <style>
      .cls-1 {
        isolation: isolate;
      }

      .cls-2 {
        opacity: 0;
        mix-blend-mode: multiply;
      }

      .cls-3, .cls-5 {
        fill: none;
        stroke-miterlimit: 10;
      }

      .cls-3 {
        stroke: #000;
      }

      .cls-4 {
        fill: #238dc1;
      }

      .cls-5 {
        stroke: #008dc1;
      }

      .cls-6, .cls-7 {
        fill: #fff;
      }

      .cls-7 {
        fill-rule: evenodd;
      }
    </style>
  </defs>
  <title>Ресурс 34</title>
  <g class="cls-1">
    <g id="Слой_2" data-name="Слой 2">
      <g id="Слой_1-2" data-name="Слой 1">
        <g>
          <g>
            <g class="cls-2">
              <polygon points="45.8 0.5 15.65 0.5 0.58 26.61 15.65 52.71 45.8 52.71 60.87 26.61 45.8 0.5"/>
              <polygon class="cls-3" points="45.8 0.5 15.65 0.5 0.58 26.61 15.65 52.71 45.8 52.71 60.87 26.61 45.8 0.5"/>
            </g>
            <g>
              <polygon class="cls-4" points="45.8 0.5 15.65 0.5 0.58 26.61 15.65 52.71 45.8 52.71 60.87 26.61 45.8 0.5"/>
              <polygon class="cls-5" points="45.8 0.5 15.65 0.5 0.58 26.61 15.65 52.71 45.8 52.71 60.87 26.61 45.8 0.5"/>
            </g>
          </g>
          <g>
            <g>
              <path class="cls-6" d="M26.23,22.57l-1.91.51.14.53.11.38.92-.24a1.4,1.4,0,0,1,1.71,1l3.46,13.06a1.4,1.4,0,0,1-1,1.7l-6.12,1.62a1.43,1.43,0,0,1-1.73-1l-.69-2.35a.76.76,0,0,0-.92-.52L18,37.89a1.39,1.39,0,0,1-1.7-1L14,28.23a1.4,1.4,0,0,1,1-1.71l.63-.17-.24-.91-1.56.42a1.85,1.85,0,0,0-1.34,2.24l3.94,14.83a1.85,1.85,0,0,0,2.28,1.28L31.1,40.93a1.85,1.85,0,0,0,1.34-2.24L28.51,23.85A1.85,1.85,0,0,0,26.23,22.57Zm-5.62,18-2.28-1.47C17.84,38.82,16.8,38,16.93,38a3.33,3.33,0,0,0,2,.13l.62-.17a1.05,1.05,0,0,1,1.3.74l.23.85c.26,1,1.08,1.31,1.12,1.48S21.11,40.93,20.62,40.61Z"/>
              <path class="cls-6" d="M22.67,22.51l-1.48.39c-.22-.57-1.22-.8-1.83-.64s-1.36.85-1.27,1.46l-1.48.39A.89.89,0,0,0,16,25.2l.08.32L16.45,27l7.78-2.06-.39-1.47-.09-.33A.89.89,0,0,0,22.67,22.51Zm-2.84,1.61a.66.66,0,1,1,.47-.81A.66.66,0,0,1,19.82,24.12Z"/>
            </g>
            <g>
              <path class="cls-7" d="M34.11,9.14a6.16,6.16,0,1,1-6.16,6.16,6.16,6.16,0,0,1,6.16-6.16Z"/>
              <g>
                <path class="cls-6" d="M45.63,26.92C44.84,24.2,43.5,23,40.89,23H39.56l-3.2,14.43,11.25,0ZM43.79,31h-4.1v-.92h4.1Z"/>
                <polygon class="cls-7" points="33.75 22.85 31.17 27.22 33.42 37.44 34.64 37.44 36.86 27.05 33.75 22.85"/>
              </g>
            </g>
            <path class="cls-6" d="M23.2,40.25a.52.52,0,0,1-.5-.37L22,37.54a1.68,1.68,0,0,0-1.61-1.19,1.75,1.75,0,0,0-.43.06L17.78,37h-.12a.47.47,0,0,1-.45-.35L14.9,28a.49.49,0,0,1,.34-.6l.39-.1.19.72,9.43-2.5-.19-.72.67-.18.13,0a.49.49,0,0,1,.47.36L29.79,38a.49.49,0,0,1,0,.37.48.48,0,0,1-.3.22l-6.12,1.63-.13,0Zm-1.37-4.46,2.41-.64-.58-2.2,2.2-.58L25.21,30l-2.2.58-.58-2.2L20,29l.59,2.2-2.2.59L19,34.17l2.2-.58Z"/>
          </g>
        </g>
      </g>
    </g>
  </g>
</svg>
